AsbirSerif-Regular.ufo
<glyph name="uni0021" format="2">
  <advance width="250"/>
  <unicode hex="0021"/>
  <outline>
    <contour>
      <point x="218" y="130" type="line"/>
      <point x="266" y="130" type="line"/>
      <point x="266" y="555" type="line"/>
      <point x="218" y="555" type="line"/>
    </contour>
    <contour>
      <point x="274.0" y="35" type="curve"/>
      <point x="274.0" y="48.254834"/>
      <point x="263.254834" y="59.0"/>
      <point x="250" y="59.0" type="curve"/>
      <point x="236.745166" y="59.0"/>
      <point x="226.0" y="48.254834"/>
      <point x="226.0" y="35" type="curve"/>
      <point x="226.0" y="21.745166"/>
      <point x="236.745166" y="11.0"/>
      <point x="250" y="11.0" type="curve"/>
      <point x="263.254834" y="11.0"/>
      <point x="274.0" y="21.745166"/>
    </contour>
  </outline>
</glyph>
<glyph name="uni0022" format="2">
  <advance width="500"/>
  <unicode hex="0022"/>
  <outline>
    <contour>
      <point x="200.96573858344308" y="550.1263384073586" type="line"/>
      <point x="160.96573858344308" y="460.1263384073586" type="line"/>
      <point x="139.03426141655692" y="469.8736615926414" type="line"/>
      <point x="179.03426141655692" y="559.8736615926414" type="line"/>
    </contour>
    <contour>
      <point x="320.9657385834431" y="559.8736615926414" type="line"/>
      <point x="360.9657385834431" y="469.8736615926414" type="line"/>
      <point x="339.0342614165569" y="460.1263384073586" type="line"/>
      <point x="299.0342614165569" y="550.1263384073586" type="line"/>
    </contour>
  </outline>
</glyph>
<glyph name="uni0023" format="2">
  <advance width="560"/>
  <unicode hex="0023"/>
  <outline>
    <contour>
      <point x="160" y="80" type="line"/>
      <point x="208" y="80" type="line"/>
      <point x="208" y="620" type="line"/>
      <point x="160" y="620" type="line"/>
    </contour>
    <contour>
      <point x="300" y="80" type="line"/>
      <point x="348" y="80" type="line"/>
      <point x="348" y="620" type="line"/>
      <point x="300" y="620" type="line"/>
    </contour>
    <contour>
      <point x="80" y="240" type="line"/>
      <point x="420" y="240" type="line"/>
      <point x="420" y="288" type="line"/>
      <point x="80" y="288" type="line"/>
    </contour>
    <contour>
      <point x="80" y="400" type="line"/>
      <point x="420" y="400" type="line"/>
      <point x="420" y="448" type="line"/>
      <point x="80" y="448" type="line"/>
    </contour>
  </outline>
</glyph>
<glyph name="uni0025" format="2">
  <advance width="500"/>
  <unicode hex="0025"/>
  <outline>
    <contour>
      <point x="190" y="520" type="curve"/>
      <point x="190" y="550.37566125"/>
      <point x="165.37566125" y="575"/>
      <point x="135" y="575" type="curve"/>
      <point x="104.62433874999999" y="575"/>
      <point x="80" y="550.37566125"/>
      <point x="80" y="520" type="curve"/>
      <point x="80" y="489.62433875"/>
      <point x="104.62433874999999" y="465"/>
      <point x="135" y="465" type="curve"/>
      <point x="165.37566125" y="465"/>
      <point x="190" y="489.62433875"/>
    </contour>
    <contour>
      <point x="420" y="180" type="curve"/>
      <point x="420" y="210.37566125"/>
      <point x="395.37566125" y="235"/>
      <point x="365" y="235" type="curve"/>
      <point x="334.62433875" y="235"/>
      <point x="310" y="210.37566125"/>
      <point x="310" y="180" type="curve"/>
      <point x="310" y="149.62433875"/>
      <point x="334.62433875" y="125"/>
      <point x="365" y="125" type="curve"/>
      <point x="395.37566125" y="125"/>
      <point x="420" y="149.62433875"/>
    </contour>
    <contour>
      <point x="88.6938912452257" y="91.04761194692001" type="line"/>
      <point x="368.6938912452257" y="631.04761194692" type="line"/>
      <point x="411.3061087547743" y="608.95238805308" type="line"/>
      <point x="131.3061087547743" y="68.95238805307999" type="line"/>
    </contour>
  </outline>
</glyph>
<glyph name="uni0026" format="2">
  <advance width="500"/>
  <unicode hex="0026"/>
  <outline>
    <contour>
      <point x="350" y="220" type="curve"/>
      <point x="350" y="319.411255"/>
      <point x="291.7970175" y="400"/>
      <point x="220" y="400" type="curve"/>
      <point x="148.20298250000002" y="400"/>
      <point x="90" y="319.411255"/>
      <point x="90" y="220" type="curve"/>
      <point x="90" y="120.588745"/>
      <point x="148.20298250000002" y="40"/>
      <point x="220" y="40" type="curve"/>
      <point x="291.7970175" y="40"/>
      <point x="350" y="120.588745"/>
    </contour>
    <contour>
      <point x="302" y="220" type="curve"/>
      <point x="302" y="147.098413"/>
      <point x="265.2873495" y="88"/>
      <point x="220" y="88" type="curve"/>
      <point x="174.7126505" y="88"/>
      <point x="138" y="147.098413"/>
      <point x="138" y="220" type="curve"/>
      <point x="138" y="292.901587"/>
      <point x="174.7126505" y="352"/>
      <point x="220" y="352" type="curve"/>
      <point x="265.2873495" y="352"/>
      <point x="302" y="292.901587"/>
    </contour>
    <contour>
      <point x="131.6132392727499" y="590.4339775799482" type="line"/>
      <point x="411.61323927274987" y="10.43397757994822" type="line"/>
      <point x="368.38676072725013" y="-10.43397757994822" type="line"/>
      <point x="88.38676072725012" y="569.5660224200518" type="line"/>
    </contour>
    <contour>
      <point x="400" y="520" type="curve"/>
      <point x="400" y="586.27417"/>
      <point x="355.228475" y="640"/>
      <point x="300" y="640" type="curve"/>
      <point x="244.771525" y="640"/>
      <point x="200" y="586.27417"/>
      <point x="200" y="520" type="curve"/>
      <point x="200" y="453.72583"/>
      <point x="244.771525" y="400"/>
      <point x="300" y="400" type="curve"/>
      <point x="355.228475" y="400"/>
      <point x="400" y="453.72583"/>
    </contour>
  </outline>
</glyph>
<glyph name="uni0027" format="2">
  <advance width="250"/>
  <unicode hex="0027"/>
  <outline>
    <contour>
      <point x="260.9657385834431" y="559.8736615926414" type="line"/>
      <point x="300.9657385834431" y="469.8736615926414" type="line"/>
      <point x="279.0342614165569" y="460.1263384073586" type="line"/>
      <point x="239.03426141655692" y="550.1263384073586" type="line"/>
    </contour>
  </outline>
</glyph>
<glyph name="uni002A" format="2">
  <advance width="500"/>
  <unicode hex="002A"/>
  <outline>
    <contour>
      <point x="109.7082663272567" y="172.81583179331156" type="line"/>
      <point x="349.7082663272567" y="552.8158317933115" type="line"/>
      <point x="390.2917336727433" y="527.1841682066885" type="line"/>
      <point x="150.2917336727433" y="147.18416820668844" type="line"/>
    </contour>
    <contour>
      <point x="349.7082663272567" y="147.18416820668844" type="line"/>
      <point x="109.7082663272567" y="527.1841682066885" type="line"/>
      <point x="150.2917336727433" y="552.8158317933115" type="line"/>
      <point x="390.2917336727433" y="172.81583179331156" type="line"/>
    </contour>
    <contour>
      <point x="90" y="330" type="line"/>
      <point x="410" y="330" type="line"/>
      <point x="410" y="378" type="line"/>
      <point x="90" y="378" type="line"/>
    </contour>
  </outline>
</glyph>
<glyph name="uni002C" format="2">
  <advance width="250"/>
  <unicode hex="002C"/>
  <outline>
    <contour>
      <point x="274.0" y="35" type="curve"/>
      <point x="274.0" y="48.254834"/>
      <point x="263.254834" y="59.0"/>
      <point x="250" y="59.0" type="curve"/>
      <point x="236.745166" y="59.0"/>
      <point x="226.0" y="48.254834"/>
      <point x="226.0" y="35" type="curve"/>
      <point x="226.0" y="21.745166"/>
      <point x="236.745166" y="11.0"/>
      <point x="250" y="11.0" type="curve"/>
      <point x="263.254834" y="11.0"/>
      <point x="274.0" y="21.745166"/>
    </contour>
    <contour>
      <point x="261.4290897663919" y="16.342691274754596" type="line"/>
      <point x="221.42908976639188" y="-108.6573087252454" type="line"/>
      <point x="198.57091023360812" y="-101.3426912747546" type="line"/>
      <point x="238.57091023360812" y="23.657308725245404" type="line"/>
    </contour>
  </outline>
</glyph>
<glyph name="uni002E" format="2">
  <advance width="250"/>
  <unicode hex="002E"/>
  <outline>
    <contour>
      <point x="274.0" y="35" type="curve"/>
      <point x="274.0" y="48.254834"/>
      <point x="263.254834" y="59.0"/>
      <point x="250" y="59.0" type="curve"/>
      <point x="236.745166" y="59.0"/>
      <point x="226.0" y="48.254834"/>
      <point x="226.0" y="35" type="curve"/>
      <point x="226.0" y="21.745166"/>
      <point x="236.745166" y="11.0"/>
      <point x="250" y="11.0" type="curve"/>
      <point x="263.254834" y="11.0"/>
      <point x="274.0" y="21.745166"/>
    </contour>
  </outline>
</glyph>
<glyph name="uni002F" format="2">
  <advance width="500"/>
  <unicode hex="002F"/>
  <outline>
    <contour>
      <point x="97.50179347176564" y="8.356476710487051" type="line"/>
      <point x="357.5017934717656" y="708.3564767104871" type="line"/>
      <point x="402.4982065282344" y="691.6435232895129" type="line"/>
      <point x="142.49820652823436" y="-8.356476710487051" type="line"/>
    </contour>
  </outline>
</glyph>
<glyph name="uni0030" format="2">
  <advance width="500"/>
  <unicode hex="0030"/>
  <outline>
    <contour>
      <point x="430" y="350" type="curve"/>
      <point x="430" y="543.2996625000001"/>
      <point x="349.411255" y="700"/>
      <point x="250" y="700" type="curve"/>
      <point x="150.58874500000002" y="700"/>
      <point x="70" y="543.2996625000001"/>
      <point x="70" y="350" type="curve"/>
      <point x="70" y="156.7003375"/>
      <point x="150.58874500000002" y="0"/>
      <point x="250" y="0" type="curve"/>
      <point x="349.411255" y="0"/>
      <point x="430" y="156.7003375"/>
    </contour>
    <contour>
      <point x="382" y="350" type="curve"/>
      <point x="382" y="183.2100055"/>
      <point x="322.901587" y="48"/>
      <point x="250" y="48" type="curve"/>
      <point x="177.098413" y="48"/>
      <point x="118" y="183.2100055"/>
      <point x="118" y="350" type="curve"/>
      <point x="118" y="516.7899945"/>
      <point x="177.098413" y="652"/>
      <point x="250" y="652" type="curve"/>
      <point x="322.901587" y="652"/>
      <point x="382" y="516.7899945"/>
    </contour>
    <contour>
      <point x="80" y="0" type="line"/>
      <point x="160" y="0" type="line"/>
      <point x="160" y="20" type="line"/>
      <point x="80" y="20" type="line"/>
    </contour>
    <contour>
      <point x="340" y="0" type="line"/>
      <point x="420" y="0" type="line"/>
      <point x="420" y="20" type="line"/>
      <point x="340" y="20" type="line"/>
    </contour>
  </outline>
</glyph>
<glyph name="uni0031" format="2">
  <advance width="500"/>
  <unicode hex="0031"/>
  <outline>
    <contour>
      <point x="231.44" y="0" type="curve"/>
      <point x="252.56" y="0" type="line"/>
      <point x="259.98270704" y="0"/>
      <point x="266" y="6.017292960000001"/>
      <point x="266" y="13.440000000000001" type="curve"/>
      <point x="266" y="686.56" type="line"/>
      <point x="266" y="693.9827070399999"/>
      <point x="259.98270704" y="700"/>
      <point x="252.56" y="700" type="curve"/>
      <point x="231.44" y="700" type="line"/>
      <point x="224.01729296" y="700"/>
      <point x="218" y="693.9827070399999"/>
      <point x="218" y="686.56" type="curve"/>
      <point x="218" y="13.440000000000001" type="line"/>
      <point x="218" y="6.017292960000001"/>
      <point x="224.01729296" y="0"/>
    </contour>
    <contour>
      <point x="86.32439687893604" y="575.0738796620017" type="line"/>
      <point x="199.32439687893606" y="715.0738796620017" type="line"/>
      <point x="236.67560312106394" y="684.9261203379983" type="line"/>
      <point x="123.67560312106396" y="544.9261203379983" type="line"/>
    </contour>
    <contour>
      <point x="80" y="0" type="line"/>
      <point x="160" y="0" type="line"/>
      <point x="160" y="20" type="line"/>
      <point x="80" y="20" type="line"/>
    </contour>
    <contour>
      <point x="340" y="0" type="line"/>
      <point x="420" y="0" type="line"/>
      <point x="420" y="20" type="line"/>
      <point x="340" y="20" type="line"/>
    </contour>
  </outline>
</glyph>
<glyph name="uni0033" format="2">
  <advance width="500"/>
  <unicode hex="0033"/>
  <outline>
    <contour>
      <point x="402.2" y="695.2" type="line"/>
      <point x="283.8" y="703.84"/>
      <point x="88.2" y="696.16"/>
      <point x="85.8" y="434.0" type="curve"/>
      <point x="83.4" y="357.0"/>
      <point x="229.72" y="353.84"/>
      <point x="246.62" y="350" type="curve"/>
      <point x="283.8" y="266.0"/>
      <point x="417.08" y="329.0"/>
      <point x="415.16" y="203.0" type="curve"/>
      <point x="413.24" y="2.4000000000000004"/>
      <point x="209.44" y="-2.88"/>
      <point x="83.4" y="6.720000000000001" type="curve"/>
      <point x="88.68" y="47.04" type="line"/>
      <point x="216.2" y="29.759999999999998"/>
      <point x="387.8" y="40.8"/>
      <point x="391.16" y="189.0" type="curve"/>
      <point x="393.08" y="315.0"/>
      <point x="266.9" y="308.0"/>
      <point x="236.48" y="351.44" type="curve"/>
      <point x="192.54" y="357.2"/>
      <point x="103.08" y="355.76"/>
      <point x="105.96000000000001" y="448.0" type="curve"/>
      <point x="108.84" y="670.24"/>
      <point x="277.04" y="678.4"/>
      <point x="403.64" y="652.96" type="curve"/>
    </contour>
    <contour>
      <point x="246.52" y="316" type="curve"/>
      <point x="343.48" y="316" type="line"/>
      <point x="349.84232032" y="316"/>
      <point x="355" y="321.15767968"/>
      <point x="355" y="327.52" type="curve"/>
      <point x="355" y="352.48" type="line"/>
      <point x="355" y="358.84232032"/>
      <point x="349.84232032" y="364"/>
      <point x="343.48" y="364" type="curve"/>
      <point x="246.52" y="364" type="line"/>
      <point x="240.15767968" y="364"/>
      <point x="235" y="358.84232032"/>
      <point x="235" y="352.48" type="curve"/>
      <point x="235" y="327.52" type="line"/>
      <point x="235" y="321.15767968"/>
      <point x="240.15767968" y="316"/>
    </contour>
    <contour>
      <point x="80" y="0" type="line"/>
      <point x="160" y="0" type="line"/>
      <point x="160" y="20" type="line"/>
      <point x="80" y="20" type="line"/>
    </contour>
    <contour>
      <point x="340" y="0" type="line"/>
      <point x="420" y="0" type="line"/>
      <point x="420" y="20" type="line"/>
      <point x="340" y="20" type="line"/>
    </contour>
  </outline>
</glyph>
<glyph name="uni0034" format="2">
  <advance width="500"/>
  <unicode hex="0034"/>
  <outline>
    <contour>
      <point x="315.44" y="0" type="curve"/>
      <point x="336.56" y="0" type="line"/>
      <point x="343.98270704" y="0"/>
      <point x="350" y="6.017292960000001"/>
      <point x="350" y="13.440000000000001" type="curve"/>
      <point x="350" y="686.56" type="line"/>
      <point x="350" y="693.9827070399999"/>
      <point x="343.98270704" y="700"/>
      <point x="336.56" y="700" type="curve"/>
      <point x="315.44" y="700" type="line"/>
      <point x="308.01729296" y="700"/>
      <point x="302" y="693.9827070399999"/>
      <point x="302" y="686.56" type="curve"/>
      <point x="302" y="13.440000000000001" type="line"/>
      <point x="302" y="6.017292960000001"/>
      <point x="308.01729296" y="0"/>
    </contour>
    <contour>
      <point x="57.753276482644196" y="289.0046261855964" type="line"/>
      <point x="227.7532764826442" y="709.0046261855964" type="line"/>
      <point x="272.2467235173558" y="690.9953738144036" type="line"/>
      <point x="102.2467235173558" y="270.9953738144036" type="line"/>
    </contour>
    <contour>
      <point x="91.52" y="280" type="curve"/>
      <point x="398.48" y="280" type="line"/>
      <point x="404.84232032" y="280"/>
      <point x="410" y="285.15767968"/>
      <point x="410" y="291.52" type="curve"/>
      <point x="410" y="316.48" type="line"/>
      <point x="410" y="322.84232032"/>
      <point x="404.84232032" y="328"/>
      <point x="398.48" y="328" type="curve"/>
      <point x="91.52" y="328" type="line"/>
      <point x="85.15767968" y="328"/>
      <point x="80" y="322.84232032"/>
      <point x="80" y="316.48" type="curve"/>
      <point x="80" y="291.52" type="line"/>
      <point x="80" y="285.15767968"/>
      <point x="85.15767968" y="280"/>
    </contour>
    <contour>
      <point x="80" y="0" type="line"/>
      <point x="160" y="0" type="line"/>
      <point x="160" y="20" type="line"/>
      <point x="80" y="20" type="line"/>
    </contour>
    <contour>
      <point x="340" y="0" type="line"/>
      <point x="420" y="0" type="line"/>
      <point x="420" y="20" type="line"/>
      <point x="340" y="20" type="line"/>
    </contour>
  </outline>
</glyph>
<glyph name="uni0036" format="2">
  <advance width="500"/>
  <unicode hex="0036"/>
  <outline>
    <contour>
      <point x="425" y="190" type="curve"/>
      <point x="425" y="294.9341025"/>
      <point x="346.64983125000003" y="380"/>
      <point x="250" y="380" type="curve"/>
      <point x="153.35016875" y="380"/>
      <point x="75" y="294.9341025"/>
      <point x="75" y="190" type="curve"/>
      <point x="75" y="85.0658975"/>
      <point x="153.35016875" y="0"/>
      <point x="250" y="0" type="curve"/>
      <point x="346.64983125000003" y="0"/>
      <point x="425" y="85.0658975"/>
    </contour>
    <contour>
      <point x="377" y="190" type="curve"/>
      <point x="377" y="111.5755655"/>
      <point x="320.14016325" y="48"/>
      <point x="250" y="48" type="curve"/>
      <point x="179.85983675" y="48"/>
      <point x="123" y="111.5755655"/>
      <point x="123" y="190" type="curve"/>
      <point x="123" y="268.4244345"/>
      <point x="179.85983675" y="332"/>
      <point x="250" y="332" type="curve"/>
      <point x="320.14016325" y="332"/>
      <point x="377" y="268.4244345"/>
    </contour>
    <contour>
      <point x="75" y="190" type="line"/>
      <point x="75" y="505"/>
      <point x="188" y="710"/>
      <point x="352" y="710" type="curve"/>
      <point x="385" y="646" type="line"/>
      <point x="250" y="636"/>
      <point x="139" y="492"/>
      <point x="139" y="220" type="curve"/>
    </contour>
    <contour>
      <point x="80" y="0" type="line"/>
      <point x="160" y="0" type="line"/>
      <point x="160" y="20" type="line"/>
      <point x="80" y="20" type="line"/>
    </contour>
    <contour>
      <point x="340" y="0" type="line"/>
      <point x="420" y="0" type="line"/>
      <point x="420" y="20" type="line"/>
      <point x="340" y="20" type="line"/>
    </contour>
  </outline>
</glyph>
<glyph name="uni0037" format="2">
  <advance width="500"/>
  <unicode hex="0037"/>
  <outline>
    <contour>
      <point x="81.52" y="652" type="curve"/>
      <point x="418.48" y="652" type="line"/>
      <point x="424.84232032" y="652"/>
      <point x="430" y="657.15767968"/>
      <point x="430" y="663.52" type="curve"/>
      <point x="430" y="688.48" type="line"/>
      <point x="430" y="694.84232032"/>
      <point x="424.84232032" y="700"/>
      <point x="418.48" y="700" type="curve"/>
      <point x="81.52" y="700" type="line"/>
      <point x="75.15767968" y="700"/>
      <point x="70" y="694.84232032"/>
      <point x="70" y="688.48" type="curve"/>
      <point x="70" y="663.52" type="line"/>
      <point x="70" y="657.15767968"/>
      <point x="75.15767968" y="652"/>
    </contour>
    <contour>
      <point x="432.61690502474266" y="667.9703295770145" type="line"/>
      <point x="192.6169050247427" y="-8.029670422985568" type="line"/>
      <point x="147.3830949752573" y="8.029670422985568" type="line"/>
      <point x="387.38309497525734" y="684.0296704229855" type="line"/>
    </contour>
    <contour>
      <point x="80" y="0" type="line"/>
      <point x="160" y="0" type="line"/>
      <point x="160" y="20" type="line"/>
      <point x="80" y="20" type="line"/>
    </contour>
    <contour>
      <point x="340" y="0" type="line"/>
      <point x="420" y="0" type="line"/>
      <point x="420" y="20" type="line"/>
      <point x="340" y="20" type="line"/>
    </contour>
  </outline>
</glyph>
<glyph name="uni0038" format="2">
  <advance width="500"/>
  <unicode hex="0038"/>
  <outline>
    <contour>
      <point x="415" y="525" type="curve"/>
      <point x="415" y="613.36556"/>
      <point x="341.12698375" y="685"/>
      <point x="250" y="685" type="curve"/>
      <point x="158.87301625" y="685"/>
      <point x="85" y="613.36556"/>
      <point x="85" y="525" type="curve"/>
      <point x="85" y="436.63444"/>
      <point x="158.87301625" y="365"/>
      <point x="250" y="365" type="curve"/>
      <point x="341.12698375" y="365"/>
      <point x="415" y="436.63444"/>
    </contour>
    <contour>
      <point x="367" y="525" type="curve"/>
      <point x="367" y="463.144108"/>
      <point x="314.61731575" y="413"/>
      <point x="250" y="413" type="curve"/>
      <point x="185.38268425" y="413"/>
      <point x="133" y="463.144108"/>
      <point x="133" y="525" type="curve"/>
      <point x="133" y="586.855892"/>
      <point x="185.38268425" y="637"/>
      <point x="250" y="637" type="curve"/>
      <point x="314.61731575" y="637"/>
      <point x="367" y="586.855892"/>
    </contour>
    <contour>
      <point x="415" y="175" type="curve"/>
      <point x="415" y="263.36556"/>
      <point x="341.12698375" y="335"/>
      <point x="250" y="335" type="curve"/>
      <point x="158.87301625" y="335"/>
      <point x="85" y="263.36556"/>
      <point x="85" y="175" type="curve"/>
      <point x="85" y="86.63444"/>
      <point x="158.87301625" y="15"/>
      <point x="250" y="15" type="curve"/>
      <point x="341.12698375" y="15"/>
      <point x="415" y="86.63444"/>
    </contour>
    <contour>
      <point x="367" y="175" type="curve"/>
      <point x="367" y="113.144108"/>
      <point x="314.61731575" y="63"/>
      <point x="250" y="63" type="curve"/>
      <point x="185.38268425" y="63"/>
      <point x="133" y="113.144108"/>
      <point x="133" y="175" type="curve"/>
      <point x="133" y="236.85589199999998"/>
      <point x="185.38268425" y="287"/>
      <point x="250" y="287" type="curve"/>
      <point x="314.61731575" y="287"/>
      <point x="367" y="236.85589199999998"/>
    </contour>
    <contour>
      <point x="80" y="0" type="line"/>
      <point x="160" y="0" type="line"/>
      <point x="160" y="20" type="line"/>
      <point x="80" y="20" type="line"/>
    </contour>
    <contour>
      <point x="340" y="0" type="line"/>
      <point x="420" y="0" type="line"/>
      <point x="420" y="20" type="line"/>
      <point x="340" y="20" type="line"/>
    </contour>
  </outline>
</glyph>
<glyph name="uni0039" format="2">
  <advance width="500"/>
  <unicode hex="0039"/>
  <outline>
    <contour>
      <point x="425" y="510" type="curve"/>
      <point x="425" y="614.9341025"/>
      <point x="346.64983125000003" y="700"/>
      <point x="250" y="700" type="curve"/>
      <point x="153.35016875" y="700"/>
      <point x="75" y="614.9341025"/>
      <point x="75" y="510" type="curve"/>
      <point x="75" y="405.0658975"/>
      <point x="153.35016875" y="320"/>
      <point x="250" y="320" type="curve"/>
      <point x="346.64983125000003" y="320"/>
      <point x="425" y="405.0658975"/>
    </contour>
    <contour>
      <point x="377" y="510" type="curve"/>
      <point x="377" y="431.5755655"/>
      <point x="320.14016325" y="368"/>
      <point x="250" y="368" type="curve"/>
      <point x="179.85983675" y="368"/>
      <point x="123" y="431.5755655"/>
      <point x="123" y="510" type="curve"/>
      <point x="123" y="588.4244345"/>
      <point x="179.85983675" y="652"/>
      <point x="250" y="652" type="curve"/>
      <point x="320.14016325" y="652"/>
      <point x="377" y="588.4244345"/>
    </contour>
    <contour>
      <point x="425" y="510" type="line"/>
      <point x="425" y="194"/>
      <point x="312" y="-10"/>
      <point x="148" y="-10" type="curve"/>
      <point x="115" y="54" type="line"/>
      <point x="250" y="64"/>
      <point x="361" y="208"/>
      <point x="361" y="480" type="curve"/>
    </contour>
    <contour>
      <point x="80" y="0" type="line"/>
      <point x="160" y="0" type="line"/>
      <point x="160" y="20" type="line"/>
      <point x="80" y="20" type="line"/>
    </contour>
    <contour>
      <point x="340" y="0" type="line"/>
      <point x="420" y="0" type="line"/>
      <point x="420" y="20" type="line"/>
      <point x="340" y="20" type="line"/>
    </contour>
  </outline>
</glyph>
<glyph name="uni003A" format="2">
  <advance width="250"/>
  <unicode hex="003A"/>
  <outline>
    <contour>
      <point x="274.0" y="390" type="curve"/>
      <point x="274.0" y="403.254834"/>
      <point x="263.254834" y="414.0"/>
      <point x="250" y="414.0" type="curve"/>
      <point x="236.745166" y="414.0"/>
      <point x="226.0" y="403.254834"/>
      <point x="226.0" y="390" type="curve"/>
      <point x="226.0" y="376.745166"/>
      <point x="236.745166" y="366.0"/>
      <point x="250" y="366.0" type="curve"/>
      <point x="263.254834" y="366.0"/>
      <point x="274.0" y="376.745166"/>
    </contour>
    <contour>
      <point x="274.0" y="35" type="curve"/>
      <point x="274.0" y="48.254834"/>
      <point x="263.254834" y="59.0"/>
      <point x="250" y="59.0" type="curve"/>
      <point x="236.745166" y="59.0"/>
      <point x="226.0" y="48.254834"/>
      <point x="226.0" y="35" type="curve"/>
      <point x="226.0" y="21.745166"/>
      <point x="236.745166" y="11.0"/>
      <point x="250" y="11.0" type="curve"/>
      <point x="263.254834" y="11.0"/>
      <point x="274.0" y="21.745166"/>
    </contour>
  </outline>
</glyph>
<glyph name="uni003E" format="2">
  <advance width="500"/>
  <unicode hex="003E"/>
  <outline>
    <contour>
      <point x="80" y="0" type="line"/>
      <point x="420" y="0" type="line"/>
      <point x="420" y="48" type="line"/>
      <point x="80" y="48" type="line"/>
    </contour>
    <contour>
      <point x="80" y="652" type="line"/>
      <point x="420" y="652" type="line"/>
      <point x="420" y="700" type="line"/>
      <point x="80" y="700" type="line"/>
    </contour>
    <contour>
      <point x="80" y="0" type="line"/>
      <point x="128" y="0" type="line"/>
      <point x="128" y="700" type="line"/>
      <point x="80" y="700" type="line"/>
    </contour>
    <contour>
      <point x="372" y="0" type="line"/>
      <point x="420" y="0" type="line"/>
      <point x="420" y="700" type="line"/>
      <point x="372" y="700" type="line"/>
    </contour>
  </outline>
</glyph>
<glyph name="uni003F" format="2">
  <advance width="500"/>
  <unicode hex="003F"/>
  <outline>
    <contour>
      <point x="105" y="507" type="line"/>
      <point x="355" y="507" type="line"/>
      <point x="355" y="555" type="line"/>
      <point x="105" y="555" type="line"/>
    </contour>
    <contour>
      <point x="307" y="300" type="line"/>
      <point x="355" y="300" type="line"/>
      <point x="355" y="555" type="line"/>
      <point x="307" y="555" type="line"/>
    </contour>
    <contour>
      <point x="215" y="190" type="line"/>
      <point x="263" y="190" type="line"/>
      <point x="263" y="300" type="line"/>
      <point x="215" y="300" type="line"/>
    </contour>
    <contour>
      <point x="274.0" y="35" type="curve"/>
      <point x="274.0" y="48.254834"/>
      <point x="263.254834" y="59.0"/>
      <point x="250" y="59.0" type="curve"/>
      <point x="236.745166" y="59.0"/>
      <point x="226.0" y="48.254834"/>
      <point x="226.0" y="35" type="curve"/>
      <point x="226.0" y="21.745166"/>
      <point x="236.745166" y="11.0"/>
      <point x="250" y="11.0" type="curve"/>
      <point x="263.254834" y="11.0"/>
      <point x="274.0" y="21.745166"/>
    </contour>
  </outline>
</glyph>
<glyph name="uni0040" format="2">
  <advance width="560"/>
  <unicode hex="0040"/>
  <outline>
    <contour>
      <point x="460" y="350" type="curve"/>
      <point x="460" y="504.63973"/>
      <point x="365.9797975" y="630"/>
      <point x="250" y="630" type="curve"/>
      <point x="134.02020249999998" y="630"/>
      <point x="40" y="504.63973"/>
      <point x="40" y="350" type="curve"/>
      <point x="40" y="195.36027"/>
      <point x="134.02020249999998" y="70"/>
      <point x="250" y="70" type="curve"/>
      <point x="365.9797975" y="70"/>
      <point x="460" y="195.36027"/>
    </contour>
    <contour>
      <point x="412" y="350" type="curve"/>
      <point x="412" y="221.869938"/>
      <point x="339.4701295" y="118"/>
      <point x="250" y="118" type="curve"/>
      <point x="160.52987050000002" y="118"/>
      <point x="88" y="221.869938"/>
      <point x="88" y="350" type="curve"/>
      <point x="88" y="478.130062"/>
      <point x="160.52987050000002" y="582"/>
      <point x="250" y="582" type="curve"/>
      <point x="339.4701295" y="582"/>
      <point x="412" y="478.130062"/>
    </contour>
    <contour>
      <point x="360" y="350" type="curve"/>
      <point x="360" y="416.27417"/>
      <point x="315.228475" y="470"/>
      <point x="260" y="470" type="curve"/>
      <point x="204.771525" y="470"/>
      <point x="160" y="416.27417"/>
      <point x="160" y="350" type="curve"/>
      <point x="160" y="283.72583"/>
      <point x="204.771525" y="230"/>
      <point x="260" y="230" type="curve"/>
      <point x="315.228475" y="230"/>
      <point x="360" y="283.72583"/>
    </contour>
    <contour>
      <point x="312" y="350" type="curve"/>
      <point x="312" y="310.235498"/>
      <point x="288.71880699999997" y="278"/>
      <point x="260" y="278" type="curve"/>
      <point x="231.281193" y="278"/>
      <point x="208" y="310.235498"/>
      <point x="208" y="350" type="curve"/>
      <point x="208" y="389.764502"/>
      <point x="231.281193" y="422"/>
      <point x="260" y="422" type="curve"/>
      <point x="288.71880699999997" y="422"/>
      <point x="312" y="389.764502"/>
    </contour>
    <contour>
      <point x="320" y="290" type="line"/>
      <point x="368" y="290" type="line"/>
      <point x="368" y="440" type="line"/>
      <point x="320" y="440" type="line"/>
    </contour>
  </outline>
</glyph>
<glyph name="A" format="2">
  <advance width="540"/>
  <unicode hex="0041"/>
  <outline>
    <contour>
      <point x="48.519084797254656" y="4.9645363571518715" type="line"/>
      <point x="196.51908479725466" y="704.9645363571519" type="line"/>
      <point x="243.48091520274534" y="695.0354636428481" type="line"/>
      <point x="95.48091520274534" y="-4.9645363571518715" type="line"/>
    </contour>
    <contour>
      <point x="404.51908479725466" y="-4.9645363571518715" type="line"/>
      <point x="256.51908479725466" y="695.0354636428481" type="line"/>
      <point x="303.48091520274534" y="704.9645363571519" type="line"/>
      <point x="451.48091520274534" y="4.9645363571518715" type="line"/>
    </contour>
    <contour>
      <point x="161.56" y="286" type="curve"/>
      <point x="338.44" y="286" type="line"/>
      <point x="344.27212696" y="286"/>
      <point x="349" y="290.72787304"/>
      <point x="349" y="296.56" type="curve"/>
      <point x="349" y="314.8" type="line"/>
      <point x="349" y="320.63212696"/>
      <point x="344.27212696" y="325.36"/>
      <point x="338.44" y="325.36" type="curve"/>
      <point x="161.56" y="325.36" type="line"/>
      <point x="155.72787304" y="325.36"/>
      <point x="151" y="320.63212696"/>
      <point x="151" y="314.8" type="curve"/>
      <point x="151" y="296.56" type="line"/>
      <point x="151" y="290.72787304"/>
      <point x="155.72787304" y="286"/>
    </contour>
    <contour>
      <point x="18" y="0" type="line"/>
      <point x="138" y="0" type="line"/>
      <point x="138" y="20" type="line"/>
      <point x="18" y="20" type="line"/>
    </contour>
    <contour>
      <point x="18" y="680" type="line"/>
      <point x="138" y="680" type="line"/>
      <point x="138" y="700" type="line"/>
      <point x="18" y="700" type="line"/>
    </contour>
    <contour>
      <point x="362" y="0" type="line"/>
      <point x="482" y="0" type="line"/>
      <point x="482" y="20" type="line"/>
      <point x="362" y="20" type="line"/>
    </contour>
    <contour>
      <point x="362" y="680" type="line"/>
      <point x="482" y="680" type="line"/>
      <point x="482" y="700" type="line"/>
      <point x="362" y="700" type="line"/>
    </contour>
  </outline>
</glyph>
<glyph name="B" format="2">
  <advance width="540"/>
  <unicode hex="0042"/>
  <outline>
    <contour>
      <point x="40" y="0" type="line"/>
      <point x="88" y="0" type="line"/>
      <point x="88" y="700" type="line"/>
      <point x="40" y="700" type="line"/>
    </contour>
    <contour>
      <point x="435" y="525" type="curve"/>
      <point x="435" y="613.36556"/>
      <point x="349.9341025" y="685"/>
      <point x="245" y="685" type="curve"/>
      <point x="140.0658975" y="685"/>
      <point x="55" y="613.36556"/>
      <point x="55" y="525" type="curve"/>
      <point x="55" y="436.63444"/>
      <point x="140.0658975" y="365"/>
      <point x="245" y="365" type="curve"/>
      <point x="349.9341025" y="365"/>
      <point x="435" y="436.63444"/>
    </contour>
    <contour>
      <point x="387" y="525" type="curve"/>
      <point x="387" y="463.144108"/>
      <point x="323.4244345" y="413"/>
      <point x="245" y="413" type="curve"/>
      <point x="166.57556549999998" y="413"/>
      <point x="103" y="463.144108"/>
      <point x="103" y="525" type="curve"/>
      <point x="103" y="586.855892"/>
      <point x="166.57556549999998" y="637"/>
      <point x="245" y="637" type="curve"/>
      <point x="323.4244345" y="637"/>
      <point x="387" y="586.855892"/>
    </contour>
    <contour>
      <point x="435" y="175" type="curve"/>
      <point x="435" y="263.36556"/>
      <point x="349.9341025" y="335"/>
      <point x="245" y="335" type="curve"/>
      <point x="140.0658975" y="335"/>
      <point x="55" y="263.36556"/>
      <point x="55" y="175" type="curve"/>
      <point x="55" y="86.63444"/>
      <point x="140.0658975" y="15"/>
      <point x="245" y="15" type="curve"/>
      <point x="349.9341025" y="15"/>
      <point x="435" y="86.63444"/>
    </contour>
    <contour>
      <point x="387" y="175" type="curve"/>
      <point x="387" y="113.144108"/>
      <point x="323.4244345" y="63"/>
      <point x="245" y="63" type="curve"/>
      <point x="166.57556549999998" y="63"/>
      <point x="103" y="113.144108"/>
      <point x="103" y="175" type="curve"/>
      <point x="103" y="236.85589199999998"/>
      <point x="166.57556549999998" y="287"/>
      <point x="245" y="287" type="curve"/>
      <point x="323.4244345" y="287"/>
      <point x="387" y="236.85589199999998"/>
    </contour>
    <contour>
      <point x="18" y="0" type="line"/>
      <point x="138" y="0" type="line"/>
      <point x="138" y="20" type="line"/>
      <point x="18" y="20" type="line"/>
    </contour>
    <contour>
      <point x="18" y="680" type="line"/>
      <point x="138" y="680" type="line"/>
      <point x="138" y="700" type="line"/>
      <point x="18" y="700" type="line"/>
    </contour>
    <contour>
      <point x="362" y="0" type="line"/>
      <point x="482" y="0" type="line"/>
      <point x="482" y="20" type="line"/>
      <point x="362" y="20" type="line"/>
    </contour>
    <contour>
      <point x="362" y="680" type="line"/>
      <point x="482" y="680" type="line"/>
      <point x="482" y="700" type="line"/>
      <point x="362" y="700" type="line"/>
    </contour>
  </outline>
</glyph>
<glyph name="C" format="2">
  <advance width="540"/>
  <unicode hex="0043"/>
  <outline>
    <contour>
      <point x="411.0" y="588.0" type="line"/>
      <point x="353.76" y="700"/>
      <point x="162.96" y="700"/>
      <point x="40" y="500.5" type="curve"/>
      <point x="40" y="199.5"/>
      <point x="162.96" y="0"/>
      <point x="353.76" y="0" type="curve"/>
      <point x="406.76" y="87.5"/>
      <point x="411.0" y="147.0"/>
      <point x="411.0" y="175.0" type="curve"/>
      <point x="375.0" y="213.5" type="line"/>
      <point x="332.56" y="48"/>
      <point x="88" y="238.0"/>
      <point x="88" y="350" type="curve"/>
      <point x="88" y="462.0"/>
      <point x="332.56" y="652"/>
      <point x="375.0" y="486.5" type="curve"/>
    </contour>
    <contour>
      <point x="18" y="0" type="line"/>
      <point x="138" y="0" type="line"/>
      <point x="138" y="20" type="line"/>
      <point x="18" y="20" type="line"/>
    </contour>
    <contour>
      <point x="18" y="680" type="line"/>
      <point x="138" y="680" type="line"/>
      <point x="138" y="700" type="line"/>
      <point x="18" y="700" type="line"/>
    </contour>
    <contour>
      <point x="362" y="0" type="line"/>
      <point x="482" y="0" type="line"/>
      <point x="482" y="20" type="line"/>
      <point x="362" y="20" type="line"/>
    </contour>
    <contour>
      <point x="362" y="680" type="line"/>
      <point x="482" y="680" type="line"/>
      <point x="482" y="700" type="line"/>
      <point x="362" y="700" type="line"/>
    </contour>
  </outline>
</glyph>
<glyph name="D" format="2">
  <advance width="540"/>
  <unicode hex="0044"/>
  <outline>
    <contour>
      <point x="460" y="350" type="curve"/>
      <point x="460" y="543.2996625000001"/>
      <point x="365.9797975" y="700"/>
      <point x="250" y="700" type="curve"/>
      <point x="134.02020249999998" y="700"/>
      <point x="40" y="543.2996625000001"/>
      <point x="40" y="350" type="curve"/>
      <point x="40" y="156.7003375"/>
      <point x="134.02020249999998" y="0"/>
      <point x="250" y="0" type="curve"/>
      <point x="365.9797975" y="0"/>
      <point x="460" y="156.7003375"/>
    </contour>
    <contour>
      <point x="412" y="350" type="curve"/>
      <point x="412" y="183.2100055"/>
      <point x="339.4701295" y="48"/>
      <point x="250" y="48" type="curve"/>
      <point x="160.52987050000002" y="48"/>
      <point x="88" y="183.2100055"/>
      <point x="88" y="350" type="curve"/>
      <point x="88" y="516.7899945"/>
      <point x="160.52987050000002" y="652"/>
      <point x="250" y="652" type="curve"/>
      <point x="339.4701295" y="652"/>
      <point x="412" y="516.7899945"/>
    </contour>
    <contour>
      <point x="40" y="0" type="line"/>
      <point x="88" y="0" type="line"/>
      <point x="88" y="700" type="line"/>
      <point x="40" y="700" type="line"/>
    </contour>
    <contour>
      <point x="18" y="0" type="line"/>
      <point x="138" y="0" type="line"/>
      <point x="138" y="20" type="line"/>
      <point x="18" y="20" type="line"/>
    </contour>
    <contour>
      <point x="18" y="680" type="line"/>
      <point x="138" y="680" type="line"/>
      <point x="138" y="700" type="line"/>
      <point x="18" y="700" type="line"/>
    </contour>
    <contour>
      <point x="362" y="0" type="line"/>
      <point x="482" y="0" type="line"/>
      <point x="482" y="20" type="line"/>
      <point x="362" y="20" type="line"/>
    </contour>
    <contour>
      <point x="362" y="680" type="line"/>
      <point x="482" y="680" type="line"/>
      <point x="482" y="700" type="line"/>
      <point x="362" y="700" type="line"/>
    </contour>
  </outline>
</glyph>
<glyph name="E" format="2">
  <advance width="540"/>
  <unicode hex="0045"/>
  <outline>
    <contour>
      <point x="40" y="0" type="line"/>
      <point x="88" y="0" type="line"/>
      <point x="88" y="700" type="line"/>
      <point x="40" y="700" type="line"/>
    </contour>
    <contour>
      <point x="40" y="652" type="line"/>
      <point x="430" y="652" type="line"/>
      <point x="430" y="700" type="line"/>
      <point x="40" y="700" type="line"/>
    </contour>
    <contour>
      <point x="40" y="310" type="line"/>
      <point x="350" y="310" type="line"/>
      <point x="350" y="358" type="line"/>
      <point x="40" y="358" type="line"/>
    </contour>
    <contour>
      <point x="40" y="0" type="line"/>
      <point x="430" y="0" type="line"/>
      <point x="430" y="48" type="line"/>
      <point x="40" y="48" type="line"/>
    </contour>
    <contour>
      <point x="18" y="0" type="line"/>
      <point x="138" y="0" type="line"/>
      <point x="138" y="20" type="line"/>
      <point x="18" y="20" type="line"/>
    </contour>
    <contour>
      <point x="18" y="680" type="line"/>
      <point x="138" y="680" type="line"/>
      <point x="138" y="700" type="line"/>
      <point x="18" y="700" type="line"/>
    </contour>
    <contour>
      <point x="362" y="0" type="line"/>
      <point x="482" y="0" type="line"/>
      <point x="482" y="20" type="line"/>
      <point x="362" y="20" type="line"/>
    </contour>
    <contour>
      <point x="362" y="680" type="line"/>
      <point x="482" y="680" type="line"/>
      <point x="482" y="700" type="line"/>
      <point x="362" y="700" type="line"/>
    </contour>
  </outline>
</glyph>
<glyph name="G" format="2">
  <advance width="540"/>
  <unicode hex="0047"/>
  <outline>
    <contour>
      <point x="419.48" y="588.0" type="line"/>
      <point x="353.76" y="700"/>
      <point x="162.96" y="700"/>
      <point x="40" y="500.5" type="curve"/>
      <point x="40" y="199.5"/>
      <point x="162.96" y="0"/>
      <point x="353.76" y="0" type="curve"/>
      <point x="406.76" y="87.5"/>
      <point x="419.48" y="147.0"/>
      <point x="419.48" y="175.0" type="curve"/>
      <point x="381.56" y="213.5" type="line"/>
      <point x="332.56" y="48"/>
      <point x="88" y="238.0"/>
      <point x="88" y="350" type="curve"/>
      <point x="88" y="462.0"/>
      <point x="332.56" y="652"/>
      <point x="381.56" y="486.5" type="curve"/>
    </contour>
    <contour>
      <point x="263.44" y="294" type="curve"/>
      <point x="426.56" y="294" type="line"/>
      <point x="433.98270704" y="294"/>
      <point x="440" y="300.01729296"/>
      <point x="440" y="307.44" type="curve"/>
      <point x="440" y="328.56" type="line"/>
      <point x="440" y="335.98270704"/>
      <point x="433.98270704" y="342"/>
      <point x="426.56" y="342" type="curve"/>
      <point x="263.44" y="342" type="line"/>
      <point x="256.01729296" y="342"/>
      <point x="250" y="335.98270704"/>
      <point x="250" y="328.56" type="curve"/>
      <point x="250" y="307.44" type="line"/>
      <point x="250" y="300.01729296"/>
      <point x="256.01729296" y="294"/>
    </contour>
    <contour>
      <point x="389.44" y="132" type="curve"/>
      <point x="410.56" y="132" type="line"/>
      <point x="417.98270704" y="132"/>
      <point x="424" y="138.01729296"/>
      <point x="424" y="145.44" type="curve"/>
      <point x="424" y="286.56" type="line"/>
      <point x="424" y="293.98270704"/>
      <point x="417.98270704" y="300"/>
      <point x="410.56" y="300" type="curve"/>
      <point x="389.44" y="300" type="line"/>
      <point x="382.01729296" y="300"/>
      <point x="376" y="293.98270704"/>
      <point x="376" y="286.56" type="curve"/>
      <point x="376" y="145.44" type="line"/>
      <point x="376" y="138.01729296"/>
      <point x="382.01729296" y="132"/>
    </contour>
    <contour>
      <point x="18" y="0" type="line"/>
      <point x="138" y="0" type="line"/>
      <point x="138" y="20" type="line"/>
      <point x="18" y="20" type="line"/>
    </contour>
    <contour>
      <point x="18" y="680" type="line"/>
      <point x="138" y="680" type="line"/>
      <point x="138" y="700" type="line"/>
      <point x="18" y="700" type="line"/>
    </contour>
    <contour>
      <point x="362" y="0" type="line"/>
      <point x="482" y="0" type="line"/>
      <point x="482" y="20" type="line"/>
      <point x="362" y="20" type="line"/>
    </contour>
    <contour>
      <point x="362" y="680" type="line"/>
      <point x="482" y="680" type="line"/>
      <point x="482" y="700" type="line"/>
      <point x="362" y="700" type="line"/>
    </contour>
  </outline>
</glyph>
<glyph name="I" format="2">
  <advance width="290"/>
  <unicode hex="0049"/>
  <outline>
    <contour>
      <point x="218" y="0" type="line"/>
      <point x="266" y="0" type="line"/>
      <point x="266" y="700" type="line"/>
      <point x="218" y="700" type="line"/>
    </contour>
    <contour>
      <point x="18" y="0" type="line"/>
      <point x="138" y="0" type="line"/>
      <point x="138" y="20" type="line"/>
      <point x="18" y="20" type="line"/>
    </contour>
    <contour>
      <point x="18" y="680" type="line"/>
      <point x="138" y="680" type="line"/>
      <point x="138" y="700" type="line"/>
      <point x="18" y="700" type="line"/>
    </contour>
    <contour>
      <point x="362" y="0" type="line"/>
      <point x="482" y="0" type="line"/>
      <point x="482" y="20" type="line"/>
      <point x="362" y="20" type="line"/>
    </contour>
    <contour>
      <point x="362" y="680" type="line"/>
      <point x="482" y="680" type="line"/>
      <point x="482" y="700" type="line"/>
      <point x="362" y="700" type="line"/>
    </contour>
  </outline>
</glyph>
<glyph name="J" format="2">
  <advance width="540"/>
  <unicode hex="004A"/>
  <outline>
    <contour>
      <point x="358.44" y="150" type="curve"/>
      <point x="379.56" y="150" type="line"/>
      <point x="386.98270704" y="150"/>
      <point x="393" y="156.01729296"/>
      <point x="393" y="163.44" type="curve"/>
      <point x="393" y="686.56" type="line"/>
      <point x="393" y="693.9827070399999"/>
      <point x="386.98270704" y="700"/>
      <point x="379.56" y="700" type="curve"/>
      <point x="358.44" y="700" type="line"/>
      <point x="351.01729296" y="700"/>
      <point x="345" y="693.9827070399999"/>
      <point x="345" y="686.56" type="curve"/>
      <point x="345" y="163.44" type="line"/>
      <point x="345" y="156.01729296"/>
      <point x="351.01729296" y="150"/>
    </contour>
    <contour>
      <point x="409" y="150" type="line"/>
      <point x="409" y="42"/>
      <point x="328" y="-8"/>
      <point x="218" y="-8" type="curve"/>
      <point x="110" y="-8"/>
      <point x="48" y="47"/>
      <point x="48" y="160" type="curve"/>
      <point x="112" y="160" type="line"/>
      <point x="112" y="85"/>
      <point x="147" y="54"/>
      <point x="218" y="54" type="curve"/>
      <point x="286" y="54"/>
      <point x="345" y="83"/>
      <point x="345" y="150" type="curve"/>
    </contour>
    <contour>
      <point x="18" y="0" type="line"/>
      <point x="138" y="0" type="line"/>
      <point x="138" y="20" type="line"/>
      <point x="18" y="20" type="line"/>
    </contour>
    <contour>
      <point x="18" y="680" type="line"/>
      <point x="138" y="680" type="line"/>
      <point x="138" y="700" type="line"/>
      <point x="18" y="700" type="line"/>
    </contour>
    <contour>
      <point x="362" y="0" type="line"/>
      <point x="482" y="0" type="line"/>
      <point x="482" y="20" type="line"/>
      <point x="362" y="20" type="line"/>
    </contour>
    <contour>
      <point x="362" y="680" type="line"/>
      <point x="482" y="680" type="line"/>
      <point x="482" y="700" type="line"/>
      <point x="362" y="700" type="line"/>
    </contour>
  </outline>
</glyph>
<glyph name="K" format="2">
  <advance width="540"/>
  <unicode hex="004B"/>
  <outline>
    <contour>
      <point x="40" y="0" type="line"/>
      <point x="88" y="0" type="line"/>
      <point x="88" y="700" type="line"/>
      <point x="40" y="700" type="line"/>
    </contour>
    <contour>
      <point x="447.5620033183946" y="683.6422483377239" type="line"/>
      <point x="121.5620033183946" y="333.6422483377239" type="line"/>
      <point x="86.4379966816054" y="366.3577516622761" type="line"/>
      <point x="412.4379966816054" y="716.3577516622761" type="line"/>
    </contour>
    <contour>
      <point x="121.31329570474284" y="366.6207638765531" type="line"/>
      <point x="457.3132957047428" y="16.620763876553124" type="line"/>
      <point x="422.6867042952572" y="-16.620763876553124" type="line"/>
      <point x="86.68670429525716" y="333.3792361234469" type="line"/>
    </contour>
    <contour>
      <point x="18" y="0" type="line"/>
      <point x="138" y="0" type="line"/>
      <point x="138" y="20" type="line"/>
      <point x="18" y="20" type="line"/>
    </contour>
    <contour>
      <point x="18" y="680" type="line"/>
      <point x="138" y="680" type="line"/>
      <point x="138" y="700" type="line"/>
      <point x="18" y="700" type="line"/>
    </contour>
    <contour>
      <point x="362" y="0" type="line"/>
      <point x="482" y="0" type="line"/>
      <point x="482" y="20" type="line"/>
      <point x="362" y="20" type="line"/>
    </contour>
    <contour>
      <point x="362" y="680" type="line"/>
      <point x="482" y="680" type="line"/>
      <point x="482" y="700" type="line"/>
      <point x="362" y="700" type="line"/>
    </contour>
  </outline>
</glyph>
<glyph name="L" format="2">
  <advance width="540"/>
  <unicode hex="004C"/>
  <outline>
    <contour>
      <point x="40" y="0" type="line"/>
      <point x="88" y="0" type="line"/>
      <point x="88" y="700" type="line"/>
      <point x="40" y="700" type="line"/>
    </contour>
    <contour>
      <point x="40" y="0" type="line"/>
      <point x="440" y="0" type="line"/>
      <point x="440" y="48" type="line"/>
      <point x="40" y="48" type="line"/>
    </contour>
    <contour>
      <point x="18" y="0" type="line"/>
      <point x="138" y="0" type="line"/>
      <point x="138" y="20" type="line"/>
      <point x="18" y="20" type="line"/>
    </contour>
    <contour>
      <point x="18" y="680" type="line"/>
      <point x="138" y="680" type="line"/>
      <point x="138" y="700" type="line"/>
      <point x="18" y="700" type="line"/>
    </contour>
    <contour>
      <point x="362" y="0" type="line"/>
      <point x="482" y="0" type="line"/>
      <point x="482" y="20" type="line"/>
      <point x="362" y="20" type="line"/>
    </contour>
    <contour>
      <point x="362" y="680" type="line"/>
      <point x="482" y="680" type="line"/>
      <point x="482" y="700" type="line"/>
      <point x="362" y="700" type="line"/>
    </contour>
  </outline>
</glyph>
<glyph name="M" format="2">
  <advance width="600"/>
  <unicode hex="004D"/>
  <outline>
    <contour>
      <point x="40" y="0" type="line"/>
      <point x="88" y="0" type="line"/>
      <point x="88" y="700" type="line"/>
      <point x="40" y="700" type="line"/>
    </contour>
    <contour>
      <point x="430" y="0" type="line"/>
      <point x="478" y="0" type="line"/>
      <point x="478" y="700" type="line"/>
      <point x="430" y="700" type="line"/>
    </contour>
    <contour>
      <point x="126.15009959719245" y="709.2397558319717" type="line"/>
      <point x="272.1500995971924" y="359.2397558319717" type="line"/>
      <point x="227.84990040280755" y="340.7602441680283" type="line"/>
      <point x="81.84990040280755" y="690.7602441680283" type="line"/>
    </contour>
    <contour>
      <point x="418.1500995971924" y="690.7602441680283" type="line"/>
      <point x="272.1500995971924" y="340.7602441680283" type="line"/>
      <point x="227.84990040280755" y="359.2397558319717" type="line"/>
      <point x="373.8499004028076" y="709.2397558319717" type="line"/>
    </contour>
    <contour>
      <point x="18" y="0" type="line"/>
      <point x="138" y="0" type="line"/>
      <point x="138" y="20" type="line"/>
      <point x="18" y="20" type="line"/>
    </contour>
    <contour>
      <point x="18" y="680" type="line"/>
      <point x="138" y="680" type="line"/>
      <point x="138" y="700" type="line"/>
      <point x="18" y="700" type="line"/>
    </contour>
    <contour>
      <point x="362" y="0" type="line"/>
      <point x="482" y="0" type="line"/>
      <point x="482" y="20" type="line"/>
      <point x="362" y="20" type="line"/>
    </contour>
    <contour>
      <point x="362" y="680" type="line"/>
      <point x="482" y="680" type="line"/>
      <point x="482" y="700" type="line"/>
      <point x="362" y="700" type="line"/>
    </contour>
  </outline>
</glyph>
<glyph name="N" format="2">
  <advance width="540"/>
  <unicode hex="004E"/>
  <outline>
    <contour>
      <point x="40" y="0" type="line"/>
      <point x="88" y="0" type="line"/>
      <point x="88" y="700" type="line"/>
      <point x="40" y="700" type="line"/>
    </contour>
    <contour>
      <point x="396" y="0" type="line"/>
      <point x="444" y="0" type="line"/>
      <point x="444" y="700" type="line"/>
      <point x="396" y="700" type="line"/>
    </contour>
    <contour>
      <point x="126.15009959719245" y="709.2397558319717" type="line"/>
      <point x="418.1500995971924" y="9.239755831971706" type="line"/>
      <point x="373.8499004028076" y="-9.239755831971706" type="line"/>
      <point x="81.84990040280755" y="690.7602441680283" type="line"/>
    </contour>
    <contour>
      <point x="18" y="0" type="line"/>
      <point x="138" y="0" type="line"/>
      <point x="138" y="20" type="line"/>
      <point x="18" y="20" type="line"/>
    </contour>
    <contour>
      <point x="18" y="680" type="line"/>
      <point x="138" y="680" type="line"/>
      <point x="138" y="700" type="line"/>
      <point x="18" y="700" type="line"/>
    </contour>
    <contour>
      <point x="362" y="0" type="line"/>
      <point x="482" y="0" type="line"/>
      <point x="482" y="20" type="line"/>
      <point x="362" y="20" type="line"/>
    </contour>
    <contour>
      <point x="362" y="680" type="line"/>
      <point x="482" y="680" type="line"/>
      <point x="482" y="700" type="line"/>
      <point x="362" y="700" type="line"/>
    </contour>
  </outline>
</glyph>
<glyph name="Q" format="2">
  <advance width="540"/>
  <unicode hex="0051"/>
  <outline>
    <contour>
      <point x="460" y="350" type="curve"/>
      <point x="460" y="543.2996625000001"/>
      <point x="365.9797975" y="700"/>
      <point x="250" y="700" type="curve"/>
      <point x="134.02020249999998" y="700"/>
      <point x="40" y="543.2996625000001"/>
      <point x="40" y="350" type="curve"/>
      <point x="40" y="156.7003375"/>
      <point x="134.02020249999998" y="0"/>
      <point x="250" y="0" type="curve"/>
      <point x="365.9797975" y="0"/>
      <point x="460" y="156.7003375"/>
    </contour>
    <contour>
      <point x="412" y="350" type="curve"/>
      <point x="412" y="183.2100055"/>
      <point x="339.4701295" y="48"/>
      <point x="250" y="48" type="curve"/>
      <point x="160.52987050000002" y="48"/>
      <point x="88" y="183.2100055"/>
      <point x="88" y="350" type="curve"/>
      <point x="88" y="516.7899945"/>
      <point x="160.52987050000002" y="652"/>
      <point x="250" y="652" type="curve"/>
      <point x="339.4701295" y="652"/>
      <point x="412" y="516.7899945"/>
    </contour>
    <contour>
      <point x="312.4621457484473" y="151.46430884853606" type="line"/>
      <point x="477.4621457484473" y="-23.535691151463944" type="line"/>
      <point x="442.5378542515527" y="-56.46430884853606" type="line"/>
      <point x="277.5378542515527" y="118.53569115146394" type="line"/>
    </contour>
    <contour>
      <point x="18" y="0" type="line"/>
      <point x="138" y="0" type="line"/>
      <point x="138" y="20" type="line"/>
      <point x="18" y="20" type="line"/>
    </contour>
    <contour>
      <point x="18" y="680" type="line"/>
      <point x="138" y="680" type="line"/>
      <point x="138" y="700" type="line"/>
      <point x="18" y="700" type="line"/>
    </contour>
    <contour>
      <point x="362" y="0" type="line"/>
      <point x="482" y="0" type="line"/>
      <point x="482" y="20" type="line"/>
      <point x="362" y="20" type="line"/>
    </contour>
    <contour>
      <point x="362" y="680" type="line"/>
      <point x="482" y="680" type="line"/>
      <point x="482" y="700" type="line"/>
      <point x="362" y="700" type="line"/>
    </contour>
  </outline>
</glyph>
<glyph name="R" format="2">
  <advance width="540"/>
  <unicode hex="0052"/>
  <outline>
    <contour>
      <point x="40" y="0" type="line"/>
      <point x="88" y="0" type="line"/>
      <point x="88" y="700" type="line"/>
      <point x="40" y="700" type="line"/>
    </contour>
    <contour>
      <point x="435" y="525" type="curve"/>
      <point x="435" y="613.36556"/>
      <point x="349.9341025" y="685"/>
      <point x="245" y="685" type="curve"/>
      <point x="140.0658975" y="685"/>
      <point x="55" y="613.36556"/>
      <point x="55" y="525" type="curve"/>
      <point x="55" y="436.63444"/>
      <point x="140.0658975" y="365"/>
      <point x="245" y="365" type="curve"/>
      <point x="349.9341025" y="365"/>
      <point x="435" y="436.63444"/>
    </contour>
    <contour>
      <point x="387" y="525" type="curve"/>
      <point x="387" y="463.144108"/>
      <point x="323.4244345" y="413"/>
      <point x="245" y="413" type="curve"/>
      <point x="166.57556549999998" y="413"/>
      <point x="103" y="463.144108"/>
      <point x="103" y="525" type="curve"/>
      <point x="103" y="586.855892"/>
      <point x="166.57556549999998" y="637"/>
      <point x="245" y="637" type="curve"/>
      <point x="323.4244345" y="637"/>
      <point x="387" y="586.855892"/>
    </contour>
    <contour>
      <point x="271.22523406832727" y="371.20220686939496" type="line"/>
      <point x="461.22523406832727" y="11.20220686939495" type="line"/>
      <point x="418.77476593167273" y="-11.20220686939495" type="line"/>
      <point x="228.77476593167273" y="348.79779313060504" type="line"/>
    </contour>
    <contour>
      <point x="18" y="0" type="line"/>
      <point x="138" y="0" type="line"/>
      <point x="138" y="20" type="line"/>
      <point x="18" y="20" type="line"/>
    </contour>
    <contour>
      <point x="18" y="680" type="line"/>
      <point x="138" y="680" type="line"/>
      <point x="138" y="700" type="line"/>
      <point x="18" y="700" type="line"/>
    </contour>
    <contour>
      <point x="362" y="0" type="line"/>
      <point x="482" y="0" type="line"/>
      <point x="482" y="20" type="line"/>
      <point x="362" y="20" type="line"/>
    </contour>
    <contour>
      <point x="362" y="680" type="line"/>
      <point x="482" y="680" type="line"/>
      <point x="482" y="700" type="line"/>
      <point x="362" y="700" type="line"/>
    </contour>
  </outline>
</glyph>
<glyph name="S" format="2">
  <advance width="540"/>
  <unicode hex="0053"/>
  <outline>
    <contour>
      <point x="418.2" y="695.2" type="line"/>
      <point x="287.0" y="703.84"/>
      <point x="72.2" y="696.16"/>
      <point x="69.8" y="434.0" type="curve"/>
      <point x="67.4" y="357.0"/>
      <point x="227.8" y="353.84"/>
      <point x="246.3" y="350" type="curve"/>
      <point x="287.0" y="266.0"/>
      <point x="433.08" y="329.0"/>
      <point x="431.16" y="203.0" type="curve"/>
      <point x="429.24" y="2.4000000000000004"/>
      <point x="205.6" y="-2.88"/>
      <point x="67.4" y="6.720000000000001" type="curve"/>
      <point x="72.68" y="47.04" type="line"/>
      <point x="213.0" y="29.759999999999998"/>
      <point x="403.8" y="40.8"/>
      <point x="407.16" y="189.0" type="curve"/>
      <point x="409.08" y="315.0"/>
      <point x="268.5" y="308.0"/>
      <point x="235.2" y="351.44" type="curve"/>
      <point x="187.1" y="357.2"/>
      <point x="87.08" y="355.76"/>
      <point x="89.96000000000001" y="448.0" type="curve"/>
      <point x="92.84" y="670.24"/>
      <point x="279.6" y="678.4"/>
      <point x="419.64" y="652.96" type="curve"/>
    </contour>
    <contour>
      <point x="18" y="0" type="line"/>
      <point x="138" y="0" type="line"/>
      <point x="138" y="20" type="line"/>
      <point x="18" y="20" type="line"/>
    </contour>
    <contour>
      <point x="18" y="680" type="line"/>
      <point x="138" y="680" type="line"/>
      <point x="138" y="700" type="line"/>
      <point x="18" y="700" type="line"/>
    </contour>
    <contour>
      <point x="362" y="0" type="line"/>
      <point x="482" y="0" type="line"/>
      <point x="482" y="20" type="line"/>
      <point x="362" y="20" type="line"/>
    </contour>
    <contour>
      <point x="362" y="680" type="line"/>
      <point x="482" y="680" type="line"/>
      <point x="482" y="700" type="line"/>
      <point x="362" y="700" type="line"/>
    </contour>
  </outline>
</glyph>
<glyph name="T" format="2">
  <advance width="540"/>
  <unicode hex="0054"/>
  <outline>
    <contour>
      <point x="40" y="652" type="line"/>
      <point x="460" y="652" type="line"/>
      <point x="460" y="700" type="line"/>
      <point x="40" y="700" type="line"/>
    </contour>
    <contour>
      <point x="218" y="0" type="line"/>
      <point x="266" y="0" type="line"/>
      <point x="266" y="700" type="line"/>
      <point x="218" y="700" type="line"/>
    </contour>
    <contour>
      <point x="18" y="0" type="line"/>
      <point x="138" y="0" type="line"/>
      <point x="138" y="20" type="line"/>
      <point x="18" y="20" type="line"/>
    </contour>
    <contour>
      <point x="18" y="680" type="line"/>
      <point x="138" y="680" type="line"/>
      <point x="138" y="700" type="line"/>
      <point x="18" y="700" type="line"/>
    </contour>
    <contour>
      <point x="362" y="0" type="line"/>
      <point x="482" y="0" type="line"/>
      <point x="482" y="20" type="line"/>
      <point x="362" y="20" type="line"/>
    </contour>
    <contour>
      <point x="362" y="680" type="line"/>
      <point x="482" y="680" type="line"/>
      <point x="482" y="700" type="line"/>
      <point x="362" y="700" type="line"/>
    </contour>
  </outline>
</glyph>
<glyph name="U" format="2">
  <advance width="540"/>
  <unicode hex="0055"/>
  <outline>
    <contour>
      <point x="53.44" y="210" type="curve"/>
      <point x="74.56" y="210" type="line"/>
      <point x="81.98270704000001" y="210"/>
      <point x="88" y="216.01729296"/>
      <point x="88" y="223.44" type="curve"/>
      <point x="88" y="686.56" type="line"/>
      <point x="88" y="693.9827070399999"/>
      <point x="81.98270704000001" y="700"/>
      <point x="74.56" y="700" type="curve"/>
      <point x="53.44" y="700" type="line"/>
      <point x="46.01729296" y="700"/>
      <point x="40" y="693.9827070399999"/>
      <point x="40" y="686.56" type="curve"/>
      <point x="40" y="223.44" type="line"/>
      <point x="40" y="216.01729296"/>
      <point x="46.01729296" y="210"/>
    </contour>
    <contour>
      <point x="409.44" y="210" type="curve"/>
      <point x="430.56" y="210" type="line"/>
      <point x="437.98270704" y="210"/>
      <point x="444" y="216.01729296"/>
      <point x="444" y="223.44" type="curve"/>
      <point x="444" y="686.56" type="line"/>
      <point x="444" y="693.9827070399999"/>
      <point x="437.98270704" y="700"/>
      <point x="430.56" y="700" type="curve"/>
      <point x="409.44" y="700" type="line"/>
      <point x="402.01729296" y="700"/>
      <point x="396" y="693.9827070399999"/>
      <point x="396" y="686.56" type="curve"/>
      <point x="396" y="223.44" type="line"/>
      <point x="396" y="216.01729296"/>
      <point x="402.01729296" y="210"/>
    </contour>
    <contour>
      <point x="40" y="210" type="line"/>
      <point x="40" y="68"/>
      <point x="127" y="-8"/>
      <point x="250" y="-8" type="curve"/>
      <point x="373" y="-8"/>
      <point x="460" y="68"/>
      <point x="460" y="210" type="curve"/>
      <point x="396" y="210" type="line"/>
      <point x="396" y="104"/>
      <point x="345" y="54"/>
      <point x="250" y="54" type="curve"/>
      <point x="155" y="54"/>
      <point x="104" y="104"/>
      <point x="104" y="210" type="curve"/>
    </contour>
    <contour>
      <point x="18" y="0" type="line"/>
      <point x="138" y="0" type="line"/>
      <point x="138" y="20" type="line"/>
      <point x="18" y="20" type="line"/>
    </contour>
    <contour>
      <point x="18" y="680" type="line"/>
      <point x="138" y="680" type="line"/>
      <point x="138" y="700" type="line"/>
      <point x="18" y="700" type="line"/>
    </contour>
    <contour>
      <point x="362" y="0" type="line"/>
      <point x="482" y="0" type="line"/>
      <point x="482" y="20" type="line"/>
      <point x="362" y="20" type="line"/>
    </contour>
    <contour>
      <point x="362" y="680" type="line"/>
      <point x="482" y="680" type="line"/>
      <point x="482" y="700" type="line"/>
      <point x="362" y="700" type="line"/>
    </contour>
  </outline>
</glyph>
<glyph name="V" format="2">
  <advance width="540"/>
  <unicode hex="0056"/>
  <outline>
    <contour>
      <point x="98.28342000348796" y="705.820855000872" type="line"/>
      <point x="273.28342000348795" y="5.82085500087199" type="line"/>
      <point x="226.71657999651205" y="-5.82085500087199" type="line"/>
      <point x="51.71657999651204" y="694.179144999128" type="line"/>
    </contour>
    <contour>
      <point x="448.28342000348795" y="694.179144999128" type="line"/>
      <point x="273.28342000348795" y="-5.82085500087199" type="line"/>
      <point x="226.71657999651205" y="5.82085500087199" type="line"/>
      <point x="401.71657999651205" y="705.820855000872" type="line"/>
    </contour>
    <contour>
      <point x="18" y="0" type="line"/>
      <point x="138" y="0" type="line"/>
      <point x="138" y="20" type="line"/>
      <point x="18" y="20" type="line"/>
    </contour>
    <contour>
      <point x="18" y="680" type="line"/>
      <point x="138" y="680" type="line"/>
      <point x="138" y="700" type="line"/>
      <point x="18" y="700" type="line"/>
    </contour>
    <contour>
      <point x="362" y="0" type="line"/>
      <point x="482" y="0" type="line"/>
      <point x="482" y="20" type="line"/>
      <point x="362" y="20" type="line"/>
    </contour>
    <contour>
      <point x="362" y="680" type="line"/>
      <point x="482" y="680" type="line"/>
      <point x="482" y="700" type="line"/>
      <point x="362" y="700" type="line"/>
    </contour>
  </outline>
</glyph>
<glyph name="W" format="2">
  <advance width="600"/>
  <unicode hex="0057"/>
  <outline>
    <contour>
      <point x="68.78198659971295" y="703.2275553242467" type="line"/>
      <point x="163.78198659971295" y="3.227555324246757" type="line"/>
      <point x="116.21801340028705" y="-3.227555324246757" type="line"/>
      <point x="21.21801340028705" y="696.7724446757533" type="line"/>
    </contour>
    <contour>
      <point x="478.7819865997129" y="696.7724446757533" type="line"/>
      <point x="383.7819865997129" y="-3.227555324246757" type="line"/>
      <point x="336.2180134002871" y="3.227555324246757" type="line"/>
      <point x="431.2180134002871" y="703.2275553242467" type="line"/>
    </contour>
    <contour>
      <point x="116.90120777632632" y="6.515043960523348" type="line"/>
      <point x="226.90120777632632" y="396.51504396052337" type="line"/>
      <point x="273.0987922236737" y="383.48495603947663" type="line"/>
      <point x="163.09879222367368" y="-6.515043960523348" type="line"/>
    </contour>
    <contour>
      <point x="336.9012077763263" y="-6.515043960523348" type="line"/>
      <point x="226.90120777632632" y="383.48495603947663" type="line"/>
      <point x="273.0987922236737" y="396.51504396052337" type="line"/>
      <point x="383.0987922236737" y="6.515043960523348" type="line"/>
    </contour>
    <contour>
      <point x="18" y="0" type="line"/>
      <point x="138" y="0" type="line"/>
      <point x="138" y="20" type="line"/>
      <point x="18" y="20" type="line"/>
    </contour>
    <contour>
      <point x="18" y="680" type="line"/>
      <point x="138" y="680" type="line"/>
      <point x="138" y="700" type="line"/>
      <point x="18" y="700" type="line"/>
    </contour>
    <contour>
      <point x="362" y="0" type="line"/>
      <point x="482" y="0" type="line"/>
      <point x="482" y="20" type="line"/>
      <point x="362" y="20" type="line"/>
    </contour>
    <contour>
      <point x="362" y="680" type="line"/>
      <point x="482" y="680" type="line"/>
      <point x="482" y="700" type="line"/>
      <point x="362" y="700" type="line"/>
    </contour>
  </outline>
</glyph>
<glyph name="X" format="2">
  <advance width="540"/>
  <unicode hex="0058"/>
  <outline>
    <contour>
      <point x="91.34290725563554" y="710.9763523028982" type="line"/>
      <point x="451.3429072556355" y="10.976352302898272" type="line"/>
      <point x="408.6570927443645" y="-10.976352302898272" type="line"/>
      <point x="48.65709274436447" y="689.0236476971018" type="line"/>
    </contour>
    <contour>
      <point x="451.3429072556355" y="689.0236476971018" type="line"/>
      <point x="91.34290725563554" y="-10.976352302898272" type="line"/>
      <point x="48.65709274436447" y="10.976352302898272" type="line"/>
      <point x="408.6570927443645" y="710.9763523028982" type="line"/>
    </contour>
    <contour>
      <point x="18" y="0" type="line"/>
      <point x="138" y="0" type="line"/>
      <point x="138" y="20" type="line"/>
      <point x="18" y="20" type="line"/>
    </contour>
    <contour>
      <point x="18" y="680" type="line"/>
      <point x="138" y="680" type="line"/>
      <point x="138" y="700" type="line"/>
      <point x="18" y="700" type="line"/>
    </contour>
    <contour>
      <point x="362" y="0" type="line"/>
      <point x="482" y="0" type="line"/>
      <point x="482" y="20" type="line"/>
      <point x="362" y="20" type="line"/>
    </contour>
    <contour>
      <point x="362" y="680" type="line"/>
      <point x="482" y="680" type="line"/>
      <point x="482" y="700" type="line"/>
      <point x="362" y="700" type="line"/>
    </contour>
  </outline>
</glyph>
<glyph name="Y" format="2">
  <advance width="540"/>
  <unicode hex="0059"/>
  <outline>
    <contour>
      <point x="91.34290725563554" y="710.9763523028982" type="line"/>
      <point x="271.3429072556355" y="360.97635230289825" type="line"/>
      <point x="228.65709274436446" y="339.02364769710175" type="line"/>
      <point x="48.65709274436447" y="689.0236476971018" type="line"/>
    </contour>
    <contour>
      <point x="451.3429072556355" y="689.0236476971018" type="line"/>
      <point x="271.3429072556355" y="339.02364769710175" type="line"/>
      <point x="228.65709274436446" y="360.97635230289825" type="line"/>
      <point x="408.6570927443645" y="710.9763523028982" type="line"/>
    </contour>
    <contour>
      <point x="218" y="0" type="line"/>
      <point x="266" y="0" type="line"/>
      <point x="266" y="350" type="line"/>
      <point x="218" y="350" type="line"/>
    </contour>
    <contour>
      <point x="18" y="0" type="line"/>
      <point x="138" y="0" type="line"/>
      <point x="138" y="20" type="line"/>
      <point x="18" y="20" type="line"/>
    </contour>
    <contour>
      <point x="18" y="680" type="line"/>
      <point x="138" y="680" type="line"/>
      <point x="138" y="700" type="line"/>
      <point x="18" y="700" type="line"/>
    </contour>
    <contour>
      <point x="362" y="0" type="line"/>
      <point x="482" y="0" type="line"/>
      <point x="482" y="20" type="line"/>
      <point x="362" y="20" type="line"/>
    </contour>
    <contour>
      <point x="362" y="680" type="line"/>
      <point x="482" y="680" type="line"/>
      <point x="482" y="700" type="line"/>
      <point x="362" y="700" type="line"/>
    </contour>
  </outline>
</glyph>
<glyph name="Z" format="2">
  <advance width="540"/>
  <unicode hex="005A"/>
  <outline>
    <contour>
      <point x="50" y="652" type="line"/>
      <point x="450" y="652" type="line"/>
      <point x="450" y="700" type="line"/>
      <point x="50" y="700" type="line"/>
    </contour>
    <contour>
      <point x="451.0101033454287" y="664.3993294411744" type="line"/>
      <point x="91.01010334542872" y="12.399329441174324" type="line"/>
      <point x="48.989896654571275" y="35.600670558825676" type="line"/>
      <point x="408.9898966545713" y="687.6006705588256" type="line"/>
    </contour>
    <contour>
      <point x="50" y="0" type="line"/>
      <point x="450" y="0" type="line"/>
      <point x="450" y="48" type="line"/>
      <point x="50" y="48" type="line"/>
    </contour>
    <contour>
      <point x="18" y="0" type="line"/>
      <point x="138" y="0" type="line"/>
      <point x="138" y="20" type="line"/>
      <point x="18" y="20" type="line"/>
    </contour>
    <contour>
      <point x="18" y="680" type="line"/>
      <point x="138" y="680" type="line"/>
      <point x="138" y="700" type="line"/>
      <point x="18" y="700" type="line"/>
    </contour>
    <contour>
      <point x="362" y="0" type="line"/>
      <point x="482" y="0" type="line"/>
      <point x="482" y="20" type="line"/>
      <point x="362" y="20" type="line"/>
    </contour>
    <contour>
      <point x="362" y="680" type="line"/>
      <point x="482" y="680" type="line"/>
      <point x="482" y="700" type="line"/>
      <point x="362" y="700" type="line"/>
    </contour>
  </outline>
</glyph>
<glyph name="uni005B" format="2">
  <advance width="310"/>
  <unicode hex="005B"/>
  <outline>
    <contour>
      <point x="150" y="80" type="line"/>
      <point x="198" y="80" type="line"/>
      <point x="198" y="620" type="line"/>
      <point x="150" y="620" type="line"/>
    </contour>
    <contour>
      <point x="150" y="620" type="line"/>
      <point x="250" y="620" type="line"/>
      <point x="250" y="668" type="line"/>
      <point x="150" y="668" type="line"/>
    </contour>
    <contour>
      <point x="150" y="80" type="line"/>
      <point x="250" y="80" type="line"/>
      <point x="250" y="128" type="line"/>
      <point x="150" y="128" type="line"/>
    </contour>
  </outline>
</glyph>
<glyph name="uni005C" format="2">
  <advance width="500"/>
  <unicode hex="005C"/>
  <outline>
    <contour>
      <point x="357.5017934717656" y="-8.356476710487051" type="line"/>
      <point x="97.50179347176564" y="691.6435232895129" type="line"/>
      <point x="142.49820652823436" y="708.3564767104871" type="line"/>
      <point x="402.4982065282344" y="8.356476710487051" type="line"/>
    </contour>
  </outline>
</glyph>
<glyph name="uni005D" format="2">
  <advance width="310"/>
  <unicode hex="005D"/>
  <outline>
    <contour>
      <point x="302" y="80" type="line"/>
      <point x="350" y="80" type="line"/>
      <point x="350" y="620" type="line"/>
      <point x="302" y="620" type="line"/>
    </contour>
    <contour>
      <point x="254" y="620" type="line"/>
      <point x="354" y="620" type="line"/>
      <point x="354" y="668" type="line"/>
      <point x="254" y="668" type="line"/>
    </contour>
    <contour>
      <point x="254" y="80" type="line"/>
      <point x="354" y="80" type="line"/>
      <point x="354" y="128" type="line"/>
      <point x="254" y="128" type="line"/>
    </contour>
  </outline>
</glyph>
<glyph name="uni0060" format="2">
  <advance width="250"/>
  <unicode hex="0060"/>
  <outline>
    <contour>
      <point x="260.9657385834431" y="550.1263384073586" type="line"/>
      <point x="220.96573858344308" y="460.1263384073586" type="line"/>
      <point x="199.03426141655692" y="469.8736615926414" type="line"/>
      <point x="239.03426141655692" y="559.8736615926414" type="line"/>
    </contour>
  </outline>
</glyph>
<glyph name="a" format="2">
  <advance width="540"/>
  <unicode hex="0061"/>
  <outline>
    <contour>
      <point x="378" y="244" type="curve"/>
      <point x="378" y="378.757479"/>
      <point x="310.8427125" y="488"/>
      <point x="228" y="488" type="curve"/>
      <point x="145.1572875" y="488"/>
      <point x="78" y="378.757479"/>
      <point x="78" y="244" type="curve"/>
      <point x="78" y="109.24252100000001"/>
      <point x="145.1572875" y="0"/>
      <point x="228" y="0" type="curve"/>
      <point x="310.8427125" y="0"/>
      <point x="378" y="109.24252100000001"/>
    </contour>
    <contour>
      <point x="330" y="244" type="curve"/>
      <point x="330" y="135.752189"/>
      <point x="284.3330445" y="48"/>
      <point x="228" y="48" type="curve"/>
      <point x="171.6669555" y="48"/>
      <point x="126" y="135.752189"/>
      <point x="126" y="244" type="curve"/>
      <point x="126" y="352.247811"/>
      <point x="171.6669555" y="440"/>
      <point x="228" y="440" type="curve"/>
      <point x="284.3330445" y="440"/>
      <point x="330" y="352.247811"/>
    </contour>
    <contour>
      <point x="357.44" y="0" type="curve"/>
      <point x="378.56" y="0" type="line"/>
      <point x="385.98270704" y="0"/>
      <point x="392" y="6.017292960000001"/>
      <point x="392" y="13.440000000000001" type="curve"/>
      <point x="392" y="541.56" type="line"/>
      <point x="392" y="548.9827070399999"/>
      <point x="385.98270704" y="555"/>
      <point x="378.56" y="555" type="curve"/>
      <point x="357.44" y="555" type="line"/>
      <point x="350.01729296" y="555"/>
      <point x="344" y="548.9827070399999"/>
      <point x="344" y="541.56" type="curve"/>
      <point x="344" y="13.440000000000001" type="line"/>
      <point x="344" y="6.017292960000001"/>
      <point x="350.01729296" y="0"/>
    </contour>
  </outline>
</glyph>
<glyph name="b" format="2">
  <advance width="540"/>
  <unicode hex="0062"/>
  <outline>
    <contour>
      <point x="73.44" y="0" type="curve"/>
      <point x="94.56" y="0" type="line"/>
      <point x="101.98270704000001" y="0"/>
      <point x="108" y="6.017292960000001"/>
      <point x="108" y="13.440000000000001" type="curve"/>
      <point x="108" y="746.56" type="line"/>
      <point x="108" y="753.9827070399999"/>
      <point x="101.98270704000001" y="760"/>
      <point x="94.56" y="760" type="curve"/>
      <point x="73.44" y="760" type="line"/>
      <point x="66.01729295999999" y="760"/>
      <point x="60" y="753.9827070399999"/>
      <point x="60" y="746.56" type="curve"/>
      <point x="60" y="13.440000000000001" type="line"/>
      <point x="60" y="6.017292960000001"/>
      <point x="66.01729295999999" y="0"/>
    </contour>
    <contour>
      <point x="430" y="278" type="curve"/>
      <point x="430" y="431.53516049999996"/>
      <point x="349.411255" y="556"/>
      <point x="250" y="556" type="curve"/>
      <point x="150.58874500000002" y="556"/>
      <point x="70" y="431.53516049999996"/>
      <point x="70" y="278" type="curve"/>
      <point x="70" y="124.46483950000001"/>
      <point x="150.58874500000002" y="0"/>
      <point x="250" y="0" type="curve"/>
      <point x="349.411255" y="0"/>
      <point x="430" y="124.46483950000001"/>
    </contour>
    <contour>
      <point x="382" y="278" type="curve"/>
      <point x="382" y="150.97450750000002"/>
      <point x="322.901587" y="48"/>
      <point x="250" y="48" type="curve"/>
      <point x="177.098413" y="48"/>
      <point x="118" y="150.97450750000002"/>
      <point x="118" y="278" type="curve"/>
      <point x="118" y="405.0254925"/>
      <point x="177.098413" y="508"/>
      <point x="250" y="508" type="curve"/>
      <point x="322.901587" y="508"/>
      <point x="382" y="405.0254925"/>
    </contour>
    <contour>
      <point x="38" y="0" type="line"/>
      <point x="138" y="0" type="line"/>
      <point x="138" y="20" type="line"/>
      <point x="38" y="20" type="line"/>
    </contour>
    <contour>
      <point x="38" y="740" type="line"/>
      <point x="138" y="740" type="line"/>
      <point x="138" y="760" type="line"/>
      <point x="38" y="760" type="line"/>
    </contour>
    <contour>
      <point x="362" y="0" type="line"/>
      <point x="462" y="0" type="line"/>
      <point x="462" y="20" type="line"/>
      <point x="362" y="20" type="line"/>
    </contour>
  </outline>
</glyph>
<glyph name="d" format="2">
  <advance width="540"/>
  <unicode hex="0064"/>
  <outline>
    <contour>
      <point x="341.44" y="0" type="curve"/>
      <point x="362.56" y="0" type="line"/>
      <point x="369.98270704" y="0"/>
      <point x="376" y="6.017292960000001"/>
      <point x="376" y="13.440000000000001" type="curve"/>
      <point x="376" y="746.56" type="line"/>
      <point x="376" y="753.9827070399999"/>
      <point x="369.98270704" y="760"/>
      <point x="362.56" y="760" type="curve"/>
      <point x="341.44" y="760" type="line"/>
      <point x="334.01729296" y="760"/>
      <point x="328" y="753.9827070399999"/>
      <point x="328" y="746.56" type="curve"/>
      <point x="328" y="13.440000000000001" type="line"/>
      <point x="328" y="6.017292960000001"/>
      <point x="334.01729296" y="0"/>
    </contour>
    <contour>
      <point x="430" y="278" type="curve"/>
      <point x="430" y="431.53516049999996"/>
      <point x="349.411255" y="556"/>
      <point x="250" y="556" type="curve"/>
      <point x="150.58874500000002" y="556"/>
      <point x="70" y="431.53516049999996"/>
      <point x="70" y="278" type="curve"/>
      <point x="70" y="124.46483950000001"/>
      <point x="150.58874500000002" y="0"/>
      <point x="250" y="0" type="curve"/>
      <point x="349.411255" y="0"/>
      <point x="430" y="124.46483950000001"/>
    </contour>
    <contour>
      <point x="382" y="278" type="curve"/>
      <point x="382" y="150.97450750000002"/>
      <point x="322.901587" y="48"/>
      <point x="250" y="48" type="curve"/>
      <point x="177.098413" y="48"/>
      <point x="118" y="150.97450750000002"/>
      <point x="118" y="278" type="curve"/>
      <point x="118" y="405.0254925"/>
      <point x="177.098413" y="508"/>
      <point x="250" y="508" type="curve"/>
      <point x="322.901587" y="508"/>
      <point x="382" y="405.0254925"/>
    </contour>
    <contour>
      <point x="38" y="0" type="line"/>
      <point x="138" y="0" type="line"/>
      <point x="138" y="20" type="line"/>
      <point x="38" y="20" type="line"/>
    </contour>
    <contour>
      <point x="38" y="740" type="line"/>
      <point x="138" y="740" type="line"/>
      <point x="138" y="760" type="line"/>
      <point x="38" y="760" type="line"/>
    </contour>
    <contour>
      <point x="362" y="0" type="line"/>
      <point x="462" y="0" type="line"/>
      <point x="462" y="20" type="line"/>
      <point x="362" y="20" type="line"/>
    </contour>
  </outline>
</glyph>
<glyph name="e" format="2">
  <advance width="540"/>
  <unicode hex="0065"/>
  <outline>
    <contour>
      <point x="388.6" y="467.04" type="line"/>
      <point x="336.4" y="556"/>
      <point x="174.4" y="556"/>
      <point x="70" y="397.53999999999996" type="curve"/>
      <point x="70" y="158.46"/>
      <point x="174.4" y="0"/>
      <point x="336.4" y="0" type="curve"/>
      <point x="381.4" y="69.5"/>
      <point x="388.6" y="116.76000000000002"/>
      <point x="388.6" y="139.0" type="curve"/>
      <point x="351.64" y="169.57999999999998" type="line"/>
      <point x="318.4" y="48"/>
      <point x="118" y="189.04"/>
      <point x="118" y="278" type="curve"/>
      <point x="118" y="366.96000000000004"/>
      <point x="318.4" y="508"/>
      <point x="351.64" y="386.42" type="curve"/>
    </contour>
    <contour>
      <point x="103.52" y="246" type="curve"/>
      <point x="390.48" y="246" type="line"/>
      <point x="396.84232032" y="246"/>
      <point x="402" y="251.15767967999997"/>
      <point x="402" y="257.52" type="curve"/>
      <point x="402" y="282.48" type="line"/>
      <point x="402" y="288.84232032"/>
      <point x="396.84232032" y="294"/>
      <point x="390.48" y="294" type="curve"/>
      <point x="103.52" y="294" type="line"/>
      <point x="97.15767968" y="294"/>
      <point x="92" y="288.84232032"/>
      <point x="92" y="282.48" type="curve"/>
      <point x="92" y="257.52" type="line"/>
      <point x="92" y="251.15767967999997"/>
      <point x="97.15767968" y="246"/>
    </contour>
  </outline>
</glyph>
<glyph name="f" format="2">
  <advance width="540"/>
  <unicode hex="0066"/>
  <outline>
    <contour>
      <point x="228.44" y="0" type="curve"/>
      <point x="249.56" y="0" type="line"/>
      <point x="256.98270704" y="0"/>
      <point x="263" y="6.017292960000001"/>
      <point x="263" y="13.440000000000001" type="curve"/>
      <point x="263" y="746.56" type="line"/>
      <point x="263" y="753.9827070399999"/>
      <point x="256.98270704" y="760"/>
      <point x="249.56" y="760" type="curve"/>
      <point x="228.44" y="760" type="line"/>
      <point x="221.01729296" y="760"/>
      <point x="215" y="753.9827070399999"/>
      <point x="215" y="746.56" type="curve"/>
      <point x="215" y="13.440000000000001" type="line"/>
      <point x="215" y="6.017292960000001"/>
      <point x="221.01729296" y="0"/>
    </contour>
    <contour>
      <point x="215" y="500" type="line"/>
      <point x="215" y="670"/>
      <point x="294" y="770"/>
      <point x="398" y="734" type="curve"/>
      <point x="398" y="670" type="line"/>
      <point x="325" y="687"/>
      <point x="279" y="632"/>
      <point x="279" y="500" type="curve"/>
    </contour>
    <contour>
      <point x="116.52" y="350" type="curve"/>
      <point x="383.48" y="350" type="line"/>
      <point x="389.84232032" y="350"/>
      <point x="395" y="355.15767968"/>
      <point x="395" y="361.52" type="curve"/>
      <point x="395" y="386.48" type="line"/>
      <point x="395" y="392.84232032"/>
      <point x="389.84232032" y="398"/>
      <point x="383.48" y="398" type="curve"/>
      <point x="116.52" y="398" type="line"/>
      <point x="110.15767968" y="398"/>
      <point x="105" y="392.84232032"/>
      <point x="105" y="386.48" type="curve"/>
      <point x="105" y="361.52" type="line"/>
      <point x="105" y="355.15767968"/>
      <point x="110.15767968" y="350"/>
    </contour>
    <contour>
      <point x="38" y="0" type="line"/>
      <point x="138" y="0" type="line"/>
      <point x="138" y="20" type="line"/>
      <point x="38" y="20" type="line"/>
    </contour>
    <contour>
      <point x="38" y="740" type="line"/>
      <point x="138" y="740" type="line"/>
      <point x="138" y="760" type="line"/>
      <point x="38" y="760" type="line"/>
    </contour>
    <contour>
      <point x="362" y="0" type="line"/>
      <point x="462" y="0" type="line"/>
      <point x="462" y="20" type="line"/>
      <point x="362" y="20" type="line"/>
    </contour>
  </outline>
</glyph>
<glyph name="g" format="2">
  <advance width="540"/>
  <unicode hex="0067"/>
  <outline>
    <contour>
      <point x="378" y="260" type="curve"/>
      <point x="378" y="392.54834"/>
      <point x="310.8427125" y="500"/>
      <point x="228" y="500" type="curve"/>
      <point x="145.1572875" y="500"/>
      <point x="78" y="392.54834"/>
      <point x="78" y="260" type="curve"/>
      <point x="78" y="127.45166"/>
      <point x="145.1572875" y="20"/>
      <point x="228" y="20" type="curve"/>
      <point x="310.8427125" y="20"/>
      <point x="378" y="127.45166"/>
    </contour>
    <contour>
      <point x="330" y="260" type="curve"/>
      <point x="330" y="153.961328"/>
      <point x="284.3330445" y="68"/>
      <point x="228" y="68" type="curve"/>
      <point x="171.6669555" y="68"/>
      <point x="126" y="153.961328"/>
      <point x="126" y="260" type="curve"/>
      <point x="126" y="366.038672"/>
      <point x="171.6669555" y="452"/>
      <point x="228" y="452" type="curve"/>
      <point x="284.3330445" y="452"/>
      <point x="330" y="366.038672"/>
    </contour>
    <contour>
      <point x="357.44" y="-210" type="curve"/>
      <point x="378.56" y="-210" type="line"/>
      <point x="385.98270704" y="-210"/>
      <point x="392" y="-203.98270704"/>
      <point x="392" y="-196.56" type="curve"/>
      <point x="392" y="541.56" type="line"/>
      <point x="392" y="548.9827070399999"/>
      <point x="385.98270704" y="555"/>
      <point x="378.56" y="555" type="curve"/>
      <point x="357.44" y="555" type="line"/>
      <point x="350.01729296" y="555"/>
      <point x="344" y="548.9827070399999"/>
      <point x="344" y="541.56" type="curve"/>
      <point x="344" y="-196.56" type="line"/>
      <point x="344" y="-203.98270704"/>
      <point x="350.01729296" y="-210"/>
    </contour>
    <contour>
      <point x="408" y="0" type="line"/>
      <point x="408" y="-210"/>
      <point x="324" y="-210"/>
      <point x="230" y="-210" type="curve"/>
      <point x="173" y="-210"/>
      <point x="139" y="-185"/>
      <point x="128" y="-146" type="curve"/>
      <point x="192" y="-146" type="line"/>
      <point x="205" y="-175"/>
      <point x="221" y="-180"/>
      <point x="245" y="-180" type="curve"/>
      <point x="305" y="-180"/>
      <point x="344" y="-138"/>
      <point x="344" y="0" type="curve"/>
    </contour>
    <contour>
      <point x="38" y="0" type="line"/>
      <point x="138" y="0" type="line"/>
      <point x="138" y="20" type="line"/>
      <point x="38" y="20" type="line"/>
    </contour>
    <contour>
      <point x="362" y="-210" type="line"/>
      <point x="462" y="-210" type="line"/>
      <point x="462" y="-190" type="line"/>
      <point x="362" y="-190" type="line"/>
    </contour>
  </outline>
</glyph>
<glyph name="i" format="2">
  <advance width="290"/>
  <unicode hex="0069"/>
  <outline>
    <contour>
      <point x="231.44" y="0" type="curve"/>
      <point x="252.56" y="0" type="line"/>
      <point x="259.98270704" y="0"/>
      <point x="266" y="6.017292960000001"/>
      <point x="266" y="13.440000000000001" type="curve"/>
      <point x="266" y="441.56" type="line"/>
      <point x="266" y="448.98270704"/>
      <point x="259.98270704" y="455"/>
      <point x="252.56" y="455" type="curve"/>
      <point x="231.44" y="455" type="line"/>
      <point x="224.01729296" y="455"/>
      <point x="218" y="448.98270704"/>
      <point x="218" y="441.56" type="curve"/>
      <point x="218" y="13.440000000000001" type="line"/>
      <point x="218" y="6.017292960000001"/>
      <point x="224.01729296" y="0"/>
    </contour>
    <contour>
      <point x="276.4" y="525" type="curve"/>
      <point x="276.4" y="539.5803174"/>
      <point x="264.5803174" y="551.4"/>
      <point x="250" y="551.4" type="curve"/>
      <point x="235.4196826" y="551.4"/>
      <point x="223.6" y="539.5803174"/>
      <point x="223.6" y="525" type="curve"/>
      <point x="223.6" y="510.4196826"/>
      <point x="235.4196826" y="498.6"/>
      <point x="250" y="498.6" type="curve"/>
      <point x="264.5803174" y="498.6"/>
      <point x="276.4" y="510.4196826"/>
    </contour>
    <contour>
      <point x="38" y="0" type="line"/>
      <point x="138" y="0" type="line"/>
      <point x="138" y="20" type="line"/>
      <point x="38" y="20" type="line"/>
    </contour>
    <contour>
      <point x="362" y="0" type="line"/>
      <point x="462" y="0" type="line"/>
      <point x="462" y="20" type="line"/>
      <point x="362" y="20" type="line"/>
    </contour>
  </outline>
</glyph>
<glyph name="j" format="2">
  <advance width="540"/>
  <unicode hex="006A"/>
  <outline>
    <contour>
      <point x="231.44" y="-190" type="curve"/>
      <point x="252.56" y="-190" type="line"/>
      <point x="259.98270704" y="-190"/>
      <point x="266" y="-183.98270704"/>
      <point x="266" y="-176.56" type="curve"/>
      <point x="266" y="441.56" type="line"/>
      <point x="266" y="448.98270704"/>
      <point x="259.98270704" y="455"/>
      <point x="252.56" y="455" type="curve"/>
      <point x="231.44" y="455" type="line"/>
      <point x="224.01729296" y="455"/>
      <point x="218" y="448.98270704"/>
      <point x="218" y="441.56" type="curve"/>
      <point x="218" y="-176.56" type="line"/>
      <point x="218" y="-183.98270704"/>
      <point x="224.01729296" y="-190"/>
    </contour>
    <contour>
      <point x="276.4" y="525" type="curve"/>
      <point x="276.4" y="539.5803174"/>
      <point x="264.5803174" y="551.4"/>
      <point x="250" y="551.4" type="curve"/>
      <point x="235.4196826" y="551.4"/>
      <point x="223.6" y="539.5803174"/>
      <point x="223.6" y="525" type="curve"/>
      <point x="223.6" y="510.4196826"/>
      <point x="235.4196826" y="498.6"/>
      <point x="250" y="498.6" type="curve"/>
      <point x="264.5803174" y="498.6"/>
      <point x="276.4" y="510.4196826"/>
    </contour>
    <contour>
      <point x="282" y="-190" type="line"/>
      <point x="282" y="-210"/>
      <point x="247" y="-210"/>
      <point x="201" y="-210" type="curve"/>
      <point x="177" y="-210" type="line"/>
      <point x="177" y="-185" type="line"/>
      <point x="201" y="-185" type="line"/>
      <point x="212" y="-185"/>
      <point x="218" y="-188"/>
      <point x="218" y="-190" type="curve"/>
    </contour>
    <contour>
      <point x="38" y="0" type="line"/>
      <point x="138" y="0" type="line"/>
      <point x="138" y="20" type="line"/>
      <point x="38" y="20" type="line"/>
    </contour>
    <contour>
      <point x="362" y="-210" type="line"/>
      <point x="462" y="-210" type="line"/>
      <point x="462" y="-190" type="line"/>
      <point x="362" y="-190" type="line"/>
    </contour>
  </outline>
</glyph>
<glyph name="k" format="2">
  <advance width="540"/>
  <unicode hex="006B"/>
  <outline>
    <contour>
      <point x="73.44" y="0" type="curve"/>
      <point x="94.56" y="0" type="line"/>
      <point x="101.98270704000001" y="0"/>
      <point x="108" y="6.017292960000001"/>
      <point x="108" y="13.440000000000001" type="curve"/>
      <point x="108" y="746.56" type="line"/>
      <point x="108" y="753.9827070399999"/>
      <point x="101.98270704000001" y="760"/>
      <point x="94.56" y="760" type="curve"/>
      <point x="73.44" y="760" type="line"/>
      <point x="66.01729295999999" y="760"/>
      <point x="60" y="753.9827070399999"/>
      <point x="60" y="746.56" type="curve"/>
      <point x="60" y="13.440000000000001" type="line"/>
      <point x="60" y="6.017292960000001"/>
      <point x="66.01729295999999" y="0"/>
    </contour>
    <contour>
      <point x="106.05502965376742" y="293.9366884663293" type="line"/>
      <point x="352.0550296537674" y="570.9366884663293" type="line"/>
      <point x="387.9449703462326" y="539.0633115336707" type="line"/>
      <point x="141.9449703462326" y="262.0633115336707" type="line"/>
    </contour>
    <contour>
      <point x="141.65474801386677" y="294.25760968183414" type="line"/>
      <point x="397.65474801386677" y="16.257609681834147" type="line"/>
      <point x="362.34525198613323" y="-16.257609681834147" type="line"/>
      <point x="106.34525198613323" y="261.74239031816586" type="line"/>
    </contour>
    <contour>
      <point x="38" y="0" type="line"/>
      <point x="138" y="0" type="line"/>
      <point x="138" y="20" type="line"/>
      <point x="38" y="20" type="line"/>
    </contour>
    <contour>
      <point x="38" y="740" type="line"/>
      <point x="138" y="740" type="line"/>
      <point x="138" y="760" type="line"/>
      <point x="38" y="760" type="line"/>
    </contour>
    <contour>
      <point x="362" y="0" type="line"/>
      <point x="462" y="0" type="line"/>
      <point x="462" y="20" type="line"/>
      <point x="362" y="20" type="line"/>
    </contour>
  </outline>
</glyph>
<glyph name="l" format="2">
  <advance width="290"/>
  <unicode hex="006C"/>
  <outline>
    <contour>
      <point x="231.44" y="0" type="curve"/>
      <point x="252.56" y="0" type="line"/>
      <point x="259.98270704" y="0"/>
      <point x="266" y="6.017292960000001"/>
      <point x="266" y="13.440000000000001" type="curve"/>
      <point x="266" y="746.56" type="line"/>
      <point x="266" y="753.9827070399999"/>
      <point x="259.98270704" y="760"/>
      <point x="252.56" y="760" type="curve"/>
      <point x="231.44" y="760" type="line"/>
      <point x="224.01729296" y="760"/>
      <point x="218" y="753.9827070399999"/>
      <point x="218" y="746.56" type="curve"/>
      <point x="218" y="13.440000000000001" type="line"/>
      <point x="218" y="6.017292960000001"/>
      <point x="224.01729296" y="0"/>
    </contour>
    <contour>
      <point x="38" y="0" type="line"/>
      <point x="138" y="0" type="line"/>
      <point x="138" y="20" type="line"/>
      <point x="38" y="20" type="line"/>
    </contour>
    <contour>
      <point x="38" y="740" type="line"/>
      <point x="138" y="740" type="line"/>
      <point x="138" y="760" type="line"/>
      <point x="38" y="760" type="line"/>
    </contour>
    <contour>
      <point x="362" y="0" type="line"/>
      <point x="462" y="0" type="line"/>
      <point x="462" y="20" type="line"/>
      <point x="362" y="20" type="line"/>
    </contour>
  </outline>
</glyph>
<glyph name="m" format="2">
  <advance width="600"/>
  <unicode hex="006D"/>
  <outline>
    <contour>
      <point x="53.44" y="0" type="curve"/>
      <point x="74.56" y="0" type="line"/>
      <point x="81.98270704000001" y="0"/>
      <point x="88" y="6.017292960000001"/>
      <point x="88" y="13.440000000000001" type="curve"/>
      <point x="88" y="541.56" type="line"/>
      <point x="88" y="548.9827070399999"/>
      <point x="81.98270704000001" y="555"/>
      <point x="74.56" y="555" type="curve"/>
      <point x="53.44" y="555" type="line"/>
      <point x="46.01729296" y="555"/>
      <point x="40" y="548.9827070399999"/>
      <point x="40" y="541.56" type="curve"/>
      <point x="40" y="13.440000000000001" type="line"/>
      <point x="40" y="6.017292960000001"/>
      <point x="46.01729296" y="0"/>
    </contour>
    <contour>
      <point x="104" y="0" type="line"/>
      <point x="104" y="555" type="line"/>
      <point x="153.64" y="565"/>
      <point x="250" y="460.65"/>
      <point x="250" y="349.65" type="curve"/>
      <point x="250" y="0" type="line"/>
      <point x="202" y="0" type="line"/>
      <point x="202" y="349.65" type="line"/>
      <point x="202" y="528.6"/>
      <point x="201.64" y="507"/>
      <point x="152" y="507" type="curve"/>
      <point x="152" y="0" type="line"/>
    </contour>
    <contour>
      <point x="239" y="0" type="line"/>
      <point x="239" y="555" type="line"/>
      <point x="284.9" y="565"/>
      <point x="374" y="460.65"/>
      <point x="374" y="349.65" type="curve"/>
      <point x="374" y="0" type="line"/>
      <point x="326" y="0" type="line"/>
      <point x="326" y="349.65" type="line"/>
      <point x="326" y="528.6"/>
      <point x="332.9" y="507"/>
      <point x="287" y="507" type="curve"/>
      <point x="287" y="0" type="line"/>
    </contour>
    <contour>
      <point x="38" y="0" type="line"/>
      <point x="138" y="0" type="line"/>
      <point x="138" y="20" type="line"/>
      <point x="38" y="20" type="line"/>
    </contour>
    <contour>
      <point x="362" y="0" type="line"/>
      <point x="462" y="0" type="line"/>
      <point x="462" y="20" type="line"/>
      <point x="362" y="20" type="line"/>
    </contour>
  </outline>
</glyph>
<glyph name="n" format="2">
  <advance width="540"/>
  <unicode hex="006E"/>
  <outline>
    <contour>
      <point x="73.44" y="0" type="curve"/>
      <point x="94.56" y="0" type="line"/>
      <point x="101.98270704000001" y="0"/>
      <point x="108" y="6.017292960000001"/>
      <point x="108" y="13.440000000000001" type="curve"/>
      <point x="108" y="541.56" type="line"/>
      <point x="108" y="548.9827070399999"/>
      <point x="101.98270704000001" y="555"/>
      <point x="94.56" y="555" type="curve"/>
      <point x="73.44" y="555" type="line"/>
      <point x="66.01729295999999" y="555"/>
      <point x="60" y="548.9827070399999"/>
      <point x="60" y="541.56" type="curve"/>
      <point x="60" y="13.440000000000001" type="line"/>
      <point x="60" y="6.017292960000001"/>
      <point x="66.01729295999999" y="0"/>
    </contour>
    <contour>
      <point x="124" y="0" type="line"/>
      <point x="124" y="555" type="line"/>
      <point x="198.8" y="565"/>
      <point x="344" y="460.65"/>
      <point x="344" y="349.65" type="curve"/>
      <point x="344" y="0" type="line"/>
      <point x="296" y="0" type="line"/>
      <point x="296" y="349.65" type="line"/>
      <point x="296" y="528.6"/>
      <point x="246.8" y="507"/>
      <point x="172" y="507" type="curve"/>
      <point x="172" y="0" type="line"/>
    </contour>
    <contour>
      <point x="38" y="0" type="line"/>
      <point x="138" y="0" type="line"/>
      <point x="138" y="20" type="line"/>
      <point x="38" y="20" type="line"/>
    </contour>
    <contour>
      <point x="362" y="0" type="line"/>
      <point x="462" y="0" type="line"/>
      <point x="462" y="20" type="line"/>
      <point x="362" y="20" type="line"/>
    </contour>
  </outline>
</glyph>
<glyph name="o" format="2">
  <advance width="540"/>
  <unicode hex="006F"/>
  <outline>
    <contour>
      <point x="430" y="278" type="curve"/>
      <point x="430" y="431.53516049999996"/>
      <point x="349.411255" y="556"/>
      <point x="250" y="556" type="curve"/>
      <point x="150.58874500000002" y="556"/>
      <point x="70" y="431.53516049999996"/>
      <point x="70" y="278" type="curve"/>
      <point x="70" y="124.46483950000001"/>
      <point x="150.58874500000002" y="0"/>
      <point x="250" y="0" type="curve"/>
      <point x="349.411255" y="0"/>
      <point x="430" y="124.46483950000001"/>
    </contour>
    <contour>
      <point x="382" y="278" type="curve"/>
      <point x="382" y="150.97450750000002"/>
      <point x="322.901587" y="48"/>
      <point x="250" y="48" type="curve"/>
      <point x="177.098413" y="48"/>
      <point x="118" y="150.97450750000002"/>
      <point x="118" y="278" type="curve"/>
      <point x="118" y="405.0254925"/>
      <point x="177.098413" y="508"/>
      <point x="250" y="508" type="curve"/>
      <point x="322.901587" y="508"/>
      <point x="382" y="405.0254925"/>
    </contour>
  </outline>
</glyph>
<glyph name="p" format="2">
  <advance width="540"/>
  <unicode hex="0070"/>
  <outline>
    <contour>
      <point x="73.44" y="-210" type="curve"/>
      <point x="94.56" y="-210" type="line"/>
      <point x="101.98270704000001" y="-210"/>
      <point x="108" y="-203.98270704"/>
      <point x="108" y="-196.56" type="curve"/>
      <point x="108" y="541.56" type="line"/>
      <point x="108" y="548.9827070399999"/>
      <point x="101.98270704000001" y="555"/>
      <point x="94.56" y="555" type="curve"/>
      <point x="73.44" y="555" type="line"/>
      <point x="66.01729295999999" y="555"/>
      <point x="60" y="548.9827070399999"/>
      <point x="60" y="541.56" type="curve"/>
      <point x="60" y="-196.56" type="line"/>
      <point x="60" y="-203.98270704"/>
      <point x="66.01729295999999" y="-210"/>
    </contour>
    <contour>
      <point x="430" y="278" type="curve"/>
      <point x="430" y="431.53516049999996"/>
      <point x="349.411255" y="556"/>
      <point x="250" y="556" type="curve"/>
      <point x="150.58874500000002" y="556"/>
      <point x="70" y="431.53516049999996"/>
      <point x="70" y="278" type="curve"/>
      <point x="70" y="124.46483950000001"/>
      <point x="150.58874500000002" y="0"/>
      <point x="250" y="0" type="curve"/>
      <point x="349.411255" y="0"/>
      <point x="430" y="124.46483950000001"/>
    </contour>
    <contour>
      <point x="382" y="278" type="curve"/>
      <point x="382" y="150.97450750000002"/>
      <point x="322.901587" y="48"/>
      <point x="250" y="48" type="curve"/>
      <point x="177.098413" y="48"/>
      <point x="118" y="150.97450750000002"/>
      <point x="118" y="278" type="curve"/>
      <point x="118" y="405.0254925"/>
      <point x="177.098413" y="508"/>
      <point x="250" y="508" type="curve"/>
      <point x="322.901587" y="508"/>
      <point x="382" y="405.0254925"/>
    </contour>
    <contour>
      <point x="38" y="0" type="line"/>
      <point x="138" y="0" type="line"/>
      <point x="138" y="20" type="line"/>
      <point x="38" y="20" type="line"/>
    </contour>
    <contour>
      <point x="362" y="-210" type="line"/>
      <point x="462" y="-210" type="line"/>
      <point x="462" y="-190" type="line"/>
      <point x="362" y="-190" type="line"/>
    </contour>
  </outline>
</glyph>
<glyph name="q" format="2">
  <advance width="540"/>
  <unicode hex="0071"/>
  <outline>
    <contour>
      <point x="341.44" y="-210" type="curve"/>
      <point x="362.56" y="-210" type="line"/>
      <point x="369.98270704" y="-210"/>
      <point x="376" y="-203.98270704"/>
      <point x="376" y="-196.56" type="curve"/>
      <point x="376" y="541.56" type="line"/>
      <point x="376" y="548.9827070399999"/>
      <point x="369.98270704" y="555"/>
      <point x="362.56" y="555" type="curve"/>
      <point x="341.44" y="555" type="line"/>
      <point x="334.01729296" y="555"/>
      <point x="328" y="548.9827070399999"/>
      <point x="328" y="541.56" type="curve"/>
      <point x="328" y="-196.56" type="line"/>
      <point x="328" y="-203.98270704"/>
      <point x="334.01729296" y="-210"/>
    </contour>
    <contour>
      <point x="430" y="278" type="curve"/>
      <point x="430" y="431.53516049999996"/>
      <point x="349.411255" y="556"/>
      <point x="250" y="556" type="curve"/>
      <point x="150.58874500000002" y="556"/>
      <point x="70" y="431.53516049999996"/>
      <point x="70" y="278" type="curve"/>
      <point x="70" y="124.46483950000001"/>
      <point x="150.58874500000002" y="0"/>
      <point x="250" y="0" type="curve"/>
      <point x="349.411255" y="0"/>
      <point x="430" y="124.46483950000001"/>
    </contour>
    <contour>
      <point x="382" y="278" type="curve"/>
      <point x="382" y="150.97450750000002"/>
      <point x="322.901587" y="48"/>
      <point x="250" y="48" type="curve"/>
      <point x="177.098413" y="48"/>
      <point x="118" y="150.97450750000002"/>
      <point x="118" y="278" type="curve"/>
      <point x="118" y="405.0254925"/>
      <point x="177.098413" y="508"/>
      <point x="250" y="508" type="curve"/>
      <point x="322.901587" y="508"/>
      <point x="382" y="405.0254925"/>
    </contour>
    <contour>
      <point x="38" y="0" type="line"/>
      <point x="138" y="0" type="line"/>
      <point x="138" y="20" type="line"/>
      <point x="38" y="20" type="line"/>
    </contour>
    <contour>
      <point x="362" y="-210" type="line"/>
      <point x="462" y="-210" type="line"/>
      <point x="462" y="-190" type="line"/>
      <point x="362" y="-190" type="line"/>
    </contour>
  </outline>
</glyph>
<glyph name="r" format="2">
  <advance width="540"/>
  <unicode hex="0072"/>
  <outline>
    <contour>
      <point x="73.44" y="0" type="curve"/>
      <point x="94.56" y="0" type="line"/>
      <point x="101.98270704000001" y="0"/>
      <point x="108" y="6.017292960000001"/>
      <point x="108" y="13.440000000000001" type="curve"/>
      <point x="108" y="541.56" type="line"/>
      <point x="108" y="548.9827070399999"/>
      <point x="101.98270704000001" y="555"/>
      <point x="94.56" y="555" type="curve"/>
      <point x="73.44" y="555" type="line"/>
      <point x="66.01729295999999" y="555"/>
      <point x="60" y="548.9827070399999"/>
      <point x="60" y="541.56" type="curve"/>
      <point x="60" y="13.440000000000001" type="line"/>
      <point x="60" y="6.017292960000001"/>
      <point x="66.01729295999999" y="0"/>
    </contour>
    <contour>
      <point x="124" y="305" type="line"/>
      <point x="154" y="474"/>
      <point x="270" y="555"/>
      <point x="390" y="472" type="curve"/>
      <point x="390" y="400" type="line"/>
      <point x="284" y="450"/>
      <point x="205" y="417"/>
      <point x="188" y="305" type="curve"/>
    </contour>
    <contour>
      <point x="38" y="0" type="line"/>
      <point x="138" y="0" type="line"/>
      <point x="138" y="20" type="line"/>
      <point x="38" y="20" type="line"/>
    </contour>
    <contour>
      <point x="362" y="0" type="line"/>
      <point x="462" y="0" type="line"/>
      <point x="462" y="20" type="line"/>
      <point x="362" y="20" type="line"/>
    </contour>
  </outline>
</glyph>
<glyph name="s" format="2">
  <advance width="540"/>
  <unicode hex="0073"/>
  <outline>
    <contour>
      <point x="398.2" y="550.7" type="line"/>
      <point x="283.0" y="559.34"/>
      <point x="92.2" y="551.66"/>
      <point x="89.8" y="344.6" type="curve"/>
      <point x="87.4" y="283.55"/>
      <point x="230.2" y="281.84"/>
      <point x="246.7" y="278" type="curve"/>
      <point x="283.0" y="211.4"/>
      <point x="413.08" y="261.35"/>
      <point x="411.16" y="161.45" type="curve"/>
      <point x="409.24" y="2.9000000000000004"/>
      <point x="210.4" y="-2.38"/>
      <point x="87.4" y="7.220000000000001" type="curve"/>
      <point x="92.68" y="47.54" type="line"/>
      <point x="217.0" y="30.259999999999998"/>
      <point x="383.8" y="41.3"/>
      <point x="387.16" y="150.35" type="curve"/>
      <point x="389.08" y="250.25"/>
      <point x="266.5" y="244.7"/>
      <point x="236.8" y="279.44" type="curve"/>
      <point x="193.9" y="285.2"/>
      <point x="107.08" y="283.76"/>
      <point x="109.96000000000001" y="355.7" type="curve"/>
      <point x="112.84" y="525.74"/>
      <point x="276.4" y="533.9"/>
      <point x="399.64" y="508.46" type="curve"/>
    </contour>
  </outline>
</glyph>
<glyph name="t" format="2">
  <advance width="540"/>
  <unicode hex="0074"/>
  <outline>
    <contour>
      <point x="228.44" y="0" type="curve"/>
      <point x="249.56" y="0" type="line"/>
      <point x="256.98270704" y="0"/>
      <point x="263" y="6.017292960000001"/>
      <point x="263" y="13.440000000000001" type="curve"/>
      <point x="263" y="746.56" type="line"/>
      <point x="263" y="753.9827070399999"/>
      <point x="256.98270704" y="760"/>
      <point x="249.56" y="760" type="curve"/>
      <point x="228.44" y="760" type="line"/>
      <point x="221.01729296" y="760"/>
      <point x="215" y="753.9827070399999"/>
      <point x="215" y="746.56" type="curve"/>
      <point x="215" y="13.440000000000001" type="line"/>
      <point x="215" y="6.017292960000001"/>
      <point x="221.01729296" y="0"/>
    </contour>
    <contour>
      <point x="116.52" y="360" type="curve"/>
      <point x="363.48" y="360" type="line"/>
      <point x="369.84232032" y="360"/>
      <point x="375" y="365.15767968"/>
      <point x="375" y="371.52" type="curve"/>
      <point x="375" y="396.48" type="line"/>
      <point x="375" y="402.84232032"/>
      <point x="369.84232032" y="408"/>
      <point x="363.48" y="408" type="curve"/>
      <point x="116.52" y="408" type="line"/>
      <point x="110.15767968" y="408"/>
      <point x="105" y="402.84232032"/>
      <point x="105" y="396.48" type="curve"/>
      <point x="105" y="371.52" type="line"/>
      <point x="105" y="365.15767968"/>
      <point x="110.15767968" y="360"/>
    </contour>
    <contour>
      <point x="38" y="0" type="line"/>
      <point x="138" y="0" type="line"/>
      <point x="138" y="20" type="line"/>
      <point x="38" y="20" type="line"/>
    </contour>
    <contour>
      <point x="38" y="740" type="line"/>
      <point x="138" y="740" type="line"/>
      <point x="138" y="760" type="line"/>
      <point x="38" y="760" type="line"/>
    </contour>
    <contour>
      <point x="362" y="0" type="line"/>
      <point x="462" y="0" type="line"/>
      <point x="462" y="20" type="line"/>
      <point x="362" y="20" type="line"/>
    </contour>
  </outline>
</glyph>
<glyph name="u" format="2">
  <advance width="540"/>
  <unicode hex="0075"/>
  <outline>
    <contour>
      <point x="73.44" y="190" type="curve"/>
      <point x="94.56" y="190" type="line"/>
      <point x="101.98270704000001" y="190"/>
      <point x="108" y="196.01729296"/>
      <point x="108" y="203.44" type="curve"/>
      <point x="108" y="541.56" type="line"/>
      <point x="108" y="548.9827070399999"/>
      <point x="101.98270704000001" y="555"/>
      <point x="94.56" y="555" type="curve"/>
      <point x="73.44" y="555" type="line"/>
      <point x="66.01729295999999" y="555"/>
      <point x="60" y="548.9827070399999"/>
      <point x="60" y="541.56" type="curve"/>
      <point x="60" y="203.44" type="line"/>
      <point x="60" y="196.01729296"/>
      <point x="66.01729295999999" y="190"/>
    </contour>
    <contour>
      <point x="309.44" y="0" type="curve"/>
      <point x="330.56" y="0" type="line"/>
      <point x="337.98270704" y="0"/>
      <point x="344" y="6.017292960000001"/>
      <point x="344" y="13.440000000000001" type="curve"/>
      <point x="344" y="541.56" type="line"/>
      <point x="344" y="548.9827070399999"/>
      <point x="337.98270704" y="555"/>
      <point x="330.56" y="555" type="curve"/>
      <point x="309.44" y="555" type="line"/>
      <point x="302.01729296" y="555"/>
      <point x="296" y="548.9827070399999"/>
      <point x="296" y="541.56" type="curve"/>
      <point x="296" y="13.440000000000001" type="line"/>
      <point x="296" y="6.017292960000001"/>
      <point x="302.01729296" y="0"/>
    </contour>
    <contour>
      <point x="60" y="190" type="line"/>
      <point x="60" y="67"/>
      <point x="125" y="-4"/>
      <point x="234" y="-4" type="curve"/>
      <point x="320" y="-4"/>
      <point x="344" y="67"/>
      <point x="344" y="190" type="curve"/>
      <point x="280" y="190" type="line"/>
      <point x="280" y="91"/>
      <point x="263" y="54"/>
      <point x="234" y="54" type="curve"/>
      <point x="201" y="54"/>
      <point x="124" y="91"/>
      <point x="124" y="190" type="curve"/>
    </contour>
    <contour>
      <point x="38" y="0" type="line"/>
      <point x="138" y="0" type="line"/>
      <point x="138" y="20" type="line"/>
      <point x="38" y="20" type="line"/>
    </contour>
    <contour>
      <point x="362" y="0" type="line"/>
      <point x="462" y="0" type="line"/>
      <point x="462" y="20" type="line"/>
      <point x="362" y="20" type="line"/>
    </contour>
  </outline>
</glyph>
<glyph name="v" format="2">
  <advance width="540"/>
  <unicode hex="0076"/>
  <outline>
    <contour>
      <point x="97.88909833049331" y="562.2172832573627" type="line"/>
      <point x="272.8890983304933" y="7.217283257362753" type="line"/>
      <point x="227.1109016695067" y="-7.217283257362753" type="line"/>
      <point x="52.110901669506696" y="547.7827167426373" type="line"/>
    </contour>
    <contour>
      <point x="447.8890983304933" y="547.7827167426373" type="line"/>
      <point x="272.8890983304933" y="-7.217283257362753" type="line"/>
      <point x="227.1109016695067" y="7.217283257362753" type="line"/>
      <point x="402.1109016695067" y="562.2172832573627" type="line"/>
    </contour>
  </outline>
</glyph>
<glyph name="w" format="2">
  <advance width="600"/>
  <unicode hex="0077"/>
  <outline>
    <contour>
      <point x="68.72338610684204" y="558.6333113857326" type="line"/>
      <point x="153.72338610684204" y="3.633311385732565" type="line"/>
      <point x="106.27661389315796" y="-3.633311385732565" type="line"/>
      <point x="21.276613893157958" y="551.3666886142674" type="line"/>
    </contour>
    <contour>
      <point x="478.72338610684204" y="551.3666886142674" type="line"/>
      <point x="393.72338610684204" y="-3.633311385732565" type="line"/>
      <point x="346.27661389315796" y="3.633311385732565" type="line"/>
      <point x="431.27661389315796" y="558.6333113857326" type="line"/>
    </contour>
    <contour>
      <point x="107.71655941875377" y="8.91337623249849" type="line"/>
      <point x="227.71655941875377" y="308.9133762324985" type="line"/>
      <point x="272.2834405812462" y="291.0866237675015" type="line"/>
      <point x="152.28344058124623" y="-8.91337623249849" type="line"/>
    </contour>
    <contour>
      <point x="347.7165594187538" y="-8.91337623249849" type="line"/>
      <point x="227.71655941875377" y="291.0866237675015" type="line"/>
      <point x="272.2834405812462" y="308.9133762324985" type="line"/>
      <point x="392.2834405812462" y="8.91337623249849" type="line"/>
    </contour>
  </outline>
</glyph>
<glyph name="x" format="2">
  <advance width="540"/>
  <unicode hex="0078"/>
  <outline>
    <contour>
      <point x="90.1350708886638" y="568.0605865223765" type="line"/>
      <point x="450.1350708886638" y="13.060586522376523" type="line"/>
      <point x="409.8649291113362" y="-13.060586522376523" type="line"/>
      <point x="49.864929111336195" y="541.9394134776235" type="line"/>
    </contour>
    <contour>
      <point x="450.1350708886638" y="541.9394134776235" type="line"/>
      <point x="90.1350708886638" y="-13.060586522376523" type="line"/>
      <point x="49.864929111336195" y="13.060586522376523" type="line"/>
      <point x="409.8649291113362" y="568.0605865223765" type="line"/>
    </contour>
  </outline>
</glyph>
<glyph name="y" format="2">
  <advance width="540"/>
  <unicode hex="0079"/>
  <outline>
    <contour>
      <point x="97.88909833049331" y="562.2172832573627" type="line"/>
      <point x="272.8890983304933" y="7.217283257362753" type="line"/>
      <point x="227.1109016695067" y="-7.217283257362753" type="line"/>
      <point x="52.110901669506696" y="547.7827167426373" type="line"/>
    </contour>
    <contour>
      <point x="447.8890983304933" y="547.7827167426373" type="line"/>
      <point x="272.8890983304933" y="-7.217283257362753" type="line"/>
      <point x="227.1109016695067" y="7.217283257362753" type="line"/>
      <point x="402.1109016695067" y="562.2172832573627" type="line"/>
    </contour>
    <contour>
      <point x="218" y="-210" type="line"/>
      <point x="266" y="-210" type="line"/>
      <point x="266" y="-110" type="line"/>
      <point x="218" y="-110" type="line"/>
    </contour>
    <contour>
      <point x="38" y="0" type="line"/>
      <point x="138" y="0" type="line"/>
      <point x="138" y="20" type="line"/>
      <point x="38" y="20" type="line"/>
    </contour>
    <contour>
      <point x="362" y="-210" type="line"/>
      <point x="462" y="-210" type="line"/>
      <point x="462" y="-190" type="line"/>
      <point x="362" y="-190" type="line"/>
    </contour>
  </outline>
</glyph>
<glyph name="z" format="2">
  <advance width="540"/>
  <unicode hex="007A"/>
  <outline>
    <contour>
      <point x="70" y="507" type="line"/>
      <point x="430" y="507" type="line"/>
      <point x="430" y="555" type="line"/>
      <point x="70" y="555" type="line"/>
    </contour>
    <contour>
      <point x="430.29553767156216" y="518.1901931856019" type="line"/>
      <point x="110.29553767156213" y="11.19019318560181" type="line"/>
      <point x="69.70446232843787" y="36.809806814398186" type="line"/>
      <point x="389.70446232843784" y="543.8098068143981" type="line"/>
    </contour>
    <contour>
      <point x="70" y="0" type="line"/>
      <point x="430" y="0" type="line"/>
      <point x="430" y="48" type="line"/>
      <point x="70" y="48" type="line"/>
    </contour>
  </outline>
</glyph>
<glyph name="uni00A1" format="2">
  <advance width="500"/>
  <unicode hex="00A1"/>
  <outline>
    <contour>
      <point x="226.0" y="0" type="line"/>
      <point x="274.0" y="0" type="line"/>
      <point x="274.0" y="425" type="line"/>
      <point x="226.0" y="425" type="line"/>
    </contour>
    <contour>
      <point x="274.0" y="520" type="curve" smooth="yes"/>
      <point x="274.0" y="533.254834"/>
      <point x="263.254834" y="544.0"/>
      <point x="250.0" y="544.0" type="curve" smooth="yes"/>
      <point x="236.745166" y="544.0"/>
      <point x="226.0" y="533.254834"/>
      <point x="226.0" y="520" type="curve" smooth="yes"/>
      <point x="226.0" y="506.745166"/>
      <point x="236.745166" y="496.0"/>
      <point x="250.0" y="496.0" type="curve" smooth="yes"/>
      <point x="263.254834" y="496.0"/>
      <point x="274.0" y="506.745166"/>
    </contour>
  </outline>
</glyph>
<glyph name="uni00A9" format="2">
  <advance width="500"/>
  <unicode hex="00A9"/>
  <outline>
    <contour>
      <point x="440.0" y="350" type="curve" smooth="yes"/>
      <point x="440.0" y="493.59403499999996"/>
      <point x="354.9341025" y="610"/>
      <point x="250.0" y="610" type="curve" smooth="yes"/>
      <point x="145.0658975" y="610"/>
      <point x="60.0" y="493.59403499999996"/>
      <point x="60.0" y="350" type="curve" smooth="yes"/>
      <point x="60.0" y="206.405965"/>
      <point x="145.0658975" y="90"/>
      <point x="250.0" y="90" type="curve" smooth="yes"/>
      <point x="354.9341025" y="90"/>
      <point x="440.0" y="206.405965"/>
    </contour>
    <contour>
      <point x="392.0" y="350" type="curve" smooth="yes"/>
      <point x="392.0" y="232.915633"/>
      <point x="328.4244345" y="138"/>
      <point x="250.0" y="138" type="curve" smooth="yes"/>
      <point x="171.57556549999998" y="138"/>
      <point x="108.0" y="232.915633"/>
      <point x="108.0" y="350" type="curve" smooth="yes"/>
      <point x="108.0" y="467.084367"/>
      <point x="171.57556549999998" y="562"/>
      <point x="250.0" y="562" type="curve" smooth="yes"/>
      <point x="328.4244345" y="562"/>
      <point x="392.0" y="467.084367"/>
    </contour>
    <contour>
      <point x="195.0" y="180" type="line"/>
      <point x="243.0" y="180" type="line"/>
      <point x="243.0" y="520" type="line"/>
      <point x="195.0" y="520" type="line"/>
    </contour>
    <contour>
      <point x="240.0" y="180" type="line"/>
      <point x="350.0" y="180" type="line"/>
      <point x="350.0" y="228" type="line"/>
      <point x="240.0" y="228" type="line"/>
    </contour>
    <contour>
      <point x="240.0" y="480" type="line"/>
      <point x="350.0" y="480" type="line"/>
      <point x="350.0" y="528" type="line"/>
      <point x="240.0" y="528" type="line"/>
    </contour>
  </outline>
</glyph>
<glyph name="uni00AE" format="2">
  <advance width="500"/>
  <unicode hex="00AE"/>
  <outline>
    <contour>
      <point x="440.0" y="350" type="curve" smooth="yes"/>
      <point x="440.0" y="493.59403499999996"/>
      <point x="354.9341025" y="610"/>
      <point x="250.0" y="610" type="curve" smooth="yes"/>
      <point x="145.0658975" y="610"/>
      <point x="60.0" y="493.59403499999996"/>
      <point x="60.0" y="350" type="curve" smooth="yes"/>
      <point x="60.0" y="206.405965"/>
      <point x="145.0658975" y="90"/>
      <point x="250.0" y="90" type="curve" smooth="yes"/>
      <point x="354.9341025" y="90"/>
      <point x="440.0" y="206.405965"/>
    </contour>
    <contour>
      <point x="392.0" y="350" type="curve" smooth="yes"/>
      <point x="392.0" y="232.915633"/>
      <point x="328.4244345" y="138"/>
      <point x="250.0" y="138" type="curve" smooth="yes"/>
      <point x="171.57556549999998" y="138"/>
      <point x="108.0" y="232.915633"/>
      <point x="108.0" y="350" type="curve" smooth="yes"/>
      <point x="108.0" y="467.084367"/>
      <point x="171.57556549999998" y="562"/>
      <point x="250.0" y="562" type="curve" smooth="yes"/>
      <point x="328.4244345" y="562"/>
      <point x="392.0" y="467.084367"/>
    </contour>
    <contour>
      <point x="188.0" y="225" type="line"/>
      <point x="236.0" y="225" type="line"/>
      <point x="236.0" y="450" type="line"/>
      <point x="188.0" y="450" type="line"/>
    </contour>
    <contour>
      <point x="188.0" y="410" type="line"/>
      <point x="276.0" y="410" type="line"/>
      <point x="276.0" y="458" type="line"/>
      <point x="188.0" y="458" type="line"/>
    </contour>
    <contour>
      <point x="258.0" y="340" type="line"/>
      <point x="306.0" y="340" type="line"/>
      <point x="306.0" y="435" type="line"/>
      <point x="258.0" y="435" type="line"/>
    </contour>
    <contour>
      <point x="267.1254049613813" y="351.3893487617882" type="line"/>
      <point x="329.1254049613813" y="236.38934876178817" type="line"/>
      <point x="286.8745950386187" y="213.61065123821183" type="line"/>
      <point x="224.87459503861868" y="328.6106512382118" type="line"/>
    </contour>
  </outline>
</glyph>
<glyph name="uni00B1" format="2">
  <advance width="500"/>
  <unicode hex="00B1"/>
  <outline>
    <contour>
      <point x="100.0" y="410" type="line"/>
      <point x="400.0" y="410" type="line"/>
      <point x="400.0" y="458" type="line"/>
      <point x="100.0" y="458" type="line"/>
    </contour>
    <contour>
      <point x="226.0" y="270" type="line"/>
      <point x="274.0" y="270" type="line"/>
      <point x="274.0" y="550" type="line"/>
      <point x="226.0" y="550" type="line"/>
    </contour>
    <contour>
      <point x="100.0" y="120" type="line"/>
      <point x="400.0" y="120" type="line"/>
      <point x="400.0" y="168" type="line"/>
      <point x="100.0" y="168" type="line"/>
    </contour>
  </outline>
</glyph>
<glyph name="uni00B7" format="2">
  <advance width="500"/>
  <unicode hex="00B7"/>
  <outline>
    <contour>
      <point x="274.0" y="280" type="curve" smooth="yes"/>
      <point x="274.0" y="293.254834"/>
      <point x="263.254834" y="304.0"/>
      <point x="250.0" y="304.0" type="curve" smooth="yes"/>
      <point x="236.745166" y="304.0"/>
      <point x="226.0" y="293.254834"/>
      <point x="226.0" y="280" type="curve" smooth="yes"/>
      <point x="226.0" y="266.745166"/>
      <point x="236.745166" y="256.0"/>
      <point x="250.0" y="256.0" type="curve" smooth="yes"/>
      <point x="263.254834" y="256.0"/>
      <point x="274.0" y="266.745166"/>
    </contour>
  </outline>
</glyph>
<glyph name="uni00CC" format="2">
  <advance width="290"/>
  <unicode hex="00CC"/>
  <outline>
    <contour>
      <point x="193.0272142340288" y="772.229893823254" type="line"/>
      <point x="117.02721423402879" y="694.229893823254" type="line"/>
      <point x="96.97278576597121" y="713.770106176746" type="line"/>
      <point x="172.9727857659712" y="791.770106176746" type="line"/>
    </contour>
    <component base="I"/>
  </outline>
</glyph>
<glyph name="uni00CE" format="2">
  <advance width="290"/>
  <unicode hex="00CE"/>
  <outline>
    <contour>
      <point x="76.41514191498086" y="730.1630114765837" type="line"/>
      <point x="134.41514191498086" y="797.1630114765837" type="line"/>
      <point x="155.58485808501914" y="778.8369885234163" type="line"/>
      <point x="97.58485808501914" y="711.8369885234163" type="line"/>
    </contour>
    <contour>
      <point x="155.58485808501914" y="797.1630114765837" type="line"/>
      <point x="213.58485808501914" y="730.1630114765837" type="line"/>
      <point x="192.41514191498086" y="711.8369885234163" type="line"/>
      <point x="134.41514191498086" y="778.8369885234163" type="line"/>
    </contour>
    <component base="I"/>
  </outline>
</glyph>
<glyph name="uni00CF" format="2">
  <advance width="290"/>
  <unicode hex="00CF"/>
  <outline>
    <contour>
      <point x="121.0" y="764" type="curve" smooth="yes"/>
      <point x="121.0" y="771.7319865"/>
      <point x="114.7319865" y="778.0"/>
      <point x="107.0" y="778.0" type="curve" smooth="yes"/>
      <point x="99.2680135" y="778.0"/>
      <point x="93.0" y="771.7319865"/>
      <point x="93.0" y="764" type="curve" smooth="yes"/>
      <point x="93.0" y="756.2680135"/>
      <point x="99.2680135" y="750.0"/>
      <point x="107.0" y="750.0" type="curve" smooth="yes"/>
      <point x="114.7319865" y="750.0"/>
      <point x="121.0" y="756.2680135"/>
    </contour>
    <contour>
      <point x="197.0" y="764" type="curve" smooth="yes"/>
      <point x="197.0" y="771.7319865"/>
      <point x="190.7319865" y="778.0"/>
      <point x="183.0" y="778.0" type="curve" smooth="yes"/>
      <point x="175.2680135" y="778.0"/>
      <point x="169.0" y="771.7319865"/>
      <point x="169.0" y="764" type="curve" smooth="yes"/>
      <point x="169.0" y="756.2680135"/>
      <point x="175.2680135" y="750.0"/>
      <point x="183.0" y="750.0" type="curve" smooth="yes"/>
      <point x="190.7319865" y="750.0"/>
      <point x="197.0" y="756.2680135"/>
    </contour>
    <component base="I"/>
  </outline>
</glyph>
<glyph name="uni00D1" format="2">
  <advance width="540"/>
  <unicode hex="00D1"/>
  <outline>
    <contour>
      <point x="203.9715271789134" y="767.4692468872665" type="line"/>
      <point x="243.9715271789134" y="795.4692468872665" type="line"/>
      <point x="260.0284728210866" y="772.5307531127335" type="line"/>
      <point x="220.0284728210866" y="744.5307531127335" type="line"/>
    </contour>
    <contour>
      <point x="260.0284728210866" y="795.4692468872665" type="line"/>
      <point x="300.0284728210866" y="767.4692468872665" type="line"/>
      <point x="283.9715271789134" y="744.5307531127335" type="line"/>
      <point x="243.9715271789134" y="772.5307531127335" type="line"/>
    </contour>
    <contour>
      <point x="283.6952134673021" y="767.2707817229472" type="line"/>
      <point x="321.6952134673021" y="795.2707817229472" type="line"/>
      <point x="338.3047865326979" y="772.7292182770528" type="line"/>
      <point x="300.3047865326979" y="744.7292182770528" type="line"/>
    </contour>
    <component base="N"/>
  </outline>
</glyph>
<glyph name="uni00D7" format="2">
  <advance width="500"/>
  <unicode hex="00D7"/>
  <outline>
    <contour>
      <point x="103.02943725152286" y="226.97056274847714" type="line"/>
      <point x="363.02943725152284" y="486.97056274847716" type="line"/>
      <point x="396.97056274847716" y="453.02943725152284" type="line"/>
      <point x="136.97056274847714" y="193.02943725152286" type="line"/>
    </contour>
    <contour>
      <point x="363.02943725152284" y="193.02943725152286" type="line"/>
      <point x="103.02943725152286" y="453.02943725152284" type="line"/>
      <point x="136.97056274847714" y="486.97056274847716" type="line"/>
      <point x="396.97056274847716" y="226.97056274847714" type="line"/>
    </contour>
  </outline>
</glyph>
<glyph name="uni00E4" format="2">
  <advance width="540"/>
  <unicode hex="00E4"/>
  <outline>
    <contour>
      <point x="246.0" y="615" type="curve" smooth="yes"/>
      <point x="246.0" y="622.7319865"/>
      <point x="239.7319865" y="629.0"/>
      <point x="232.0" y="629.0" type="curve" smooth="yes"/>
      <point x="224.2680135" y="629.0"/>
      <point x="218.0" y="622.7319865"/>
      <point x="218.0" y="615" type="curve" smooth="yes"/>
      <point x="218.0" y="607.2680135"/>
      <point x="224.2680135" y="601.0"/>
      <point x="232.0" y="601.0" type="curve" smooth="yes"/>
      <point x="239.7319865" y="601.0"/>
      <point x="246.0" y="607.2680135"/>
    </contour>
    <contour>
      <point x="322.0" y="615" type="curve" smooth="yes"/>
      <point x="322.0" y="622.7319865"/>
      <point x="315.7319865" y="629.0"/>
      <point x="308.0" y="629.0" type="curve" smooth="yes"/>
      <point x="300.2680135" y="629.0"/>
      <point x="294.0" y="622.7319865"/>
      <point x="294.0" y="615" type="curve" smooth="yes"/>
      <point x="294.0" y="607.2680135"/>
      <point x="300.2680135" y="601.0"/>
      <point x="308.0" y="601.0" type="curve" smooth="yes"/>
      <point x="315.7319865" y="601.0"/>
      <point x="322.0" y="607.2680135"/>
    </contour>
    <component base="a"/>
  </outline>
</glyph>
<glyph name="uni00EC" format="2">
  <advance width="290"/>
  <unicode hex="00EC"/>
  <outline>
    <contour>
      <point x="193.0272142340288" y="623.229893823254" type="line"/>
      <point x="117.02721423402879" y="545.229893823254" type="line"/>
      <point x="96.97278576597121" y="564.770106176746" type="line"/>
      <point x="172.9727857659712" y="642.770106176746" type="line"/>
    </contour>
    <component base="i"/>
  </outline>
</glyph>
<glyph name="uni00EE" format="2">
  <advance width="290"/>
  <unicode hex="00EE"/>
  <outline>
    <contour>
      <point x="76.41514191498086" y="581.1630114765837" type="line"/>
      <point x="134.41514191498086" y="648.1630114765837" type="line"/>
      <point x="155.58485808501914" y="629.8369885234163" type="line"/>
      <point x="97.58485808501914" y="562.8369885234163" type="line"/>
    </contour>
    <contour>
      <point x="155.58485808501914" y="648.1630114765837" type="line"/>
      <point x="213.58485808501914" y="581.1630114765837" type="line"/>
      <point x="192.41514191498086" y="562.8369885234163" type="line"/>
      <point x="134.41514191498086" y="629.8369885234163" type="line"/>
    </contour>
    <component base="i"/>
  </outline>
</glyph>
<glyph name="uni00F5" format="2">
  <advance width="540"/>
  <unicode hex="00F5"/>
  <outline>
    <contour>
      <point x="203.9715271789134" y="618.4692468872665" type="line"/>
      <point x="243.9715271789134" y="646.4692468872665" type="line"/>
      <point x="260.0284728210866" y="623.5307531127335" type="line"/>
      <point x="220.0284728210866" y="595.5307531127335" type="line"/>
    </contour>
    <contour>
      <point x="260.0284728210866" y="646.4692468872665" type="line"/>
      <point x="300.0284728210866" y="618.4692468872665" type="line"/>
      <point x="283.9715271789134" y="595.5307531127335" type="line"/>
      <point x="243.9715271789134" y="623.5307531127335" type="line"/>
    </contour>
    <contour>
      <point x="283.6952134673021" y="618.2707817229472" type="line"/>
      <point x="321.6952134673021" y="646.2707817229472" type="line"/>
      <point x="338.3047865326979" y="623.7292182770528" type="line"/>
      <point x="300.3047865326979" y="595.7292182770528" type="line"/>
    </contour>
    <component base="o"/>
  </outline>
</glyph>
<glyph name="uni00F7" format="2">
  <advance width="500"/>
  <unicode hex="00F7"/>
  <outline>
    <contour>
      <point x="100.0" y="320" type="line"/>
      <point x="400.0" y="320" type="line"/>
      <point x="400.0" y="368" type="line"/>
      <point x="100.0" y="368" type="line"/>
    </contour>
    <contour>
      <point x="274.0" y="500" type="curve" smooth="yes"/>
      <point x="274.0" y="513.254834"/>
      <point x="263.254834" y="524.0"/>
      <point x="250.0" y="524.0" type="curve" smooth="yes"/>
      <point x="236.745166" y="524.0"/>
      <point x="226.0" y="513.254834"/>
      <point x="226.0" y="500" type="curve" smooth="yes"/>
      <point x="226.0" y="486.745166"/>
      <point x="236.745166" y="476.0"/>
      <point x="250.0" y="476.0" type="curve" smooth="yes"/>
      <point x="263.254834" y="476.0"/>
      <point x="274.0" y="486.745166"/>
    </contour>
    <contour>
      <point x="274.0" y="140" type="curve" smooth="yes"/>
      <point x="274.0" y="153.254834"/>
      <point x="263.254834" y="164.0"/>
      <point x="250.0" y="164.0" type="curve" smooth="yes"/>
      <point x="236.745166" y="164.0"/>
      <point x="226.0" y="153.254834"/>
      <point x="226.0" y="140" type="curve" smooth="yes"/>
      <point x="226.0" y="126.745166"/>
      <point x="236.745166" y="116.0"/>
      <point x="250.0" y="116.0" type="curve" smooth="yes"/>
      <point x="263.254834" y="116.0"/>
      <point x="274.0" y="126.745166"/>
    </contour>
  </outline>
</glyph>
<glyph name="uni0105" format="2">
  <advance width="540"/>
  <unicode hex="0105"/>
  <outline>
    <contour>
      <point x="295.62007653748805" y="13.239369554862026" type="line"/>
      <point x="339.62007653748805" y="-171.76063044513796" type="line"/>
      <point x="312.37992346251195" y="-178.23936955486204" type="line"/>
      <point x="268.37992346251195" y="6.7606304451379735" type="line"/>
    </contour>
    <component base="a"/>
  </outline>
</glyph>
<glyph name="uni010B" format="2">
  <advance width="540"/>
  <unicode hex="010B"/>
  <outline>
    <contour>
      <point x="284.0" y="615" type="curve" smooth="yes"/>
      <point x="284.0" y="622.7319865"/>
      <point x="277.7319865" y="629.0"/>
      <point x="270.0" y="629.0" type="curve" smooth="yes"/>
      <point x="262.2680135" y="629.0"/>
      <point x="256.0" y="622.7319865"/>
      <point x="256.0" y="615" type="curve" smooth="yes"/>
      <point x="256.0" y="607.2680135"/>
      <point x="262.2680135" y="601.0"/>
      <point x="270.0" y="601.0" type="curve" smooth="yes"/>
      <point x="277.7319865" y="601.0"/>
      <point x="284.0" y="607.2680135"/>
    </contour>
    <component base="c"/>
  </outline>
</glyph>
<glyph name="uni0112" format="2">
  <advance width="540"/>
  <unicode hex="0112"/>
  <outline>
    <contour>
      <point x="202.0" y="746" type="line"/>
      <point x="338.0" y="746" type="line"/>
      <point x="338.0" y="774" type="line"/>
      <point x="202.0" y="774" type="line"/>
    </contour>
    <component base="E"/>
  </outline>
</glyph>
<glyph name="uni011B" format="2">
  <advance width="540"/>
  <unicode hex="011B"/>
  <outline>
    <contour>
      <point x="222.58485808501914" y="648.1630114765837" type="line"/>
      <point x="280.58485808501916" y="581.1630114765837" type="line"/>
      <point x="259.41514191498084" y="562.8369885234163" type="line"/>
      <point x="201.41514191498086" y="629.8369885234163" type="line"/>
    </contour>
    <contour>
      <point x="259.41514191498084" y="581.1630114765837" type="line"/>
      <point x="317.41514191498084" y="648.1630114765837" type="line"/>
      <point x="338.58485808501916" y="629.8369885234163" type="line"/>
      <point x="280.58485808501916" y="562.8369885234163" type="line"/>
    </contour>
    <component base="e"/>
  </outline>
</glyph>
<glyph name="uni0128" format="2">
  <advance width="290"/>
  <unicode hex="0128"/>
  <outline>
    <contour>
      <point x="83.0" y="754" type="line"/>
      <point x="107.0" y="780" type="line"/>
      <point x="131.0" y="780" type="line"/>
      <point x="155.0" y="754" type="line"/>
      <point x="179.0" y="754" type="line"/>
      <point x="207.0" y="780" type="line"/>
      <point x="207.0" y="763.76" type="line"/>
      <point x="179.0" y="737.76" type="line"/>
      <point x="155.0" y="737.76" type="line"/>
      <point x="131.0" y="763.76" type="line"/>
      <point x="107.0" y="763.76" type="line"/>
      <point x="83.0" y="737.76" type="line"/>
    </contour>
    <component base="I"/>
  </outline>
</glyph>
<glyph name="uni0129" format="2">
  <advance width="290"/>
  <unicode hex="0129"/>
  <outline>
    <contour>
      <point x="83.0" y="605" type="line"/>
      <point x="107.0" y="631" type="line"/>
      <point x="131.0" y="631" type="line"/>
      <point x="155.0" y="605" type="line"/>
      <point x="179.0" y="605" type="line"/>
      <point x="207.0" y="631" type="line"/>
      <point x="207.0" y="614.76" type="line"/>
      <point x="179.0" y="588.76" type="line"/>
      <point x="155.0" y="588.76" type="line"/>
      <point x="131.0" y="614.76" type="line"/>
      <point x="107.0" y="614.76" type="line"/>
      <point x="83.0" y="588.76" type="line"/>
    </contour>
    <component base="i"/>
  </outline>
</glyph>
<glyph name="uni012B" format="2">
  <advance width="290"/>
  <unicode hex="012B"/>
  <outline>
    <contour>
      <point x="77.0" y="597" type="line"/>
      <point x="213.0" y="597" type="line"/>
      <point x="213.0" y="625" type="line"/>
      <point x="77.0" y="625" type="line"/>
    </contour>
    <component base="i"/>
  </outline>
</glyph>
<glyph name="uni012C" format="2">
  <advance width="290"/>
  <unicode hex="012C"/>
  <outline>
    <contour>
      <point x="209.0" y="764" type="curve" smooth="yes"/>
      <point x="209.0" y="744.67003375"/>
      <point x="180.346224" y="729"/>
      <point x="145.0" y="729" type="curve" smooth="yes"/>
      <point x="109.653776" y="729"/>
      <point x="81.0" y="744.67003375"/>
      <point x="81.0" y="764" type="curve" smooth="yes"/>
      <point x="81.0" y="783.32996625"/>
      <point x="109.653776" y="799"/>
      <point x="145.0" y="799" type="curve" smooth="yes"/>
      <point x="180.346224" y="799"/>
      <point x="209.0" y="783.32996625"/>
    </contour>
    <contour>
      <point x="75.0" y="728" type="line"/>
      <point x="215.0" y="728" type="line"/>
      <point x="215.0" y="766" type="line"/>
      <point x="75.0" y="766" type="line"/>
    </contour>
    <component base="I"/>
  </outline>
</glyph>
<glyph name="uni012F" format="2">
  <advance width="290"/>
  <unicode hex="012F"/>
  <outline>
    <contour>
      <point x="170.62007653748807" y="13.239369554862026" type="line"/>
      <point x="214.62007653748807" y="-171.76063044513796" type="line"/>
      <point x="187.37992346251193" y="-178.23936955486204" type="line"/>
      <point x="143.37992346251193" y="6.7606304451379735" type="line"/>
    </contour>
    <component base="i"/>
  </outline>
</glyph>
<glyph name="uni0130" format="2">
  <advance width="290"/>
  <unicode hex="0130"/>
  <outline>
    <contour>
      <point x="159.0" y="764" type="curve" smooth="yes"/>
      <point x="159.0" y="771.7319865"/>
      <point x="152.7319865" y="778.0"/>
      <point x="145.0" y="778.0" type="curve" smooth="yes"/>
      <point x="137.2680135" y="778.0"/>
      <point x="131.0" y="771.7319865"/>
      <point x="131.0" y="764" type="curve" smooth="yes"/>
      <point x="131.0" y="756.2680135"/>
      <point x="137.2680135" y="750.0"/>
      <point x="145.0" y="750.0" type="curve" smooth="yes"/>
      <point x="152.7319865" y="750.0"/>
      <point x="159.0" y="756.2680135"/>
    </contour>
    <component base="I"/>
  </outline>
</glyph>
<glyph name="uni013C" format="2">
  <advance width="290"/>
  <unicode hex="013C"/>
  <outline>
    <contour>
      <point x="159.0" y="-105.0" type="curve" smooth="yes"/>
      <point x="159.0" y="-97.2680135"/>
      <point x="152.7319865" y="-91.0"/>
      <point x="145.0" y="-91.0" type="curve" smooth="yes"/>
      <point x="137.2680135" y="-91.0"/>
      <point x="131.0" y="-97.2680135"/>
      <point x="131.0" y="-105.0" type="curve" smooth="yes"/>
      <point x="131.0" y="-112.7319865"/>
      <point x="137.2680135" y="-119.0"/>
      <point x="145.0" y="-119.0" type="curve" smooth="yes"/>
      <point x="152.7319865" y="-119.0"/>
      <point x="159.0" y="-112.7319865"/>
    </contour>
    <contour>
      <point x="158.79729729655415" y="-14.3737285671491" type="line"/>
      <point x="126.79729729655415" y="-200.3737285671491" type="line"/>
      <point x="99.20270270344585" y="-195.6262714328509" type="line"/>
      <point x="131.20270270344585" y="-9.6262714328509" type="line"/>
    </contour>
    <component base="l"/>
  </outline>
</glyph>
<glyph name="uni013E" format="2">
  <advance width="290"/>
  <unicode hex="013E"/>
  <outline>
    <contour>
      <point x="97.58485808501914" y="648.1630114765837" type="line"/>
      <point x="155.58485808501914" y="581.1630114765837" type="line"/>
      <point x="134.41514191498086" y="562.8369885234163" type="line"/>
      <point x="76.41514191498086" y="629.8369885234163" type="line"/>
    </contour>
    <contour>
      <point x="134.41514191498086" y="581.1630114765837" type="line"/>
      <point x="192.41514191498086" y="648.1630114765837" type="line"/>
      <point x="213.58485808501914" y="629.8369885234163" type="line"/>
      <point x="155.58485808501914" y="562.8369885234163" type="line"/>
    </contour>
    <component base="l"/>
  </outline>
</glyph>
<glyph name="uni013F" format="2">
  <advance width="540"/>
  <unicode hex="013F"/>
  <outline>
    <contour>
      <point x="408.59999999999997" y="266.4" type="curve" smooth="yes"/>
      <point x="408.59999999999997" y="274.35290039999995"/>
      <point x="402.15290039999996" y="280.79999999999995"/>
      <point x="394.2" y="280.79999999999995" type="curve" smooth="yes"/>
      <point x="386.2470996" y="280.79999999999995"/>
      <point x="379.8" y="274.35290039999995"/>
      <point x="379.8" y="266.4" type="curve" smooth="yes"/>
      <point x="379.8" y="258.4470996"/>
      <point x="386.2470996" y="251.99999999999997"/>
      <point x="394.2" y="251.99999999999997" type="curve" smooth="yes"/>
      <point x="402.15290039999996" y="251.99999999999997"/>
      <point x="408.59999999999997" y="258.4470996"/>
    </contour>
    <component base="L"/>
  </outline>
</glyph>
<glyph name="uni0140" format="2">
  <advance width="290"/>
  <unicode hex="0140"/>
  <outline>
    <contour>
      <point x="226.1" y="266.4" type="curve" smooth="yes"/>
      <point x="226.1" y="274.35290039999995"/>
      <point x="219.6529004" y="280.79999999999995"/>
      <point x="211.7" y="280.79999999999995" type="curve" smooth="yes"/>
      <point x="203.74709959999998" y="280.79999999999995"/>
      <point x="197.29999999999998" y="274.35290039999995"/>
      <point x="197.29999999999998" y="266.4" type="curve" smooth="yes"/>
      <point x="197.29999999999998" y="258.4470996"/>
      <point x="203.74709959999998" y="251.99999999999997"/>
      <point x="211.7" y="251.99999999999997" type="curve" smooth="yes"/>
      <point x="219.6529004" y="251.99999999999997"/>
      <point x="226.1" y="258.4470996"/>
    </contour>
    <component base="l"/>
  </outline>
</glyph>
<glyph name="uni0142" format="2">
  <advance width="290"/>
  <unicode hex="0142"/>
  <outline>
    <contour>
      <point x="65.51403144594104" y="103.28009270213744" type="line"/>
      <point x="198.91403144594102" y="623.2800927021374" type="line"/>
      <point x="224.48596855405896" y="616.7199072978626" type="line"/>
      <point x="91.08596855405898" y="96.71990729786256" type="line"/>
    </contour>
    <component base="l"/>
  </outline>
</glyph>
<glyph name="uni0149" format="2">
  <advance width="540"/>
  <unicode hex="0149"/>
  <outline>
    <contour>
      <point x="158.20931045101761" y="564.328031592628" type="line"/>
      <point x="115.00931045101761" y="634.328031592628" type="line"/>
      <point x="133.39068954898238" y="645.671968407372" type="line"/>
      <point x="176.5906895489824" y="575.671968407372" type="line"/>
    </contour>
    <component base="n"/>
  </outline>
</glyph>
<glyph name="uni014C" format="2">
  <advance width="540"/>
  <unicode hex="014C"/>
  <outline>
    <contour>
      <point x="202.0" y="746" type="line"/>
      <point x="338.0" y="746" type="line"/>
      <point x="338.0" y="774" type="line"/>
      <point x="202.0" y="774" type="line"/>
    </contour>
    <component base="O"/>
  </outline>
</glyph>
<glyph name="uni014F" format="2">
  <advance width="540"/>
  <unicode hex="014F"/>
  <outline>
    <contour>
      <point x="334.0" y="615" type="curve" smooth="yes"/>
      <point x="334.0" y="595.67003375"/>
      <point x="305.346224" y="580"/>
      <point x="270.0" y="580" type="curve" smooth="yes"/>
      <point x="234.653776" y="580"/>
      <point x="206.0" y="595.67003375"/>
      <point x="206.0" y="615" type="curve" smooth="yes"/>
      <point x="206.0" y="634.32996625"/>
      <point x="234.653776" y="650"/>
      <point x="270.0" y="650" type="curve" smooth="yes"/>
      <point x="305.346224" y="650"/>
      <point x="334.0" y="634.32996625"/>
    </contour>
    <contour>
      <point x="200.0" y="579" type="line"/>
      <point x="340.0" y="579" type="line"/>
      <point x="340.0" y="617" type="line"/>
      <point x="200.0" y="617" type="line"/>
    </contour>
    <component base="o"/>
  </outline>
</glyph>
<glyph name="uni0163" format="2">
  <advance width="540"/>
  <unicode hex="0163"/>
  <outline>
    <contour>
      <point x="284.0" y="-105.0" type="curve" smooth="yes"/>
      <point x="284.0" y="-97.2680135"/>
      <point x="277.7319865" y="-91.0"/>
      <point x="270.0" y="-91.0" type="curve" smooth="yes"/>
      <point x="262.2680135" y="-91.0"/>
      <point x="256.0" y="-97.2680135"/>
      <point x="256.0" y="-105.0" type="curve" smooth="yes"/>
      <point x="256.0" y="-112.7319865"/>
      <point x="262.2680135" y="-119.0"/>
      <point x="270.0" y="-119.0" type="curve" smooth="yes"/>
      <point x="277.7319865" y="-119.0"/>
      <point x="284.0" y="-112.7319865"/>
    </contour>
    <contour>
      <point x="283.7972972965541" y="-14.3737285671491" type="line"/>
      <point x="251.79729729655415" y="-200.3737285671491" type="line"/>
      <point x="224.20270270344585" y="-195.6262714328509" type="line"/>
      <point x="256.2027027034459" y="-9.6262714328509" type="line"/>
    </contour>
    <component base="t"/>
  </outline>
</glyph>
<glyph name="uni0167" format="2">
  <advance width="540"/>
  <unicode hex="0167"/>
  <outline>
    <contour>
      <point x="133.88919366722737" y="105.68970056357831" type="line"/>
      <point x="382.2891936672274" y="625.6897005635783" type="line"/>
      <point x="406.1108063327726" y="614.3102994364217" type="line"/>
      <point x="157.71080633277265" y="94.31029943642169" type="line"/>
    </contour>
    <component base="t"/>
  </outline>
</glyph>
<glyph name="uni0168" format="2">
  <advance width="540"/>
  <unicode hex="0168"/>
  <outline>
    <contour>
      <point x="208.0" y="754" type="line"/>
      <point x="232.0" y="780" type="line"/>
      <point x="256.0" y="780" type="line"/>
      <point x="280.0" y="754" type="line"/>
      <point x="304.0" y="754" type="line"/>
      <point x="332.0" y="780" type="line"/>
      <point x="332.0" y="763.76" type="line"/>
      <point x="304.0" y="737.76" type="line"/>
      <point x="280.0" y="737.76" type="line"/>
      <point x="256.0" y="763.76" type="line"/>
      <point x="232.0" y="763.76" type="line"/>
      <point x="208.0" y="737.76" type="line"/>
    </contour>
    <component base="U"/>
  </outline>
</glyph>
<glyph name="uni016B" format="2">
  <advance width="540"/>
  <unicode hex="016B"/>
  <outline>
    <contour>
      <point x="202.0" y="597" type="line"/>
      <point x="338.0" y="597" type="line"/>
      <point x="338.0" y="625" type="line"/>
      <point x="202.0" y="625" type="line"/>
    </contour>
    <component base="u"/>
  </outline>
</glyph>
<glyph name="uni016E" format="2">
  <advance width="540"/>
  <unicode hex="016E"/>
  <outline>
    <contour>
      <point x="312.0" y="764" type="curve" smooth="yes"/>
      <point x="312.0" y="787.1959595"/>
      <point x="293.1959595" y="806"/>
      <point x="270.0" y="806" type="curve" smooth="yes"/>
      <point x="246.80404049999999" y="806"/>
      <point x="228.0" y="787.1959595"/>
      <point x="228.0" y="764" type="curve" smooth="yes"/>
      <point x="228.0" y="740.8040405"/>
      <point x="246.80404049999999" y="722"/>
      <point x="270.0" y="722" type="curve" smooth="yes"/>
      <point x="293.1959595" y="722"/>
      <point x="312.0" y="740.8040405"/>
    </contour>
    <contour>
      <point x="291.0" y="764" type="curve" smooth="yes"/>
      <point x="291.0" y="752.40202025"/>
      <point x="281.59797975" y="743"/>
      <point x="270.0" y="743" type="curve" smooth="yes"/>
      <point x="258.40202025" y="743"/>
      <point x="249.0" y="752.40202025"/>
      <point x="249.0" y="764" type="curve" smooth="yes"/>
      <point x="249.0" y="775.59797975"/>
      <point x="258.40202025" y="785"/>
      <point x="270.0" y="785" type="curve" smooth="yes"/>
      <point x="281.59797975" y="785"/>
      <point x="291.0" y="775.59797975"/>
    </contour>
    <component base="U"/>
  </outline>
</glyph>
<glyph name="uni0170" format="2">
  <advance width="540"/>
  <unicode hex="0170"/>
  <outline>
    <contour>
      <point x="203.53879536414314" y="729.0399495206757" type="line"/>
      <point x="250.53879536414314" y="796.0399495206757" type="line"/>
      <point x="273.46120463585686" y="779.9600504793243" type="line"/>
      <point x="226.46120463585686" y="712.9600504793243" type="line"/>
    </contour>
    <contour>
      <point x="266.53879536414314" y="729.0399495206757" type="line"/>
      <point x="313.53879536414314" y="796.0399495206757" type="line"/>
      <point x="336.46120463585686" y="779.9600504793243" type="line"/>
      <point x="289.46120463585686" y="712.9600504793243" type="line"/>
    </contour>
    <component base="U"/>
  </outline>
</glyph>
<glyph name="uni0171" format="2">
  <advance width="540"/>
  <unicode hex="0171"/>
  <outline>
    <contour>
      <point x="203.53879536414314" y="580.0399495206757" type="line"/>
      <point x="250.53879536414314" y="647.0399495206757" type="line"/>
      <point x="273.46120463585686" y="630.9600504793243" type="line"/>
      <point x="226.46120463585686" y="563.9600504793243" type="line"/>
    </contour>
    <contour>
      <point x="266.53879536414314" y="580.0399495206757" type="line"/>
      <point x="313.53879536414314" y="647.0399495206757" type="line"/>
      <point x="336.46120463585686" y="630.9600504793243" type="line"/>
      <point x="289.46120463585686" y="563.9600504793243" type="line"/>
    </contour>
    <component base="u"/>
  </outline>
</glyph>
<glyph name="uni0174" format="2">
  <advance width="600"/>
  <unicode hex="0174"/>
  <outline>
    <contour>
      <point x="231.41514191498086" y="730.1630114765837" type="line"/>
      <point x="289.41514191498084" y="797.1630114765837" type="line"/>
      <point x="310.58485808501916" y="778.8369885234163" type="line"/>
      <point x="252.58485808501914" y="711.8369885234163" type="line"/>
    </contour>
    <contour>
      <point x="310.58485808501916" y="797.1630114765837" type="line"/>
      <point x="368.58485808501916" y="730.1630114765837" type="line"/>
      <point x="347.41514191498084" y="711.8369885234163" type="line"/>
      <point x="289.41514191498084" y="778.8369885234163" type="line"/>
    </contour>
    <component base="W"/>
  </outline>
</glyph>
<glyph name="uni0175" format="2">
  <advance width="600"/>
  <unicode hex="0175"/>
  <outline>
    <contour>
      <point x="231.41514191498086" y="581.1630114765837" type="line"/>
      <point x="289.41514191498084" y="648.1630114765837" type="line"/>
      <point x="310.58485808501916" y="629.8369885234163" type="line"/>
      <point x="252.58485808501914" y="562.8369885234163" type="line"/>
    </contour>
    <contour>
      <point x="310.58485808501916" y="648.1630114765837" type="line"/>
      <point x="368.58485808501916" y="581.1630114765837" type="line"/>
      <point x="347.41514191498084" y="562.8369885234163" type="line"/>
      <point x="289.41514191498084" y="629.8369885234163" type="line"/>
    </contour>
    <component base="w"/>
  </outline>
</glyph>
<glyph name="uni0176" format="2">
  <advance width="540"/>
  <unicode hex="0176"/>
  <outline>
    <contour>
      <point x="201.41514191498086" y="730.1630114765837" type="line"/>
      <point x="259.41514191498084" y="797.1630114765837" type="line"/>
      <point x="280.58485808501916" y="778.8369885234163" type="line"/>
      <point x="222.58485808501914" y="711.8369885234163" type="line"/>
    </contour>
    <contour>
      <point x="280.58485808501916" y="797.1630114765837" type="line"/>
      <point x="338.58485808501916" y="730.1630114765837" type="line"/>
      <point x="317.41514191498084" y="711.8369885234163" type="line"/>
      <point x="259.41514191498084" y="778.8369885234163" type="line"/>
    </contour>
    <component base="Y"/>
  </outline>
</glyph>
<glyph name="uni017B" format="2">
  <advance width="540"/>
  <unicode hex="017B"/>
  <outline>
    <contour>
      <point x="284.0" y="764" type="curve" smooth="yes"/>
      <point x="284.0" y="771.7319865"/>
      <point x="277.7319865" y="778.0"/>
      <point x="270.0" y="778.0" type="curve" smooth="yes"/>
      <point x="262.2680135" y="778.0"/>
      <point x="256.0" y="771.7319865"/>
      <point x="256.0" y="764" type="curve" smooth="yes"/>
      <point x="256.0" y="756.2680135"/>
      <point x="262.2680135" y="750.0"/>
      <point x="270.0" y="750.0" type="curve" smooth="yes"/>
      <point x="277.7319865" y="750.0"/>
      <point x="284.0" y="756.2680135"/>
    </contour>
    <component base="Z"/>
  </outline>
</glyph>
<glyph name="uni01A1" format="2">
  <advance width="540"/>
  <unicode hex="01A1"/>
  <outline>
    <contour>
      <point x="332.0" y="603" type="line"/>
      <point x="354.0" y="611" type="line"/>
      <point x="386.0" y="645" type="line"/>
      <point x="373.4" y="645" type="line"/>
      <point x="337.4" y="617" type="line"/>
      <point x="332.0" y="590.4" type="line"/>
    </contour>
    <component base="o"/>
  </outline>
</glyph>
<glyph name="uni01AF" format="2">
  <advance width="540"/>
  <unicode hex="01AF"/>
  <outline>
    <contour>
      <point x="332.0" y="752" type="line"/>
      <point x="354.0" y="760" type="line"/>
      <point x="386.0" y="794" type="line"/>
      <point x="373.4" y="794" type="line"/>
      <point x="337.4" y="766" type="line"/>
      <point x="332.0" y="739.4" type="line"/>
    </contour>
    <component base="U"/>
  </outline>
</glyph>
<glyph name="uni01B0" format="2">
  <advance width="540"/>
  <unicode hex="01B0"/>
  <outline>
    <contour>
      <point x="332.0" y="603" type="line"/>
      <point x="354.0" y="611" type="line"/>
      <point x="386.0" y="645" type="line"/>
      <point x="373.4" y="645" type="line"/>
      <point x="337.4" y="617" type="line"/>
      <point x="332.0" y="590.4" type="line"/>
    </contour>
    <component base="u"/>
  </outline>
</glyph>
<glyph name="uni0219" format="2">
  <advance width="540"/>
  <unicode hex="0219"/>
  <outline>
    <contour>
      <point x="284.0" y="-105.0" type="curve" smooth="yes"/>
      <point x="284.0" y="-97.2680135"/>
      <point x="277.7319865" y="-91.0"/>
      <point x="270.0" y="-91.0" type="curve" smooth="yes"/>
      <point x="262.2680135" y="-91.0"/>
      <point x="256.0" y="-97.2680135"/>
      <point x="256.0" y="-105.0" type="curve" smooth="yes"/>
      <point x="256.0" y="-112.7319865"/>
      <point x="262.2680135" y="-119.0"/>
      <point x="270.0" y="-119.0" type="curve" smooth="yes"/>
      <point x="277.7319865" y="-119.0"/>
      <point x="284.0" y="-112.7319865"/>
    </contour>
    <contour>
      <point x="287.88489013287636" y="-13.791598726822755" type="line"/>
      <point x="263.88489013287636" y="-199.79159872682277" type="line"/>
      <point x="236.11510986712364" y="-196.20840127317723" type="line"/>
      <point x="260.11510986712364" y="-10.208401273177245" type="line"/>
    </contour>
    <component base="s"/>
  </outline>
</glyph>
<glyph name="uni038E" format="2">
  <advance width="540"/>
  <unicode hex="038E"/>
  <outline>
    <contour>
      <point x="221.9727857659712" y="713.770106176746" type="line"/>
      <point x="297.9727857659712" y="791.770106176746" type="line"/>
      <point x="318.0272142340288" y="772.229893823254" type="line"/>
      <point x="242.0272142340288" y="694.229893823254" type="line"/>
    </contour>
    <component base="Y"/>
  </outline>
</glyph>
<glyph name="uni038F" format="2">
  <advance width="500"/>
  <unicode hex="038F"/>
  <outline>
    <contour>
      <point x="71.44" y="0" type="curve"/>
      <point x="156.56" y="0" type="line"/>
      <point x="163.98270704" y="0"/>
      <point x="170" y="6.017292960000001"/>
      <point x="170" y="13.440000000000001" type="curve"/>
      <point x="170" y="34.56" type="line"/>
      <point x="170" y="41.98270704"/>
      <point x="163.98270704" y="48"/>
      <point x="156.56" y="48" type="curve"/>
      <point x="71.44" y="48" type="line"/>
      <point x="64.01729295999999" y="48"/>
      <point x="58" y="41.98270704"/>
      <point x="58" y="34.56" type="curve"/>
      <point x="58" y="13.440000000000001" type="line"/>
      <point x="58" y="6.017292960000001"/>
      <point x="64.01729295999999" y="0"/>
    </contour>
    <contour>
      <point x="343.44" y="0" type="curve"/>
      <point x="428.56" y="0" type="line"/>
      <point x="435.98270704" y="0"/>
      <point x="442" y="6.017292960000001"/>
      <point x="442" y="13.440000000000001" type="curve"/>
      <point x="442" y="34.56" type="line"/>
      <point x="442" y="41.98270704"/>
      <point x="435.98270704" y="48"/>
      <point x="428.56" y="48" type="curve"/>
      <point x="343.44" y="48" type="line"/>
      <point x="336.01729296" y="48"/>
      <point x="330" y="41.98270704"/>
      <point x="330" y="34.56" type="curve"/>
      <point x="330" y="13.440000000000001" type="line"/>
      <point x="330" y="6.017292960000001"/>
      <point x="336.01729296" y="0"/>
    </contour>
    <contour>
      <point x="92" y="44" type="line"/>
      <point x="38" y="190"/>
      <point x="68" y="708"/>
      <point x="250" y="708" type="curve"/>
      <point x="432" y="708"/>
      <point x="462" y="190"/>
      <point x="408" y="44" type="curve"/>
      <point x="344" y="44" type="line"/>
      <point x="384" y="172"/>
      <point x="360" y="642"/>
      <point x="250" y="642" type="curve"/>
      <point x="140" y="642"/>
      <point x="116" y="172"/>
      <point x="156" y="44" type="curve"/>
    </contour>
    <contour>
      <point x="18" y="0" type="line"/>
      <point x="138" y="0" type="line"/>
      <point x="138" y="20" type="line"/>
      <point x="18" y="20" type="line"/>
    </contour>
    <contour>
      <point x="18" y="680" type="line"/>
      <point x="138" y="680" type="line"/>
      <point x="138" y="700" type="line"/>
      <point x="18" y="700" type="line"/>
    </contour>
    <contour>
      <point x="362" y="0" type="line"/>
      <point x="482" y="0" type="line"/>
      <point x="482" y="20" type="line"/>
      <point x="362" y="20" type="line"/>
    </contour>
    <contour>
      <point x="362" y="680" type="line"/>
      <point x="482" y="680" type="line"/>
      <point x="482" y="700" type="line"/>
      <point x="362" y="700" type="line"/>
    </contour>
    <contour>
      <point x="201.9727857659712" y="713.770106176746" type="line"/>
      <point x="277.9727857659712" y="791.770106176746" type="line"/>
      <point x="298.0272142340288" y="772.229893823254" type="line"/>
      <point x="222.0272142340288" y="694.229893823254" type="line"/>
    </contour>
  </outline>
</glyph>
<glyph name="uni0390" format="2">
  <advance width="290"/>
  <unicode hex="0390"/>
  <outline>
    <contour>
      <point x="121.0" y="615" type="curve"/>
      <point x="121.0" y="622.7319865"/>
      <point x="114.7319865" y="629.0"/>
      <point x="107.0" y="629.0" type="curve"/>
      <point x="99.2680135" y="629.0"/>
      <point x="93.0" y="622.7319865"/>
      <point x="93.0" y="615" type="curve"/>
      <point x="93.0" y="607.2680135"/>
      <point x="99.2680135" y="601.0"/>
      <point x="107.0" y="601.0" type="curve"/>
      <point x="114.7319865" y="601.0"/>
      <point x="121.0" y="607.2680135"/>
    </contour>
    <contour>
      <point x="197.0" y="615" type="curve"/>
      <point x="197.0" y="622.7319865"/>
      <point x="190.7319865" y="629.0"/>
      <point x="183.0" y="629.0" type="curve"/>
      <point x="175.2680135" y="629.0"/>
      <point x="169.0" y="622.7319865"/>
      <point x="169.0" y="615" type="curve"/>
      <point x="169.0" y="607.2680135"/>
      <point x="175.2680135" y="601.0"/>
      <point x="183.0" y="601.0" type="curve"/>
      <point x="190.7319865" y="601.0"/>
      <point x="197.0" y="607.2680135"/>
    </contour>
    <contour>
      <point x="96.97278576597121" y="564.770106176746" type="line"/>
      <point x="172.9727857659712" y="642.770106176746" type="line"/>
      <point x="193.0272142340288" y="623.229893823254" type="line"/>
      <point x="117.02721423402879" y="545.229893823254" type="line"/>
    </contour>
    <component base="i"/>
  </outline>
</glyph>
<glyph name="uni0393" format="2">
  <advance width="500"/>
  <unicode hex="0393"/>
  <outline>
    <contour>
      <point x="71.44" y="0" type="curve"/>
      <point x="92.56" y="0" type="line"/>
      <point x="99.98270704000001" y="0"/>
      <point x="106" y="6.017292960000001"/>
      <point x="106" y="13.440000000000001" type="curve"/>
      <point x="106" y="686.56" type="line"/>
      <point x="106" y="693.9827070399999"/>
      <point x="99.98270704000001" y="700"/>
      <point x="92.56" y="700" type="curve"/>
      <point x="71.44" y="700" type="line"/>
      <point x="64.01729295999999" y="700"/>
      <point x="58" y="693.9827070399999"/>
      <point x="58" y="686.56" type="curve"/>
      <point x="58" y="13.440000000000001" type="line"/>
      <point x="58" y="6.017292960000001"/>
      <point x="64.01729295999999" y="0"/>
    </contour>
    <contour>
      <point x="58" y="652" type="line"/>
      <point x="408" y="652" type="line"/>
      <point x="408" y="700" type="line"/>
      <point x="58" y="700" type="line"/>
    </contour>
    <contour>
      <point x="18" y="0" type="line"/>
      <point x="138" y="0" type="line"/>
      <point x="138" y="20" type="line"/>
      <point x="18" y="20" type="line"/>
    </contour>
    <contour>
      <point x="18" y="680" type="line"/>
      <point x="138" y="680" type="line"/>
      <point x="138" y="700" type="line"/>
      <point x="18" y="700" type="line"/>
    </contour>
    <contour>
      <point x="362" y="0" type="line"/>
      <point x="482" y="0" type="line"/>
      <point x="482" y="20" type="line"/>
      <point x="362" y="20" type="line"/>
    </contour>
    <contour>
      <point x="362" y="680" type="line"/>
      <point x="482" y="680" type="line"/>
      <point x="482" y="700" type="line"/>
      <point x="362" y="700" type="line"/>
    </contour>
  </outline>
</glyph>
<glyph name="uni0394" format="2">
  <advance width="500"/>
  <unicode hex="0394"/>
  <outline>
    <contour>
      <point x="44.77225983708147" y="6.039212442358817" type="line"/>
      <point x="226.77225983708146" y="706.0392124423588" type="line"/>
      <point x="273.2277401629185" y="693.9607875576412" type="line"/>
      <point x="91.22774016291854" y="-6.039212442358817" type="line"/>
    </contour>
    <contour>
      <point x="408.7722598370815" y="-6.039212442358817" type="line"/>
      <point x="226.77225983708146" y="693.9607875576412" type="line"/>
      <point x="273.2277401629185" y="706.0392124423588" type="line"/>
      <point x="455.2277401629185" y="6.039212442358817" type="line"/>
    </contour>
    <contour>
      <point x="85.44" y="0" type="curve"/>
      <point x="414.56" y="0" type="line"/>
      <point x="421.98270704" y="0"/>
      <point x="428" y="6.017292960000001"/>
      <point x="428" y="13.440000000000001" type="curve"/>
      <point x="428" y="34.56" type="line"/>
      <point x="428" y="41.98270704"/>
      <point x="421.98270704" y="48"/>
      <point x="414.56" y="48" type="curve"/>
      <point x="85.44" y="48" type="line"/>
      <point x="78.01729295999999" y="48"/>
      <point x="72" y="41.98270704"/>
      <point x="72" y="34.56" type="curve"/>
      <point x="72" y="13.440000000000001" type="line"/>
      <point x="72" y="6.017292960000001"/>
      <point x="78.01729295999999" y="0"/>
    </contour>
    <contour>
      <point x="18" y="0" type="line"/>
      <point x="138" y="0" type="line"/>
      <point x="138" y="20" type="line"/>
      <point x="18" y="20" type="line"/>
    </contour>
    <contour>
      <point x="18" y="680" type="line"/>
      <point x="138" y="680" type="line"/>
      <point x="138" y="700" type="line"/>
      <point x="18" y="700" type="line"/>
    </contour>
    <contour>
      <point x="362" y="0" type="line"/>
      <point x="482" y="0" type="line"/>
      <point x="482" y="20" type="line"/>
      <point x="362" y="20" type="line"/>
    </contour>
    <contour>
      <point x="362" y="680" type="line"/>
      <point x="482" y="680" type="line"/>
      <point x="482" y="700" type="line"/>
      <point x="362" y="700" type="line"/>
    </contour>
  </outline>
</glyph>
<glyph name="uni039B" format="2">
  <advance width="500"/>
  <unicode hex="039B"/>
  <outline>
    <contour>
      <point x="44.77225983708147" y="6.039212442358817" type="line"/>
      <point x="226.77225983708146" y="706.0392124423588" type="line"/>
      <point x="273.2277401629185" y="693.9607875576412" type="line"/>
      <point x="91.22774016291854" y="-6.039212442358817" type="line"/>
    </contour>
    <contour>
      <point x="408.7722598370815" y="-6.039212442358817" type="line"/>
      <point x="226.77225983708146" y="693.9607875576412" type="line"/>
      <point x="273.2277401629185" y="706.0392124423588" type="line"/>
      <point x="455.2277401629185" y="6.039212442358817" type="line"/>
    </contour>
    <contour>
      <point x="18" y="0" type="line"/>
      <point x="138" y="0" type="line"/>
      <point x="138" y="20" type="line"/>
      <point x="18" y="20" type="line"/>
    </contour>
    <contour>
      <point x="18" y="680" type="line"/>
      <point x="138" y="680" type="line"/>
      <point x="138" y="700" type="line"/>
      <point x="18" y="700" type="line"/>
    </contour>
    <contour>
      <point x="362" y="0" type="line"/>
      <point x="482" y="0" type="line"/>
      <point x="482" y="20" type="line"/>
      <point x="362" y="20" type="line"/>
    </contour>
    <contour>
      <point x="362" y="680" type="line"/>
      <point x="482" y="680" type="line"/>
      <point x="482" y="700" type="line"/>
      <point x="362" y="700" type="line"/>
    </contour>
  </outline>
</glyph>
<glyph name="uni03A0" format="2">
  <advance width="500"/>
  <unicode hex="03A0"/>
  <outline>
    <contour>
      <point x="73.44" y="0" type="curve"/>
      <point x="94.56" y="0" type="line"/>
      <point x="101.98270704000001" y="0"/>
      <point x="108" y="6.017292960000001"/>
      <point x="108" y="13.440000000000001" type="curve"/>
      <point x="108" y="686.56" type="line"/>
      <point x="108" y="693.9827070399999"/>
      <point x="101.98270704000001" y="700"/>
      <point x="94.56" y="700" type="curve"/>
      <point x="73.44" y="700" type="line"/>
      <point x="66.01729295999999" y="700"/>
      <point x="60" y="693.9827070399999"/>
      <point x="60" y="686.56" type="curve"/>
      <point x="60" y="13.440000000000001" type="line"/>
      <point x="60" y="6.017292960000001"/>
      <point x="66.01729295999999" y="0"/>
    </contour>
    <contour>
      <point x="389.44" y="0" type="curve"/>
      <point x="410.56" y="0" type="line"/>
      <point x="417.98270704" y="0"/>
      <point x="424" y="6.017292960000001"/>
      <point x="424" y="13.440000000000001" type="curve"/>
      <point x="424" y="686.56" type="line"/>
      <point x="424" y="693.9827070399999"/>
      <point x="417.98270704" y="700"/>
      <point x="410.56" y="700" type="curve"/>
      <point x="389.44" y="700" type="line"/>
      <point x="382.01729296" y="700"/>
      <point x="376" y="693.9827070399999"/>
      <point x="376" y="686.56" type="curve"/>
      <point x="376" y="13.440000000000001" type="line"/>
      <point x="376" y="6.017292960000001"/>
      <point x="382.01729296" y="0"/>
    </contour>
    <contour>
      <point x="60" y="652" type="line"/>
      <point x="440" y="652" type="line"/>
      <point x="440" y="700" type="line"/>
      <point x="60" y="700" type="line"/>
    </contour>
    <contour>
      <point x="18" y="0" type="line"/>
      <point x="138" y="0" type="line"/>
      <point x="138" y="20" type="line"/>
      <point x="18" y="20" type="line"/>
    </contour>
    <contour>
      <point x="18" y="680" type="line"/>
      <point x="138" y="680" type="line"/>
      <point x="138" y="700" type="line"/>
      <point x="18" y="700" type="line"/>
    </contour>
    <contour>
      <point x="362" y="0" type="line"/>
      <point x="482" y="0" type="line"/>
      <point x="482" y="20" type="line"/>
      <point x="362" y="20" type="line"/>
    </contour>
    <contour>
      <point x="362" y="680" type="line"/>
      <point x="482" y="680" type="line"/>
      <point x="482" y="700" type="line"/>
      <point x="362" y="700" type="line"/>
    </contour>
  </outline>
</glyph>
<glyph name="uni03A3" format="2">
  <advance width="500"/>
  <unicode hex="03A3"/>
  <outline>
    <contour>
      <point x="95.44" y="652" type="curve"/>
      <point x="408.56" y="652" type="line"/>
      <point x="415.98270704" y="652"/>
      <point x="422" y="658.0172929600001"/>
      <point x="422" y="665.44" type="curve"/>
      <point x="422" y="686.56" type="line"/>
      <point x="422" y="693.9827070399999"/>
      <point x="415.98270704" y="700"/>
      <point x="408.56" y="700" type="curve"/>
      <point x="95.44" y="700" type="line"/>
      <point x="88.01729295999999" y="700"/>
      <point x="82" y="693.9827070399999"/>
      <point x="82" y="686.56" type="curve"/>
      <point x="82" y="665.44" type="line"/>
      <point x="82" y="658.0172929600001"/>
      <point x="88.01729295999999" y="652"/>
    </contour>
    <contour>
      <point x="417.10111620723717" y="661.4690895110588" type="line"/>
      <point x="169.1011162072372" y="335.4690895110588" type="line"/>
      <point x="130.8988837927628" y="364.5309104889412" type="line"/>
      <point x="378.89888379276283" y="690.5309104889412" type="line"/>
    </contour>
    <contour>
      <point x="169.1011162072372" y="364.5309104889412" type="line"/>
      <point x="417.10111620723717" y="38.530910488941174" type="line"/>
      <point x="378.89888379276283" y="9.469089511058824" type="line"/>
      <point x="130.8988837927628" y="335.4690895110588" type="line"/>
    </contour>
    <contour>
      <point x="95.44" y="0" type="curve"/>
      <point x="408.56" y="0" type="line"/>
      <point x="415.98270704" y="0"/>
      <point x="422" y="6.017292960000001"/>
      <point x="422" y="13.440000000000001" type="curve"/>
      <point x="422" y="34.56" type="line"/>
      <point x="422" y="41.98270704"/>
      <point x="415.98270704" y="48"/>
      <point x="408.56" y="48" type="curve"/>
      <point x="95.44" y="48" type="line"/>
      <point x="88.01729295999999" y="48"/>
      <point x="82" y="41.98270704"/>
      <point x="82" y="34.56" type="curve"/>
      <point x="82" y="13.440000000000001" type="line"/>
      <point x="82" y="6.017292960000001"/>
      <point x="88.01729295999999" y="0"/>
    </contour>
    <contour>
      <point x="18" y="0" type="line"/>
      <point x="138" y="0" type="line"/>
      <point x="138" y="20" type="line"/>
      <point x="18" y="20" type="line"/>
    </contour>
    <contour>
      <point x="18" y="680" type="line"/>
      <point x="138" y="680" type="line"/>
      <point x="138" y="700" type="line"/>
      <point x="18" y="700" type="line"/>
    </contour>
    <contour>
      <point x="362" y="0" type="line"/>
      <point x="482" y="0" type="line"/>
      <point x="482" y="20" type="line"/>
      <point x="362" y="20" type="line"/>
    </contour>
    <contour>
      <point x="362" y="680" type="line"/>
      <point x="482" y="680" type="line"/>
      <point x="482" y="700" type="line"/>
      <point x="362" y="700" type="line"/>
    </contour>
  </outline>
</glyph>
<glyph name="uni03A6" format="2">
  <advance width="500"/>
  <unicode hex="03A6"/>
  <outline>
    <contour>
      <point x="428" y="350.0" type="curve"/>
      <point x="428" y="488.0711875"/>
      <point x="348.3066855" y="600.0"/>
      <point x="250" y="600.0" type="curve"/>
      <point x="151.69331449999999" y="600.0"/>
      <point x="72" y="488.0711875"/>
      <point x="72" y="350.0" type="curve"/>
      <point x="72" y="211.9288125"/>
      <point x="151.69331449999999" y="100.0"/>
      <point x="250" y="100.0" type="curve"/>
      <point x="348.3066855" y="100.0"/>
      <point x="428" y="211.9288125"/>
    </contour>
    <contour>
      <point x="380" y="350.0" type="curve"/>
      <point x="380" y="238.4384805"/>
      <point x="321.7970175" y="148.0"/>
      <point x="250" y="148.0" type="curve"/>
      <point x="178.20298250000002" y="148.0"/>
      <point x="120" y="238.4384805"/>
      <point x="120" y="350.0" type="curve"/>
      <point x="120" y="461.56151950000003"/>
      <point x="178.20298250000002" y="552.0"/>
      <point x="250" y="552.0" type="curve"/>
      <point x="321.7970175" y="552.0"/>
      <point x="380" y="461.56151950000003"/>
    </contour>
    <contour>
      <point x="239.44" y="-56" type="curve"/>
      <point x="260.56" y="-56" type="line"/>
      <point x="267.98270704" y="-56"/>
      <point x="274.0" y="-49.98270704"/>
      <point x="274.0" y="-42.56" type="curve"/>
      <point x="274.0" y="742.56" type="line"/>
      <point x="274.0" y="749.9827070399999"/>
      <point x="267.98270704" y="756"/>
      <point x="260.56" y="756" type="curve"/>
      <point x="239.44" y="756" type="line"/>
      <point x="232.01729296" y="756"/>
      <point x="226.0" y="749.9827070399999"/>
      <point x="226.0" y="742.56" type="curve"/>
      <point x="226.0" y="-42.56" type="line"/>
      <point x="226.0" y="-49.98270704"/>
      <point x="232.01729296" y="-56"/>
    </contour>
    <contour>
      <point x="18" y="0" type="line"/>
      <point x="138" y="0" type="line"/>
      <point x="138" y="20" type="line"/>
      <point x="18" y="20" type="line"/>
    </contour>
    <contour>
      <point x="18" y="680" type="line"/>
      <point x="138" y="680" type="line"/>
      <point x="138" y="700" type="line"/>
      <point x="18" y="700" type="line"/>
    </contour>
    <contour>
      <point x="362" y="0" type="line"/>
      <point x="482" y="0" type="line"/>
      <point x="482" y="20" type="line"/>
      <point x="362" y="20" type="line"/>
    </contour>
    <contour>
      <point x="362" y="680" type="line"/>
      <point x="482" y="680" type="line"/>
      <point x="482" y="700" type="line"/>
      <point x="362" y="700" type="line"/>
    </contour>
  </outline>
</glyph>
<glyph name="uni03A8" format="2">
  <advance width="500"/>
  <unicode hex="03A8"/>
  <outline>
    <contour>
      <point x="428" y="478" type="curve"/>
      <point x="428" y="575.202116"/>
      <point x="348.3066855" y="654"/>
      <point x="250" y="654" type="curve"/>
      <point x="151.69331449999999" y="654"/>
      <point x="72" y="575.202116"/>
      <point x="72" y="478" type="curve"/>
      <point x="72" y="380.797884"/>
      <point x="151.69331449999999" y="302"/>
      <point x="250" y="302" type="curve"/>
      <point x="348.3066855" y="302"/>
      <point x="428" y="380.797884"/>
    </contour>
    <contour>
      <point x="380" y="478" type="curve"/>
      <point x="380" y="407.307552"/>
      <point x="321.7970175" y="350"/>
      <point x="250" y="350" type="curve"/>
      <point x="178.20298250000002" y="350"/>
      <point x="120" y="407.307552"/>
      <point x="120" y="478" type="curve"/>
      <point x="120" y="548.692448"/>
      <point x="178.20298250000002" y="606"/>
      <point x="250" y="606" type="curve"/>
      <point x="321.7970175" y="606"/>
      <point x="380" y="548.692448"/>
    </contour>
    <contour>
      <point x="239.44" y="0" type="curve"/>
      <point x="260.56" y="0" type="line"/>
      <point x="267.98270704" y="0"/>
      <point x="274.0" y="6.017292960000001"/>
      <point x="274.0" y="13.440000000000001" type="curve"/>
      <point x="274.0" y="456.56" type="line"/>
      <point x="274.0" y="463.98270704"/>
      <point x="267.98270704" y="470"/>
      <point x="260.56" y="470" type="curve"/>
      <point x="239.44" y="470" type="line"/>
      <point x="232.01729296" y="470"/>
      <point x="226.0" y="463.98270704"/>
      <point x="226.0" y="456.56" type="curve"/>
      <point x="226.0" y="13.440000000000001" type="line"/>
      <point x="226.0" y="6.017292960000001"/>
      <point x="232.01729296" y="0"/>
    </contour>
    <contour>
      <point x="18" y="0" type="line"/>
      <point x="138" y="0" type="line"/>
      <point x="138" y="20" type="line"/>
      <point x="18" y="20" type="line"/>
    </contour>
    <contour>
      <point x="18" y="680" type="line"/>
      <point x="138" y="680" type="line"/>
      <point x="138" y="700" type="line"/>
      <point x="18" y="700" type="line"/>
    </contour>
    <contour>
      <point x="362" y="0" type="line"/>
      <point x="482" y="0" type="line"/>
      <point x="482" y="20" type="line"/>
      <point x="362" y="20" type="line"/>
    </contour>
    <contour>
      <point x="362" y="680" type="line"/>
      <point x="482" y="680" type="line"/>
      <point x="482" y="700" type="line"/>
      <point x="362" y="700" type="line"/>
    </contour>
  </outline>
</glyph>
<glyph name="uni03AC" format="2">
  <advance width="500"/>
  <unicode hex="03AC"/>
  <outline>
    <contour>
      <point x="359" y="246" type="curve"/>
      <point x="359" y="381.8620485"/>
      <point x="294.08128875" y="492"/>
      <point x="214" y="492" type="curve"/>
      <point x="133.91871125" y="492"/>
      <point x="69" y="381.8620485"/>
      <point x="69" y="246" type="curve"/>
      <point x="69" y="110.13795150000001"/>
      <point x="133.91871125" y="0"/>
      <point x="214" y="0" type="curve"/>
      <point x="294.08128875" y="0"/>
      <point x="359" y="110.13795150000001"/>
    </contour>
    <contour>
      <point x="311" y="246" type="curve"/>
      <point x="311" y="136.64761950000002"/>
      <point x="267.57162075" y="48"/>
      <point x="214" y="48" type="curve"/>
      <point x="160.42837925" y="48"/>
      <point x="117" y="136.64761950000002"/>
      <point x="117" y="246" type="curve"/>
      <point x="117" y="355.3523805"/>
      <point x="160.42837925" y="444"/>
      <point x="214" y="444" type="curve"/>
      <point x="267.57162075" y="444"/>
      <point x="311" y="355.3523805"/>
    </contour>
    <contour>
      <point x="378.44" y="0" type="curve"/>
      <point x="399.56" y="0" type="line"/>
      <point x="406.98270704" y="0"/>
      <point x="413" y="6.017292960000001"/>
      <point x="413" y="13.440000000000001" type="curve"/>
      <point x="413" y="541.56" type="line"/>
      <point x="413" y="548.9827070399999"/>
      <point x="406.98270704" y="555"/>
      <point x="399.56" y="555" type="curve"/>
      <point x="378.44" y="555" type="line"/>
      <point x="371.01729296" y="555"/>
      <point x="365" y="548.9827070399999"/>
      <point x="365" y="541.56" type="curve"/>
      <point x="365" y="13.440000000000001" type="line"/>
      <point x="365" y="6.017292960000001"/>
      <point x="371.01729296" y="0"/>
    </contour>
    <contour>
      <point x="365" y="0" type="line"/>
      <point x="430" y="0" type="line"/>
      <point x="430" y="48" type="line"/>
      <point x="365" y="48" type="line"/>
    </contour>
    <contour>
      <point x="38" y="0" type="line"/>
      <point x="138" y="0" type="line"/>
      <point x="138" y="20" type="line"/>
      <point x="38" y="20" type="line"/>
    </contour>
    <contour>
      <point x="362" y="0" type="line"/>
      <point x="462" y="0" type="line"/>
      <point x="462" y="20" type="line"/>
      <point x="362" y="20" type="line"/>
    </contour>
    <contour>
      <point x="201.9727857659712" y="564.770106176746" type="line"/>
      <point x="277.9727857659712" y="642.770106176746" type="line"/>
      <point x="298.0272142340288" y="623.229893823254" type="line"/>
      <point x="222.0272142340288" y="545.229893823254" type="line"/>
    </contour>
  </outline>
</glyph>
<glyph name="uni03AE" format="2">
  <advance width="500"/>
  <unicode hex="03AE"/>
  <outline>
    <contour>
      <point x="73.44" y="0" type="curve"/>
      <point x="94.56" y="0" type="line"/>
      <point x="101.98270704000001" y="0"/>
      <point x="108" y="6.017292960000001"/>
      <point x="108" y="13.440000000000001" type="curve"/>
      <point x="108" y="541.56" type="line"/>
      <point x="108" y="548.9827070399999"/>
      <point x="101.98270704000001" y="555"/>
      <point x="94.56" y="555" type="curve"/>
      <point x="73.44" y="555" type="line"/>
      <point x="66.01729295999999" y="555"/>
      <point x="60" y="548.9827070399999"/>
      <point x="60" y="541.56" type="curve"/>
      <point x="60" y="13.440000000000001" type="line"/>
      <point x="60" y="6.017292960000001"/>
      <point x="66.01729295999999" y="0"/>
    </contour>
    <contour>
      <point x="124" y="-210" type="line"/>
      <point x="124" y="555" type="line"/>
      <point x="198.8" y="565"/>
      <point x="344" y="424.95"/>
      <point x="344" y="271.95" type="curve"/>
      <point x="344" y="-210" type="line"/>
      <point x="296" y="-210" type="line"/>
      <point x="296" y="271.95" type="line"/>
      <point x="296" y="528.6"/>
      <point x="246.8" y="507"/>
      <point x="172" y="507" type="curve"/>
      <point x="172" y="-210" type="line"/>
    </contour>
    <contour>
      <point x="38" y="0" type="line"/>
      <point x="138" y="0" type="line"/>
      <point x="138" y="20" type="line"/>
      <point x="38" y="20" type="line"/>
    </contour>
    <contour>
      <point x="362" y="0" type="line"/>
      <point x="462" y="0" type="line"/>
      <point x="462" y="20" type="line"/>
      <point x="362" y="20" type="line"/>
    </contour>
    <contour>
      <point x="201.9727857659712" y="564.770106176746" type="line"/>
      <point x="277.9727857659712" y="642.770106176746" type="line"/>
      <point x="298.0272142340288" y="623.229893823254" type="line"/>
      <point x="222.0272142340288" y="545.229893823254" type="line"/>
    </contour>
  </outline>
</glyph>
<glyph name="uni03B0" format="2">
  <advance width="540"/>
  <unicode hex="03B0"/>
  <outline>
    <contour>
      <point x="246.0" y="615" type="curve"/>
      <point x="246.0" y="622.7319865"/>
      <point x="239.7319865" y="629.0"/>
      <point x="232.0" y="629.0" type="curve"/>
      <point x="224.2680135" y="629.0"/>
      <point x="218.0" y="622.7319865"/>
      <point x="218.0" y="615" type="curve"/>
      <point x="218.0" y="607.2680135"/>
      <point x="224.2680135" y="601.0"/>
      <point x="232.0" y="601.0" type="curve"/>
      <point x="239.7319865" y="601.0"/>
      <point x="246.0" y="607.2680135"/>
    </contour>
    <contour>
      <point x="322.0" y="615" type="curve"/>
      <point x="322.0" y="622.7319865"/>
      <point x="315.7319865" y="629.0"/>
      <point x="308.0" y="629.0" type="curve"/>
      <point x="300.2680135" y="629.0"/>
      <point x="294.0" y="622.7319865"/>
      <point x="294.0" y="615" type="curve"/>
      <point x="294.0" y="607.2680135"/>
      <point x="300.2680135" y="601.0"/>
      <point x="308.0" y="601.0" type="curve"/>
      <point x="315.7319865" y="601.0"/>
      <point x="322.0" y="607.2680135"/>
    </contour>
    <contour>
      <point x="221.9727857659712" y="564.770106176746" type="line"/>
      <point x="297.9727857659712" y="642.770106176746" type="line"/>
      <point x="318.0272142340288" y="623.229893823254" type="line"/>
      <point x="242.0272142340288" y="545.229893823254" type="line"/>
    </contour>
    <component base="u"/>
  </outline>
</glyph>
<glyph name="uni03B2" format="2">
  <advance width="500"/>
  <unicode hex="03B2"/>
  <outline>
    <contour>
      <point x="85.44" y="-210" type="curve"/>
      <point x="106.56" y="-210" type="line"/>
      <point x="113.98270704000001" y="-210"/>
      <point x="120" y="-203.98270704"/>
      <point x="120" y="-196.56" type="curve"/>
      <point x="120" y="746.56" type="line"/>
      <point x="120" y="753.9827070399999"/>
      <point x="113.98270704000001" y="760"/>
      <point x="106.56" y="760" type="curve"/>
      <point x="85.44" y="760" type="line"/>
      <point x="78.01729295999999" y="760"/>
      <point x="72" y="753.9827070399999"/>
      <point x="72" y="746.56" type="curve"/>
      <point x="72" y="-196.56" type="line"/>
      <point x="72" y="-203.98270704"/>
      <point x="78.01729295999999" y="-210"/>
    </contour>
    <contour>
      <point x="382" y="386" type="curve"/>
      <point x="382" y="478.783838"/>
      <point x="316.6335735" y="554"/>
      <point x="236" y="554" type="curve"/>
      <point x="155.3664265" y="554"/>
      <point x="90" y="478.783838"/>
      <point x="90" y="386" type="curve"/>
      <point x="90" y="293.216162"/>
      <point x="155.3664265" y="218"/>
      <point x="236" y="218" type="curve"/>
      <point x="316.6335735" y="218"/>
      <point x="382" y="293.216162"/>
    </contour>
    <contour>
      <point x="334" y="386" type="curve"/>
      <point x="334" y="319.72583"/>
      <point x="290.1239055" y="266"/>
      <point x="236" y="266" type="curve"/>
      <point x="181.8760945" y="266"/>
      <point x="138" y="319.72583"/>
      <point x="138" y="386" type="curve"/>
      <point x="138" y="452.27417"/>
      <point x="181.8760945" y="506"/>
      <point x="236" y="506" type="curve"/>
      <point x="290.1239055" y="506"/>
      <point x="334" y="452.27417"/>
    </contour>
    <contour>
      <point x="382" y="142" type="curve"/>
      <point x="382" y="224.8427125"/>
      <point x="316.6335735" y="292"/>
      <point x="236" y="292" type="curve"/>
      <point x="155.3664265" y="292"/>
      <point x="90" y="224.8427125"/>
      <point x="90" y="142" type="curve"/>
      <point x="90" y="59.157287499999995"/>
      <point x="155.3664265" y="-8"/>
      <point x="236" y="-8" type="curve"/>
      <point x="316.6335735" y="-8"/>
      <point x="382" y="59.157287499999995"/>
    </contour>
    <contour>
      <point x="334" y="142" type="curve"/>
      <point x="334" y="85.6669555"/>
      <point x="290.1239055" y="40"/>
      <point x="236" y="40" type="curve"/>
      <point x="181.8760945" y="40"/>
      <point x="138" y="85.6669555"/>
      <point x="138" y="142" type="curve"/>
      <point x="138" y="198.3330445"/>
      <point x="181.8760945" y="244"/>
      <point x="236" y="244" type="curve"/>
      <point x="290.1239055" y="244"/>
      <point x="334" y="198.3330445"/>
    </contour>
    <contour>
      <point x="38" y="0" type="line"/>
      <point x="138" y="0" type="line"/>
      <point x="138" y="20" type="line"/>
      <point x="38" y="20" type="line"/>
    </contour>
    <contour>
      <point x="362" y="0" type="line"/>
      <point x="462" y="0" type="line"/>
      <point x="462" y="20" type="line"/>
      <point x="362" y="20" type="line"/>
    </contour>
  </outline>
</glyph>
<glyph name="uni03B3" format="2">
  <advance width="500"/>
  <unicode hex="03B3"/>
  <outline>
    <contour>
      <point x="96.3937443420632" y="563.6325091568044" type="line"/>
      <point x="266.3937443420632" y="122.63250915680442" type="line"/>
      <point x="221.6062556579368" y="105.36749084319558" type="line"/>
      <point x="51.60625565793679" y="546.3674908431956" type="line"/>
    </contour>
    <contour>
      <point x="448.1849744048394" y="545.8442962773679" type="line"/>
      <point x="266.1849744048394" y="104.84429627736786" type="line"/>
      <point x="221.8150255951606" y="123.15570372263214" type="line"/>
      <point x="403.8150255951606" y="564.1557037226321" type="line"/>
    </contour>
    <contour>
      <point x="225.44" y="-210" type="curve"/>
      <point x="246.56" y="-210" type="line"/>
      <point x="253.98270704" y="-210"/>
      <point x="260" y="-203.98270704"/>
      <point x="260" y="-196.56" type="curve"/>
      <point x="260" y="-69.44" type="line"/>
      <point x="260" y="-62.01729296"/>
      <point x="253.98270704" y="-56"/>
      <point x="246.56" y="-56" type="curve"/>
      <point x="225.44" y="-56" type="line"/>
      <point x="218.01729296" y="-56"/>
      <point x="212" y="-62.01729296"/>
      <point x="212" y="-69.44" type="curve"/>
      <point x="212" y="-196.56" type="line"/>
      <point x="212" y="-203.98270704"/>
      <point x="218.01729296" y="-210"/>
    </contour>
    <contour>
      <point x="38" y="0" type="line"/>
      <point x="138" y="0" type="line"/>
      <point x="138" y="20" type="line"/>
      <point x="38" y="20" type="line"/>
    </contour>
    <contour>
      <point x="362" y="0" type="line"/>
      <point x="462" y="0" type="line"/>
      <point x="462" y="20" type="line"/>
      <point x="362" y="20" type="line"/>
    </contour>
  </outline>
</glyph>
<glyph name="uni03B5" format="2">
  <advance width="500"/>
  <unicode hex="03B5"/>
  <outline>
    <contour>
      <point x="396.15999999999997" y="443.92" type="line"/>
      <point x="333.52" y="522"/>
      <point x="176.92000000000002" y="522"/>
      <point x="76" y="382.92" type="curve"/>
      <point x="76" y="173.07999999999998"/>
      <point x="176.92000000000002" y="34"/>
      <point x="333.52" y="34" type="curve"/>
      <point x="377.02" y="95.0"/>
      <point x="396.15999999999997" y="136.48000000000002"/>
      <point x="396.15999999999997" y="156.0" type="curve"/>
      <point x="355.84" y="182.84" type="line"/>
      <point x="316.12" y="82"/>
      <point x="124" y="199.92000000000002"/>
      <point x="124" y="278" type="curve"/>
      <point x="124" y="356.08"/>
      <point x="316.12" y="474"/>
      <point x="355.84" y="373.15999999999997" type="curve"/>
    </contour>
    <contour>
      <point x="231.52" y="246" type="curve"/>
      <point x="368.48" y="246" type="line"/>
      <point x="374.84232032" y="246"/>
      <point x="380" y="251.15767967999997"/>
      <point x="380" y="257.52" type="curve"/>
      <point x="380" y="282.48" type="line"/>
      <point x="380" y="288.84232032"/>
      <point x="374.84232032" y="294"/>
      <point x="368.48" y="294" type="curve"/>
      <point x="231.52" y="294" type="line"/>
      <point x="225.15767968" y="294"/>
      <point x="220" y="288.84232032"/>
      <point x="220" y="282.48" type="curve"/>
      <point x="220" y="257.52" type="line"/>
      <point x="220" y="251.15767967999997"/>
      <point x="225.15767968" y="246"/>
    </contour>
    <contour>
      <point x="38" y="0" type="line"/>
      <point x="138" y="0" type="line"/>
      <point x="138" y="20" type="line"/>
      <point x="38" y="20" type="line"/>
    </contour>
    <contour>
      <point x="362" y="0" type="line"/>
      <point x="462" y="0" type="line"/>
      <point x="462" y="20" type="line"/>
      <point x="362" y="20" type="line"/>
    </contour>
  </outline>
</glyph>
<glyph name="uni03B8" format="2">
  <advance width="500"/>
  <unicode hex="03B8"/>
  <outline>
    <contour>
      <point x="420" y="278" type="curve"/>
      <point x="420" y="431.53516049999996"/>
      <point x="343.88840749999997" y="556"/>
      <point x="250" y="556" type="curve"/>
      <point x="156.1115925" y="556"/>
      <point x="80" y="431.53516049999996"/>
      <point x="80" y="278" type="curve"/>
      <point x="80" y="124.46483950000001"/>
      <point x="156.1115925" y="0"/>
      <point x="250" y="0" type="curve"/>
      <point x="343.88840749999997" y="0"/>
      <point x="420" y="124.46483950000001"/>
    </contour>
    <contour>
      <point x="372" y="278" type="curve"/>
      <point x="372" y="150.97450750000002"/>
      <point x="317.3787395" y="48"/>
      <point x="250" y="48" type="curve"/>
      <point x="182.6212605" y="48"/>
      <point x="128" y="150.97450750000002"/>
      <point x="128" y="278" type="curve"/>
      <point x="128" y="405.0254925"/>
      <point x="182.6212605" y="508"/>
      <point x="250" y="508" type="curve"/>
      <point x="317.3787395" y="508"/>
      <point x="372" y="405.0254925"/>
    </contour>
    <contour>
      <point x="115.52" y="246" type="curve"/>
      <point x="384.48" y="246" type="line"/>
      <point x="390.84232032" y="246"/>
      <point x="396" y="251.15767967999997"/>
      <point x="396" y="257.52" type="curve"/>
      <point x="396" y="282.48" type="line"/>
      <point x="396" y="288.84232032"/>
      <point x="390.84232032" y="294"/>
      <point x="384.48" y="294" type="curve"/>
      <point x="115.52" y="294" type="line"/>
      <point x="109.15767968" y="294"/>
      <point x="104" y="288.84232032"/>
      <point x="104" y="282.48" type="curve"/>
      <point x="104" y="257.52" type="line"/>
      <point x="104" y="251.15767967999997"/>
      <point x="109.15767968" y="246"/>
    </contour>
    <contour>
      <point x="38" y="0" type="line"/>
      <point x="138" y="0" type="line"/>
      <point x="138" y="20" type="line"/>
      <point x="38" y="20" type="line"/>
    </contour>
    <contour>
      <point x="362" y="0" type="line"/>
      <point x="462" y="0" type="line"/>
      <point x="462" y="20" type="line"/>
      <point x="362" y="20" type="line"/>
    </contour>
  </outline>
</glyph>
<glyph name="uni03BC" format="2">
  <advance width="500"/>
  <unicode hex="03BC"/>
  <outline>
    <contour>
      <point x="73.44" y="-210" type="curve"/>
      <point x="94.56" y="-210" type="line"/>
      <point x="101.98270704000001" y="-210"/>
      <point x="108" y="-203.98270704"/>
      <point x="108" y="-196.56" type="curve"/>
      <point x="108" y="541.56" type="line"/>
      <point x="108" y="548.9827070399999"/>
      <point x="101.98270704000001" y="555"/>
      <point x="94.56" y="555" type="curve"/>
      <point x="73.44" y="555" type="line"/>
      <point x="66.01729295999999" y="555"/>
      <point x="60" y="548.9827070399999"/>
      <point x="60" y="541.56" type="curve"/>
      <point x="60" y="-196.56" type="line"/>
      <point x="60" y="-203.98270704"/>
      <point x="66.01729295999999" y="-210"/>
    </contour>
    <contour>
      <point x="309.44" y="0" type="curve"/>
      <point x="330.56" y="0" type="line"/>
      <point x="337.98270704" y="0"/>
      <point x="344" y="6.017292960000001"/>
      <point x="344" y="13.440000000000001" type="curve"/>
      <point x="344" y="541.56" type="line"/>
      <point x="344" y="548.9827070399999"/>
      <point x="337.98270704" y="555"/>
      <point x="330.56" y="555" type="curve"/>
      <point x="309.44" y="555" type="line"/>
      <point x="302.01729296" y="555"/>
      <point x="296" y="548.9827070399999"/>
      <point x="296" y="541.56" type="curve"/>
      <point x="296" y="13.440000000000001" type="line"/>
      <point x="296" y="6.017292960000001"/>
      <point x="302.01729296" y="0"/>
    </contour>
    <contour>
      <point x="124" y="180" type="line"/>
      <point x="124" y="70"/>
      <point x="160" y="48"/>
      <point x="234" y="48" type="curve"/>
      <point x="306" y="48"/>
      <point x="344" y="92"/>
      <point x="344" y="190" type="curve"/>
      <point x="280" y="190" type="line"/>
      <point x="280" y="106"/>
      <point x="264" y="54"/>
      <point x="234" y="54" type="curve"/>
      <point x="202" y="54"/>
      <point x="124" y="96"/>
      <point x="124" y="190" type="curve"/>
    </contour>
    <contour>
      <point x="38" y="0" type="line"/>
      <point x="138" y="0" type="line"/>
      <point x="138" y="20" type="line"/>
      <point x="38" y="20" type="line"/>
    </contour>
    <contour>
      <point x="362" y="0" type="line"/>
      <point x="462" y="0" type="line"/>
      <point x="462" y="20" type="line"/>
      <point x="362" y="20" type="line"/>
    </contour>
  </outline>
</glyph>
